<?xml version="1.0" standalone="no"?><!DOCTYPE svg PUBLIC "-//W3C//DTD SVG 1.1//EN" "http://www.w3.org/Graphics/SVG/1.1/DTD/svg11.dtd"><svg t="1706856634768" class="icon" viewBox="0 0 1024 1024" version="1.1" xmlns="http://www.w3.org/2000/svg" p-id="2188" xmlns:xlink="http://www.w3.org/1999/xlink" width="64" height="64"><path d="M509.170273 1022.494826C224.270931 1017.738476-3.732832 786.302916 0.903104 506.521167 5.53904 223.90969 239.5635-4.334901 520.007526 1.565381c282.430856 5.900282 503.87206 229.087488 503.149577 514.287865-0.662277 282.55127-236.914393 511.21731-513.98683 506.64158z" fill="#3B80C3" p-id="2189"></path><path d="M513.746002 980.831609c-259.732832 0.060207-470.276576-209.881468-469.554092-468.349953 0.722484-258.167451 211.868297-467.386642 471.239887-466.904986 256.662277 0.481656 466.844779 211.567262 466.724365 468.711195-0.120414 256.842897-210.603951 466.483537-468.41016 466.543744z" fill="#FFFFFF" p-id="2190"></path><path d="M443.424271 765.170273c0 23.902164-0.60207 47.864534 0.301035 71.706491 0.421449 11.920978-3.793039 15.111947-15.111948 14.750705-21.975541-0.78269-44.071496-0.662277-66.047036-0.060207-10.355597 0.301035-14.449671-2.76952-14.329257-13.727187 0.481656-49.068674-0.120414-98.197554 0.481656-147.266227 0.361242-28.116651 21.072437-48.165569 47.74412-47.864535 26.370649 0.240828 46.299153 20.590781 46.901223 48.827846 0.421449 24.504233 0 49.068674 0.060207 73.633114z" fill="#FFFFFF" p-id="2191"></path><path d="M92.598307 512a419.823142 419.401693 90 1 0 838.803386 0 419.823142 419.401693 90 1 0-838.803386 0Z" fill="#3B80C3" p-id="2192"></path><path d="M255.157103 441.437441a160.102352 160.102352 0 0 1 45.697083-112.406397c6.442145-6.442145 8.91063-15.894638 6.442145-24.624647a25.298965 25.298965 0 0 0-18.242709-17.821261 25.407338 25.407338 0 0 0-24.504233 7.044215c-81.158984 83.085607-80.135466 216.022578 2.287864 297.843838a25.311007 25.311007 0 0 0 35.823142-0.120414 25.311007 25.311007 0 0 0-0.120414-35.823142 160.210724 160.210724 0 0 1-47.382878-114.092192z m377.738476-95.909689a25.371214 25.371214 0 0 0-0.722484 35.823142c32.812794 34.197554 32.150517 88.383819-1.565381 121.738476a25.335089 25.335089 0 0 0-7.104421 24.624647 25.431421 25.431421 0 0 0 18.001881 18.242709c8.850423 2.348071 18.302916-0.240828 24.684854-6.863593 53.343368-52.801505 54.427093-138.656632 2.468486-192.842898a25.052117 25.052117 0 0 0-17.761054-7.766698c-6.682973-0.120414-13.185325 2.408278-18.001881 7.044215z m0 0" fill="#FFFFFF" p-id="2193"></path><path d="M759.390405 293.689558a25.407338 25.407338 0 0 0-24.504234-7.044215c-8.850423 2.227658-15.774224 9.031044-18.242709 17.821261-2.408278 8.790216 0.060207 18.182502 6.442145 24.624647 61.651929 63.21731 60.869238 164.244591-1.746002 226.498589a25.311007 25.311007 0 0 0-0.120414 35.823142 25.311007 25.311007 0 0 0 35.823142 0.120414c82.42333-81.881468 83.446849-214.758231 2.348072-297.843838zM393.633114 538.912512a25.365193 25.365193 0 0 0-0.180621-35.823142c-33.715898-33.354657-34.378175-87.540922-1.565381-121.738476a25.371214 25.371214 0 0 0-0.722484-35.823142 25.371214 25.371214 0 0 0-35.823142 0.722483c-51.958608 54.186265-50.874882 140.041392 2.468486 192.842898a25.311007 25.311007 0 0 0 35.823142-0.180621z m155.394167-38.412042c24.684854-16.496707 35.702728-47.142051 27.15334-75.559736a67.552211 67.552211 0 0 0-129.143932-0.722484 67.492004 67.492004 0 0 0 26.370649 75.860772l-113.73095 312.413922a25.407338 25.407338 0 0 0 15.111947 32.451553c13.125118 4.75635 27.634995-2.047037 32.451552-15.172155l24.082785-66.107243h159.608654l24.624648 67.732831c4.334901 11.860771 17.460019 17.941675 29.32079 13.666981l4.575729-1.685795c11.860771-4.334901 17.941675-17.460019 13.66698-29.320791L549.027281 500.50047z m-37.870178 44.011289l30.645343 84.109125H480.511759l30.645344-84.109125z m-63.397931 174.17874l16.376294-45.034808h94.043273l16.376294 45.034808H447.759172z m0 0" fill="#FFFFFF" p-id="2194"></path></svg>