<?xml version="1.0" standalone="no"?><!DOCTYPE svg PUBLIC "-//W3C//DTD SVG 1.1//EN" "http://www.w3.org/Graphics/SVG/1.1/DTD/svg11.dtd"><svg t="1706856704396" class="icon" viewBox="0 0 1024 1024" version="1.1" xmlns="http://www.w3.org/2000/svg" p-id="3939" xmlns:xlink="http://www.w3.org/1999/xlink" width="64" height="64"><path d="M509.170273 1022.494826C224.270931 1017.738476-3.732832 786.302916 0.903104 506.521167 5.53904 223.90969 239.5635-4.334901 520.007526 1.565381c282.430856 5.900282 503.87206 229.087488 503.149577 514.287865-0.662277 282.55127-236.914393 511.21731-513.98683 506.64158z" fill="#3B80C3" p-id="3940"></path><path d="M513.746002 980.831609c-259.732832 0.060207-470.276576-209.881468-469.554092-468.349953 0.722484-258.167451 211.868297-467.386642 471.239887-466.904986 256.662277 0.481656 466.844779 211.567262 466.724365 468.711195-0.120414 256.842897-210.603951 466.483537-468.41016 466.543744z" fill="#FFFFFF" p-id="3941"></path><path d="M443.424271 765.170273c0 23.902164-0.60207 47.864534 0.301035 71.706491 0.421449 11.920978-3.793039 15.111947-15.111948 14.750705-21.975541-0.78269-44.071496-0.662277-66.047036-0.060207-10.355597 0.301035-14.449671-2.76952-14.329257-13.727187 0.481656-49.068674-0.120414-98.197554 0.481656-147.266227 0.361242-28.116651 21.072437-48.165569 47.74412-47.864535 26.370649 0.240828 46.299153 20.590781 46.901223 48.827846 0.421449 24.504233 0 49.068674 0.060207 73.633114z" fill="#FFFFFF" p-id="3942"></path><path d="M865.414864 779.619944c-5.177799 4.75635-9.091251 10.476011-17.098777 12.161806-19.386642 4.15428-19.687676 3.853246-21.493886-15.533396-4.214487-45.275635-35.582314-85.674506-95.126999-88.925682-40.579492-2.227658-84.048918 32.993415-92.71872 76.041392-1.444967 7.104421-3.492004 14.750706-2.167451 21.554092 2.348071 11.860771-1.143932 14.26905-12.703669 14.148636-67.311383-0.541863-134.682973-0.481656-201.994355-0.060207-9.813735 0.060207-13.546566-1.746002-12.763876-12.583255 3.672625-49.128881-33.535278-88.504233-73.753528-96.451552-49.189087-9.753528-92.778928 15.292568-110.720602 62.494826-4.997178 13.185325-4.936971 26.792098-4.15428 40.398871 0.421449 7.646284-2.287865 9.151458-9.271872 8.609596-26.491063-2.047037-36.365005-19.386642-22.99906-42.566322 5.238006-9.031044 5.418627-18.302916 5.057385-27.634995-0.541863-14.329257 4.455315-22.035748 19.80809-22.637818 8.12794-0.301035 19.988711-0.541863 17.881468-13.004704-2.167451-12.643462-13.004704-7.044214-21.253057-6.502351-4.15428 0.301035-10.174976 4.936971-12.282221 0-2.649106-6.201317 3.010348-10.837253 8.067733-14.148636 20.711195-13.606773 43.349012-22.999059 67.251176-29.14017 16.25588-4.15428 32.571966-8.549389 49.068674-11.499529 20.590781-3.732832 37.749765-12.703669 54.547507-25.467545 41.482596-31.488241 85.674506-58.46096 138.957667-65.565381 50.453434-6.682973 100.66604-5.238006 150.457196 5.177799 23.721543 4.936971 42.265287 20.711195 62.434619 32.812794 6.984008 4.214487 14.088429 8.489182 20.41016 13.66698 18.784572 15.412982 39.254939 21.855127 63.337724 15.292568 7.224835-1.98683 16.195673-4.696143 19.80809 5.418627 3.37159 9.5127-4.515522 13.064911-14.931326 16.195672 10.29539 4.274694 17.339605 7.044214 24.323612 10.054563 5.117592 2.227658 9.332079 5.057385 10.536218 11.379115 2.649106 14.088429 0.78269 16.737535-13.66698 16.797743-4.094073 0-8.188147-0.120414-12.28222 0.120414-6.201317 0.361242-12.523048 1.625588-12.28222 9.572907 0.240828 7.345249 6.14111 9.572907 12.462841 9.994355 5.418627 0.361242 10.957667 0.541863 16.376293 0.120414 7.887112-0.662277 10.777046 2.649106 9.994356 10.235183-0.361242 4.033866 0.180621 8.188147-0.120414 12.282221-1.38476 19.266228 0.301035 37.749765 12.763876 53.644402 0.240828 4.455315 0.240828 9.031044 0.240828 13.546567z" fill="#3B80C3" p-id="3943"></path><path d="M311.029163 853.373471c-14.810913-6.080903-30.765757-8.970837-43.409219-20.349953-23.360301-20.952023-28.959548-58.942615-11.619944-87.480715 16.918156-27.755409 52.681091-39.857008 83.507056-28.237065 31.367827 11.860771 49.791157 43.529633 43.58984 74.71684-6.984008 34.980245-26.852305 53.70461-62.193792 58.822201-1.505174 0.240828-2.889934 1.625588-4.334901 2.468485-1.926623 0.060207-3.732832 0.060207-5.53904 0.060207zM345.527752 495.864534c-39.134525 0-78.208843 0.361242-117.343368-0.120414-27.695202-0.361242-44.914393-17.941675-45.034807-45.516462-0.240828-76.88429-0.361242-153.768579 0-230.592663 0.180621-33.836312 16.135466-48.888053 49.791157-48.888052 76.402634-0.060207 152.805268-0.060207 229.268109 0 30.765757 0 47.683913 16.496707 47.74412 46.841016 0.180621 75.981185 0.240828 151.902164 0.120414 227.883349-0.060207 34.67921-16.677328 50.634055-51.296331 50.573847-37.749765-0.120414-75.49953 0-113.249294 0v-0.180621zM800.69238 780.462841c0.240828 40.158043-29.380997 70.442145-68.997178 70.442145-38.773283 0.060207-68.575729-30.103481-68.696143-69.539041-0.060207-38.713076 29.200376-67.913452 68.274695-68.033866 38.592662-0.060207 69.177799 29.501411 69.418626 67.130762z" fill="#3B80C3" p-id="3944"></path><path d="M388.575729 641.98683c40.880527-34.980245 85.072437-59.002822 137.271872-67.130762 18.483537-2.889934 37.027281-2.588899 55.631232-2.528693 9.151458 0.060207 11.680151 3.431797 10.897461 12.161807-1.565381 17.64064-2.468485 35.281279-3.311383 52.982126-0.240828 5.53904-2.167451 8.007526-8.007526 8.248353-56.112888 2.709313-112.225776 9.5127-168.338664 0.361242-7.405456-1.204139-14.810913-2.528692-24.142992-4.094073zM684.854186 637.290687c-20.771402 1.685795-41.542803 3.010348-62.253998 5.177798-8.368768 0.842897-12.824083 0.060207-11.619943-10.114769 1.746002-14.810913 3.431797-29.802446 3.010348-44.673565-0.361242-12.703669 5.599247-11.619944 13.907808-9.271873 30.645343 8.730009 53.343368 27.996237 71.224835 53.644403-2.167451 8.730009-10.235183 1.505174-14.26905 5.238006z" fill="#FFFFFF" p-id="3945"></path><path d="M576.60207 689.851364c-7.345249-1.143932-21.373471 3.732832-21.493886-9.633114-0.120414-14.871119 14.389464-9.031044 23.360301-10.174976 3.552211-0.421449 7.164628-0.120414 10.777047 0 6.622766 0.180621 11.860771 2.709313 11.619943 10.114769-0.240828 7.345249-5.659454 9.572907-12.161806 9.693321-3.552211 0.060207-7.164628 0-12.101599 0z" fill="#FEFEFF" p-id="3946"></path><path d="M684.854186 637.290687c3.913452-4.15428 10.957667 0.301035 14.329257-5.238006 2.588899 1.866416 6.020696 4.274694-0.060207 5.35842-4.575729 0.842897-9.5127 0-14.26905-0.120414z" fill="#89B2DE" p-id="3947"></path><path d="M340.891816 781.968015c-0.180621 13.727187-13.004704 26.250235-26.491063 26.009407-12.824083-0.301035-24.925682-12.944497-24.985889-26.069614-0.060207-12.763876 12.583255-25.888993 25.106303-26.129821 13.125118-0.240828 26.55127 13.064911 26.370649 26.190028z" fill="#FEFFFF" p-id="3948"></path><path d="M475.273754 333.004704c0 36.84666 0.060207 73.633114 0 110.479774-0.060207 16.617121-2.649106 19.326435-18.724365 19.326435-73.211665 0.060207-146.42333 0.060207-219.574789 0-16.496707 0-19.085607-2.468485-19.085607-18.965193-0.060207-74.11477 0.120414-148.229539-0.18062-222.344309-0.060207-12.763876 4.75635-17.941675 17.700846-17.941674 73.633114 0.180621 147.326435-0.120414 220.959549-0.180621 16.4365 0 18.904986 2.588899 18.904986 19.085606 0.060207 36.906867 0 73.693321 0 110.539982zM757.945437 781.064911c0.421449 13.606773-11.740357 26.250235-25.527751 26.430856-14.028222 0.180621-25.286924-10.235183-25.949201-24.082785-0.722484-14.690499 11.138288-27.394167 25.708373-27.634995 12.161806-0.180621 25.347131 12.824083 25.768579 25.286924z" fill="#FFFFFF" p-id="3949"></path><path d="M272.4365 333.546566c0-27.755409 0.301035-55.510818-0.18062-83.266227-0.180621-8.91063 1.866416-13.365945 11.740357-13.365946 29.140169-0.120414 58.220132-1.204139 87.239887 2.167451 29.260583 3.37159 51.11571 28.357479 54.126059 61.4111 2.709313 29.32079-16.677328 57.798683-45.275635 67.130762-17.700847 5.779868-35.823142 6.020696-54.005645 5.298213-8.91063-0.361242-12.101599 2.287865-11.559736 11.379116 0.722484 12.222013-0.060207 24.56444 0.240827 36.84666 0.180621 6.622766-1.806209 9.5127-9.151458 9.994356-33.234243 2.167451-33.234243 2.408278-33.234242-30.765757 0-22.276576 0-44.553151 0.060206-66.829728z" fill="#3B80C3" p-id="3950"></path><path d="M314.64158 305.309501v-4.094073c0-29.380997 0-29.380997 29.92286-25.828786 26.852305 3.190969 33.595484 8.007526 36.06397 26.611477 1.746002 13.185325-3.913452 23.420508-15.412982 29.140169-14.329257 7.164628-30.163688 5.177799-45.57667 5.117592-5.53904-0.060207-4.936971-4.214487-4.936971-7.766698-0.060207-7.766698-0.060207-15.473189-0.060207-23.179681z" fill="#FEFEFF" p-id="3951"></path></svg>