<?xml version="1.0" standalone="no"?><!DOCTYPE svg PUBLIC "-//W3C//DTD SVG 1.1//EN" "http://www.w3.org/Graphics/SVG/1.1/DTD/svg11.dtd"><svg t="1706856749248" class="icon" viewBox="0 0 1024 1024" version="1.1" xmlns="http://www.w3.org/2000/svg" p-id="5374" xmlns:xlink="http://www.w3.org/1999/xlink" width="64" height="64"><path d="M509.170273 1022.494826C224.270931 1017.738476-3.732832 786.302916 0.903104 506.521167 5.53904 223.90969 239.5635-4.334901 520.007526 1.565381c282.430856 5.900282 503.87206 229.087488 503.149577 514.287865-0.662277 282.55127-236.914393 511.21731-513.98683 506.64158z" fill="#3B80C3" p-id="5375"></path><path d="M512.60207 979.627469C252.869238 979.687676 42.325494 769.746002 43.047977 511.277516 43.770461 253.110066 254.856068 43.890875 514.287865 44.372531c256.662277 0.481656 466.844779 211.567262 466.724365 468.711194-0.180621 256.842897-210.603951 466.483537-468.41016 466.543744z" fill="#FFFFFF" p-id="5376"></path><path d="M443.424271 765.170273c0 23.902164-0.60207 47.864534 0.301035 71.706491 0.421449 11.920978-3.793039 15.111947-15.111948 14.750705-21.975541-0.78269-44.071496-0.662277-66.047036-0.060207-10.355597 0.301035-14.449671-2.76952-14.329257-13.727187 0.481656-49.068674-0.120414-98.197554 0.481656-147.266227 0.361242-28.116651 21.072437-48.165569 47.74412-47.864535 26.370649 0.240828 46.299153 20.590781 46.901223 48.827846 0.421449 24.504233 0 49.068674 0.060207 73.633114z" fill="#FFFFFF" p-id="5377"></path><path d="M932.84666 512.060207c0.120414 233.783631-188.267168 422.652869-421.388523 422.412041-231.796802-0.240828-420.003763-188.507996-420.365004-420.425211-0.301035-234.626529 185.497648-422.532455 419.883349-424.519285 231.555974-1.926623 421.749765 188.507996 421.870178 422.532455z" fill="#3B80C3" p-id="5378"></path><path d="M441.015992 198.261524h12.523048c4.15428 2.408278 8.368768 2.408278 12.523048 0h18.784572c6.261524 2.468485 12.523048 2.468485 18.784572 0h18.784572c6.261524 2.468485 12.523048 2.468485 18.784572 0h15.65381c4.15428 2.408278 8.368768 2.408278 12.523048 0h12.523048c28.658514 4.094073 57.678269 3.130762 86.457197 6.020696 25.648166 2.588899 50.272813 9.392286 73.332079 19.80809 25.708373 11.559737 38.291627 34.07714 40.940734 61.83255 1.204139 12.88429 0.301035 25.9492 0.541862 38.953904 0.120414 7.826905 1.685795 15.111947 10.536219 16.857949 21.01223 4.214487 30.223895 17.941675 32.270931 38.0508v56.353716c-4.274694 16.195673-12.402634 28.5381-30.344309 31.789275-10.476011 1.926623-12.342427 9.753528-12.402634 18.844779-0.180621 20.349953-0.060207 40.699906-0.060207 60.989652-0.060207 54.788335-0.120414 109.516463 0.060207 164.304798 0.060207 14.931326-3.251176 27.755409-14.991533 37.689558-7.224835 6.080903-9.572907 14.26905-10.295391 23.601129-2.649106 35.702728-20.771402 52.259643-56.474129 52.380056-35.582314 0.120414-51.537159-12.703669-57.678269-47.74412-1.866416-10.89746-7.285042-15.292568-17.761054-15.352776-75.078081-0.180621-150.216369-0.180621-225.29445 0-10.174976 0-16.135466 3.672625-18.42333 14.750706-9.633114 46.600188-29.983067 50.092192-68.033866 47.804327-29.862653-1.806209-43.108184-21.01223-45.937912-49.73095-1.023518-10.29539-2.950141-19.507056-11.138288-26.430856-11.318909-9.572907-14.329257-22.035748-14.329257-36.365005 0.060207-71.947319 0.120414-143.954845 0-215.902163-0.060207-23.119473-0.120414-23.059266-20.891815-31.668862-11.800564-4.936971-20.289746-13.004704-21.855127-26.250235-2.76952-23.360301-3.010348-46.720602 0.842897-70.020696 2.227658-13.787394 11.740357-20.771402 23.841957-24.022578 14.26905-3.793039 18.543744-12.462841 18.242709-26.430856-0.421449-21.19285-2.167451-42.626529 8.970838-62.61524 9.091251-16.316087 21.493885-27.574788 38.713076-34.498589 35.401693-14.26905 72.428975-18.844779 110.118532-19.687676 13.426152-0.421449 26.852305-0.963311 40.158043-3.311383z" fill="#FFFFFF" p-id="5379"></path><path d="M466.001881 198.261524c-4.15428 3.853246-8.368768 4.575729-12.523048 0h12.523048zM513.023518 573.772342c-63.578551 0-127.21731 0.060207-190.79586 0-19.266228 0-21.975541-2.649106-21.975541-21.493885-0.060207-60.989652-0.060207-121.979304 0-183.029163 0-17.881468 2.950141-20.771402 21.132643-20.771401 127.759172-0.060207 255.458137-0.060207 383.21731 0 18.242709 0 21.19285 2.829727 21.19285 20.711194 0.060207 61.531515-0.180621 123.063029 0.180621 184.594544 0.120414 14.871119-5.900282 20.289746-20.530574 20.169332-64.180621-0.361242-128.301035-0.180621-192.421449-0.180621zM512.78269 298.385701c-34.920038 0-69.840075 0.120414-104.760112-0.060207-18.182502-0.060207-20.229539-2.76952-20.229539-24.805268 0-22.156162 2.107244-25.106303 19.868297-25.16651 70.381938-0.120414 140.703669 0.120414 211.085607-0.180621 13.968015-0.060207 20.530574 5.478833 19.446848 19.507056-0.180621 2.588899 0 5.238006 0 7.826905-0.120414 20.349953-2.408278 22.818438-22.216369 22.878645-34.438382 0.060207-68.816557 0-103.194732 0zM362.445908 674.558796c-0.301035 15.834431-15.834431 30.765757-31.668862 30.344308-15.954845-0.421449-30.886171-15.954845-30.344308-31.668861 0.541863-16.075259 15.834431-30.765757 31.668861-30.404516 15.894638 0.481656 30.645343 15.834431 30.344309 31.729069zM693.825024 642.889934c15.834431-0.421449 31.126999 14.329257 31.668861 30.404516 0.541863 15.714017-14.389464 31.247413-30.344308 31.668861-15.834431 0.421449-31.367827-14.509878-31.668862-30.344308-0.301035-15.954845 14.449671-31.30762 30.344309-31.729069z" fill="#3B80C3" p-id="5380"></path></svg>