<?xml version="1.0" standalone="no"?><!DOCTYPE svg PUBLIC "-//W3C//DTD SVG 1.1//EN" "http://www.w3.org/Graphics/SVG/1.1/DTD/svg11.dtd"><svg t="1706856699154" class="icon" viewBox="0 0 1024 1024" version="1.1" xmlns="http://www.w3.org/2000/svg" p-id="3778" xmlns:xlink="http://www.w3.org/1999/xlink" width="64" height="64"><path d="M509.170273 1022.494826C224.270931 1017.738476-3.732832 786.302916 0.903104 506.521167 5.53904 223.90969 239.5635-4.334901 520.007526 1.565381c282.430856 5.900282 503.87206 229.087488 503.149577 514.287865-0.662277 282.55127-236.914393 511.21731-513.98683 506.64158z" fill="#9FA0A0" p-id="3779"></path><path d="M513.746002 980.831609c-259.732832 0.060207-470.276576-209.881468-469.554092-468.349953 0.722484-258.167451 211.868297-467.386642 471.239887-466.904986 256.662277 0.481656 466.844779 211.567262 466.724365 468.711195-0.120414 256.842897-210.603951 466.483537-468.41016 466.543744z" fill="#FFFFFF" p-id="3780"></path><path d="M443.424271 765.170273c0 23.902164-0.60207 47.864534 0.301035 71.706491 0.421449 11.920978-3.793039 15.111947-15.111948 14.750705-21.975541-0.78269-44.071496-0.662277-66.047036-0.060207-10.355597 0.301035-14.449671-2.76952-14.329257-13.727187 0.481656-49.068674-0.120414-98.197554 0.481656-147.266227 0.361242-28.116651 21.072437-48.165569 47.74412-47.864535 26.370649 0.240828 46.299153 20.590781 46.901223 48.827846 0.421449 24.504233 0 49.068674 0.060207 73.633114z" fill="#FFFFFF" p-id="3781"></path><path d="M92.598307 512a419.823142 419.401693 90 1 0 838.803386 0 419.823142 419.401693 90 1 0-838.803386 0Z" fill="#9FA0A0" p-id="3782"></path><path d="M523.680151 789.975541H255.518344c-38.412041 0-44.372531-6.080903-44.37253-44.9746 0-9.151458-0.240828-18.363123 0.060207-27.514582 0.662277-21.132643 10.415804-32.331138 31.367827-32.210724 13.305738 0.060207 17.219191-3.251176 17.03857-16.978363-0.60207-52.440263 0.060207-52.620884 52.440263-52.620884 3.431797 0 6.923801-0.481656 10.29539 0.060207 11.49953 1.866416 14.088429-3.070555 13.968016-14.088429-0.481656-66.468485-0.60207-132.936971-0.120414-199.405457 0.180621-26.852305-2.528692-53.825024 2.107243-80.556914 13.66698-78.810913 70.502352-136.308561 150.336783-151.841957 77.727187-15.172154 157.019755 18.724365 198.923801 85.433678 18.062088 28.839135 26.129821 60.62841 26.129821 94.585137-0.060207 83.085607 0.301035 166.171214-0.361242 249.25682-0.120414 13.185325 2.889934 18.363123 16.677328 16.797742 10.716839-1.204139 21.734713-0.60207 32.632173-0.120413 18.603951 0.903104 26.972719 9.392286 27.815617 27.574788 0.180621 3.431797 0 6.863594 0.060207 10.29539 0.060207 9.151458-2.408278 19.446849 0.963311 27.213547 3.913452 9.091251 15.473189 2.348071 23.480715 4.75635 15.05174 4.515522 23.721543 13.125118 23.721543 29.260583 0 15.473189 0.120414 30.946378-0.120414 46.419567-0.240828 16.195673-8.609595 25.587959-24.624647 27.634996-6.201317 0.78269-12.523048 0.903104-18.844779 0.903104-90.370649 0.120414-180.861712 0.120414-271.412982 0.120414z" fill="#3E3A39" p-id="3783"></path><path d="M525.064911 759.330198c-88.263405 0-176.466604-0.361242-264.73001 0.361241-14.810913 0.120414-21.373471-3.010348-18.724365-18.603951 0.963311-5.599247 0.541863-11.439323 0.060207-17.158984-0.541863-6.984008 2.649106-9.151458 9.031044-8.549388 3.431797 0.301035 6.863594 0.060207 10.295391 0.060207 175.924741 0 351.789276 0.180621 527.714017-0.301035 14.871119-0.060207 22.577611 2.649106 19.507055 19.0254-0.60207 3.311383-0.541863 6.923801 0 10.29539 1.866416 12.101599-3.130762 15.292568-15.05174 15.172154-75.619944-0.541863-151.239887-0.240828-226.920038-0.240827-13.66698-0.060207-27.394167-0.060207-41.181561-0.060207z" fill="#FFFFFF" p-id="3784"></path><path d="M525.004704 646.261524c72.790216 0 145.64064 0.361242 218.430856-0.301035 13.185325-0.120414 17.881468 2.950141 17.098777 16.737535-0.662277 11.680151-0.903104 18.001881-16.195673 17.941675-146.182502-0.662277-292.365005-0.662277-438.547507 0-15.232361 0.060207-15.533396-6.261524-16.195673-17.941675-0.78269-13.787394 3.853246-16.857949 17.038571-16.737535 72.790216 0.662277 145.580433 0.301035 218.370649 0.301035z" fill="#FEFFFF" p-id="3785"></path><path d="M510.916275 325.117592c0-6.863594 0.120414-13.727187 0-20.590781-0.180621-9.572907 4.094073-15.533396 13.907808-15.65381 9.753528-0.120414 14.329257 5.599247 14.26905 15.232361-0.060207 14.329257 0.481656 28.658514-0.120414 42.927564-0.361242 8.368768 2.528692 10.89746 10.656632 10.476011 13.125118-0.60207 26.310442-0.060207 39.495767-0.180621 9.994356-0.060207 18.844779 1.565381 19.085606 14.028222 0.240828 12.28222-7.826905 15.111947-18.242709 14.991533-13.727187-0.120414-27.514581 0.361242-41.241769-0.18062-7.586077-0.240828-9.994356 2.528692-9.753527 9.873941 0.421449 14.329257 0.180621 28.598307 0.060207 42.927564-0.060207 9.151458-3.552211 15.593603-13.847601 15.714017-10.235183 0.120414-14.148636-6.020696-14.26905-15.292568-0.180621-12.041392-1.143932-24.203198 0.180621-36.06397 1.746002-14.991533-4.274694-18.664158-18.122296-17.339605-11.920978 1.204139-24.022578 0.240828-36.06397 0.120414-9.5127-0.060207-15.172154-4.575729-15.292568-14.449671-0.060207-10.054563 6.020696-14.208843 15.292568-14.329257 13.185325-0.180621 26.430856-1.023518 39.495767 0.180621 12.703669 1.143932 16.075259-3.853246 14.509878-15.352775-0.662277-5.53904 0-11.318909 0-17.03857z" fill="#FFFFFF" p-id="3786"></path></svg>