<?xml version="1.0" standalone="no"?><!DOCTYPE svg PUBLIC "-//W3C//DTD SVG 1.1//EN" "http://www.w3.org/Graphics/SVG/1.1/DTD/svg11.dtd"><svg t="1706856678438" class="icon" viewBox="0 0 1024 1024" version="1.1" xmlns="http://www.w3.org/2000/svg" p-id="3461" xmlns:xlink="http://www.w3.org/1999/xlink" width="64" height="64"><path d="M509.170273 1022.494826C224.270931 1017.738476-3.732832 786.302916 0.903104 506.521167 5.53904 223.90969 239.5635-4.334901 520.007526 1.565381c282.430856 5.900282 503.87206 229.087488 503.149577 514.287865-0.662277 282.55127-236.914393 511.21731-513.98683 506.64158z" fill="#3B80C3" p-id="3462"></path><path d="M513.746002 980.831609c-259.732832 0.060207-470.276576-209.881468-469.554092-468.349953 0.722484-258.167451 211.868297-467.386642 471.239887-466.904986 256.662277 0.481656 466.844779 211.567262 466.724365 468.711195-0.120414 256.842897-210.603951 466.483537-468.41016 466.543744z" fill="#FFFFFF" p-id="3463"></path><path d="M443.424271 765.170273c0 23.902164-0.60207 47.864534 0.301035 71.706491 0.421449 11.920978-3.793039 15.111947-15.111948 14.750705-21.975541-0.78269-44.071496-0.662277-66.047036-0.060207-10.355597 0.301035-14.449671-2.76952-14.329257-13.727187 0.481656-49.068674-0.120414-98.197554 0.481656-147.266227 0.361242-28.116651 21.072437-48.165569 47.74412-47.864535 26.370649 0.240828 46.299153 20.590781 46.901223 48.827846 0.421449 24.504233 0 49.068674 0.060207 73.633114z" fill="#FFFFFF" p-id="3464"></path><path d="M92.598307 512a419.823142 419.401693 90 1 0 838.803386 0 419.823142 419.401693 90 1 0-838.803386 0Z" fill="#3B80C3" p-id="3465"></path><path d="M612.906867 386.588899c-7.465663 1.806209-7.044214 8.248354-8.730009 12.523048-14.570085 37.689558-28.718721 75.49953-43.047977 113.249295-1.685795 4.455315-3.492004 8.91063-5.779869 13.004703-5.238006 9.332079-13.125118 13.907808-23.78175 10.656633-10.89746-3.311383-14.208843-12.101599-13.426152-22.39699 0.421449-5.117592 2.167451-10.174976 3.793039-15.172154 13.907808-42.98777 27.815616-85.915334 41.843838-128.842898 11.078081-34.016933 34.859831-52.681091 70.321731-54.728128 25.16651-1.505174 50.453434-1.565381 75.619943 0.120414 32.933208 2.227658 57.317027 21.132643 67.612418 52.500471 14.570085 44.252117 28.899341 88.56444 43.228598 132.876763 1.143932 3.612418 2.167451 7.285042 2.709314 11.017874 1.625588 11.49953-0.722484 21.313264-13.48636 24.745062-12.222013 3.311383-20.590781-2.76952-24.925682-13.546567-8.730009-21.614299-16.677328-43.529633-24.925682-65.264346-7.947319-20.891816-15.834431-41.723424-23.96237-62.555033-1.204139-3.130762-0.662277-8.188147-8.308561-7.947319 1.866416 7.405456 3.552211 14.509878 5.478833 21.493885 19.988711 71.887112 40.037629 143.774224 60.026341 215.661336 4.75635 17.03857 3.130762 19.145814-14.26905 19.206021-11.439323 0.060207-22.878645 0.662277-34.257761-0.180621-10.355597-0.78269-12.703669 3.37159-12.583255 13.064911 0.421449 47.142051 0.361242 94.223895 0.120414 141.365945-0.120414 19.206021-11.439323 28.5381-30.404516 26.129821-13.787394-1.806209-21.19285-11.439323-21.253057-28.899341-0.180621-47.142051 0-94.223895-0.120414-141.365946 0-5.117592 2.528692-11.920978-7.104421-12.28222-8.368768-0.301035-12.824083 0.78269-12.703669 11.198495 0.541863 48.045155 0.361242 96.150517 0.180621 144.195673-0.060207 19.145814-9.934149 28.417686-28.116651 27.33396-15.774224-0.903104-23.480715-9.572907-23.540922-27.875823-0.240828-46.178739-0.421449-92.357479 0.180621-138.536218 0.120414-10.89746-2.348071-15.473189-14.028222-14.389464-11.800564 1.023518-23.78175 0.361242-35.702728 0.180621-14.329257-0.180621-15.65381-2.287865-11.379116-17.700847 20.831609-75.078081 41.723424-150.216369 62.494826-225.294449 1.264346-4.15428 3.793039-8.368768 2.227657-13.546567zM404.349953 599.721543v185.738476c0 12.703669-0.842897 24.865475-13.185325 32.571966-21.674506 13.546566-46.720602 0.361242-47.924741-25.888993-1.264346-28.056444-1.806209-56.112888-2.16745-84.22954-0.60207-44.733772-0.78269-89.527752-1.384761-134.261523-0.060207-4.936971 2.829727-12.462841-7.164628-11.920979-8.669802 0.481656-6.14111 7.044214-6.261524 11.680151-1.143932 68.515522-2.047037 137.091251-3.190969 205.606773-0.120414 6.14111-0.541863 12.342427-1.746002 18.363123-3.37159 16.556914-15.593603 26.671684-30.585136 26.069614-15.714017-0.662277-26.792098-10.837253-29.501411-27.695202-0.842897-5.117592-0.662277-10.415804-0.662277-15.65381-0.060207-121.919097 0-243.777987 0-365.697083 0-3.311383 0.180621-6.682973-0.060207-9.994356-0.240828-3.913452 1.444967-9.031044-5.478833-9.211665-6.863594-0.180621-5.840075 4.816557-5.96049 8.850423-0.78269 19.507056-1.685795 38.953904-2.227657 58.46096-0.541863 21.433678-0.662277 42.867357-1.143932 64.301035-0.120414 5.659454-0.662277 11.379116-1.625588 17.03857-2.167451 12.703669-11.981185 21.072437-23.601129 19.507055-12.161806-1.685795-20.169332-8.067733-20.109125-21.614299 0.120414-59.063029-0.541863-118.126058 0.602069-177.128881 0.60207-31.30762 17.098777-48.105362 49.73095-48.948259 54.728128-1.444967 109.516463-1.38476 164.244591 0 32.632173 0.78269 48.888053 16.978363 50.092192 52.139228 1.98683 57.557855 1.023518 115.236124 0.662277 172.79398-0.060207 13.968015-10.054563 22.878645-22.457197 22.878645-13.125118 0.060207-22.035748-9.091251-22.457197-24.142992-1.324553-43.770461-2.287865-87.540922-3.672624-131.311382-0.180621-4.876764 3.070555-12.944497-6.502352-12.763876-9.633114 0.180621-5.960489 8.248354-5.960489 13.06491-0.421449 63.819379-0.301035 127.578551-0.301035 191.397931zM332.824083 303.924741c-32.511759 0-56.112888-21.855127-55.87206-51.8984 0.180621-28.116651 25.467545-51.296331 55.811853-51.175918 30.284102 0.120414 56.173095 23.601129 56.353716 51.175918 0.180621 29.441204-24.142992 51.838194-56.293509 51.8984zM670.886171 200.007526c30.886171-0.060207 55.571025 22.698024 55.631233 51.296331 0.060207 28.718721-24.504233 52.018815-54.968956 52.199436-31.30762 0.180621-56.895579-23.420508-56.594544-52.139229 0.361242-28.598307 25.046096-51.296331 55.932267-51.356538z" fill="#FFFFFF" p-id="3466"></path></svg>