<?xml version="1.0" standalone="no"?><!DOCTYPE svg PUBLIC "-//W3C//DTD SVG 1.1//EN" "http://www.w3.org/Graphics/SVG/1.1/DTD/svg11.dtd"><svg t="1706856774965" class="icon" viewBox="0 0 1024 1024" version="1.1" xmlns="http://www.w3.org/2000/svg" p-id="6009" xmlns:xlink="http://www.w3.org/1999/xlink" width="64" height="64"><path d="M509.170273 1022.494826C224.270931 1017.738476-3.732832 786.302916 0.903104 506.521167 5.53904 223.90969 239.5635-4.334901 520.007526 1.565381c282.430856 5.900282 503.87206 229.087488 503.149577 514.287865-0.662277 282.55127-236.914393 511.21731-513.98683 506.64158z" fill="#218DCB" p-id="6010"></path><path d="M512.60207 979.627469C252.869238 979.687676 42.325494 769.746002 43.047977 511.277516 43.770461 253.110066 254.856068 43.890875 514.287865 44.372531c256.662277 0.481656 466.844779 211.567262 466.724365 468.711194-0.180621 256.842897-210.603951 466.483537-468.41016 466.543744z" fill="#FFFFFF" p-id="6011"></path><path d="M443.424271 765.170273c0 23.902164-0.60207 47.864534 0.301035 71.706491 0.421449 11.920978-3.793039 15.111947-15.111948 14.750705-21.975541-0.78269-44.071496-0.662277-66.047036-0.060207-10.355597 0.301035-14.449671-2.76952-14.329257-13.727187 0.481656-49.068674-0.120414-98.197554 0.481656-147.266227 0.361242-28.116651 21.072437-48.165569 47.74412-47.864535 26.370649 0.240828 46.299153 20.590781 46.901223 48.827846 0.421449 24.504233 0 49.068674 0.060207 73.633114z" fill="#FFFFFF" p-id="6012"></path><path d="M932.84666 512.060207c0.120414 233.783631-188.267168 422.652869-421.388523 422.412041-231.796802-0.240828-420.003763-188.507996-420.365004-420.425211-0.301035-234.626529 185.497648-422.532455 419.883349-424.519285 231.555974-1.926623 421.749765 188.507996 421.870178 422.532455z" fill="#3A79B6" p-id="6013"></path><path d="M246.306679 293.749765c88.745061-97.896519 251.484478-121.497648 371.416745-53.463782 190.795861 108.252117 215.661336 367.443086 49.068674 510.735654-115.476952 99.281279-303.924741 94.524929-411.032926-10.054563-8.248354-8.067733-11.619944-13.125118-0.662276-21.554092 11.138288-8.549389 19.80809-24.684854 31.548447-26.912512 12.28222-2.348071 21.855127 14.991533 33.234243 22.878646 83.085607 57.437441 171.349012 64.60207 260.395108 19.567262 86.999059-44.011289 134.321731-117.88523 136.549389-216.444026 4.334901-190.555033-192.421449-315.063029-363.288805-230.773283-20.289746 9.994356-38.532455 23.360301-54.848542 38.773283-8.790216 8.248354-14.26905 7.646284-21.734713-0.842898-9.753528-11.078081-20.41016-21.313264-30.645344-31.909689z" fill="#FFFFFF" p-id="6014"></path><path d="M606.404516 474.129821c-18.844779-18.302916-37.569144-36.786453-56.714958-54.788335-5.900282-5.53904-6.14111-8.669802-0.361242-15.05174 33.475071-36.84666 33.29445-37.027281 68.75635-1.866416 32.331138 32.09031 64.301035 64.60207 97.113829 96.210725 9.091251 8.790216 9.211665 13.847601 0.120414 22.758231-40.398871 39.43556-80.376294 79.352775-119.87206 119.691439-8.188147 8.368768-12.763876 8.790216-21.313265 0.240828-32.391345-32.391345-32.873001-32.210724-0.421449-64.240828 10.89746-10.716839 22.818438-20.470367 34.558796-31.006585-8.730009-8.669802-16.135466-5.779868-22.637817-5.779868-87.902164-0.240828-175.864534-0.60207-263.766698 0.240828-16.376294 0.180621-20.349953-4.876764-19.988711-20.530574 0.903104-40.880527 0.180621-40.880527 41.301975-40.880527h261.117592c0.722484-1.625588 1.444967-3.311383 2.107244-4.997178z" fill="#FFFFFF" p-id="6015"></path></svg>