<?xml version="1.0" standalone="no"?><!DOCTYPE svg PUBLIC "-//W3C//DTD SVG 1.1//EN" "http://www.w3.org/Graphics/SVG/1.1/DTD/svg11.dtd"><svg t="1706856742359" class="icon" viewBox="0 0 1024 1024" version="1.1" xmlns="http://www.w3.org/2000/svg" p-id="5056" xmlns:xlink="http://www.w3.org/1999/xlink" width="64" height="64"><path d="M509.170273 1022.494826C224.270931 1017.738476-3.732832 786.302916 0.903104 506.521167 5.53904 223.90969 239.5635-4.334901 520.007526 1.565381c282.430856 5.900282 503.87206 229.087488 503.149577 514.287865-0.662277 282.55127-236.914393 511.21731-513.98683 506.64158z" fill="#3B80C3" p-id="5057"></path><path d="M512.60207 979.627469C252.869238 979.687676 42.325494 769.746002 43.047977 511.277516 43.770461 253.110066 254.856068 43.890875 514.287865 44.372531c256.662277 0.481656 466.844779 211.567262 466.724365 468.711194-0.180621 256.842897-210.603951 466.483537-468.41016 466.543744z" fill="#FFFFFF" p-id="5058"></path><path d="M443.424271 765.170273c0 23.902164-0.60207 47.864534 0.301035 71.706491 0.421449 11.920978-3.793039 15.111947-15.111948 14.750705-21.975541-0.78269-44.071496-0.662277-66.047036-0.060207-10.355597 0.301035-14.449671-2.76952-14.329257-13.727187 0.481656-49.068674-0.120414-98.197554 0.481656-147.266227 0.361242-28.116651 21.072437-48.165569 47.74412-47.864535 26.370649 0.240828 46.299153 20.590781 46.901223 48.827846 0.421449 24.504233 0 49.068674 0.060207 73.633114z" fill="#FFFFFF" p-id="5059"></path><path d="M932.84666 512.060207c0.120414 233.783631-188.267168 422.652869-421.388523 422.412041-231.796802-0.240828-420.003763-188.507996-420.365004-420.425211-0.301035-234.626529 185.497648-422.532455 419.883349-424.519285 231.555974-1.926623 421.749765 188.507996 421.870178 422.532455z" fill="#3B80C3" p-id="5060"></path><path d="M682.80715 357.207902c0.301035 6.442145-2.528692 9.753528-5.96049 12.523048-5.719661 4.75635-10.957667 10.476011-17.399811 13.727187-27.574788 14.088429-36.967074 36.184384-33.174036 66.287865 1.083725 8.730009 2.348071 14.931326 9.934148 19.80809 13.546566 8.609595 26.250235 18.543744 39.977423 26.792098 12.222013 7.345249 13.968015 16.4365 7.345249 27.875823-15.05174 26.250235-30.464722 52.259643-45.57667 78.449671-5.238006 9.151458-11.981185 11.439323-21.674506 7.044214-7.826905-3.552211-16.556914-5.53904-24.022577-9.69332-23.300094-13.125118-44.553151-14.449671-67.070555 3.612417-9.392286 7.586077-15.172154 13.787394-17.219191 25.828787-11.619944 68.395108 1.926623 55.510818-64.903105 56.835371-18.543744 0.361242-37.087488-0.180621-55.571025 0.120414-10.29539 0.180621-16.496707-3.190969-17.03857-14.509877-0.301035-6.14111-2.227658-12.101599-2.889934-18.24271-5.057385-44.914393-5.177799-44.673565-44.613359-64.602069-6.080903-3.070555-10.355597-1.505174-15.533396 0.481655-17.219191 6.74318-34.619003 13.064911-51.71778 20.109125-9.572907 3.913452-16.4365 2.408278-21.734713-6.863593-14.991533-26.250235-30.163688-52.380056-45.516463-78.449671-5.478833-9.332079-3.130762-16.195673 4.936971-22.39699 7.345249-5.599247 14.570085-11.439323 21.554092-17.460018 13.004704-11.198495 26.55127-19.0254 27.213547-41.904046 0.722484-26.370649-9.633114-39.857008-29.260583-53.343367-40.338664-27.634995-35.160865-24.865475-13.606774-61.591722 10.596425-18.122295 21.19285-36.244591 31.488241-54.547507 6.442145-11.439323 14.750706-15.954845 27.454375-9.813735 6.622766 3.190969 14.329257 4.515522 20.530573 8.368768 22.698024 13.968015 43.349012 15.05174 65.324554-3.070555 8.428975-6.923801 15.894638-11.017874 16.617121-23.480715 0.842897-15.292568 4.635936-30.404516 6.9238-45.697084 1.866416-12.462841 8.790216-18.122295 21.433679-18.062088 29.621825 0.240828 59.303857 0.361242 88.925682-0.060207 12.703669-0.180621 17.64064 5.960489 18.483537 17.761053 0.60207 8.609595 3.431797 17.098777 3.431797 25.587959-0.180621 25.888993 9.693321 43.228598 35.100658 53.463782 11.258702 4.515522 19.747883 6.803387 30.765758 1.926623 14.630292-6.502352 29.92286-11.619944 44.673565-17.881468 9.271872-3.973659 16.797742-3.431797 22.156162 5.900282 15.774224 27.213547 31.608655 54.4873 47.262464 81.761054 1.685795 2.950141 2.408278 6.020696 2.950142 7.405456z" fill="#FFFFFF" p-id="5061"></path><path d="M648.007526 789.19285c-10.355597 3.793039-19.0254 6.923801-27.695202 10.174977-4.75635 1.806209-10.957667 4.094073-13.787395-0.361242-9.572907-15.05174-18.784572-30.464722-26.491063-46.539981-3.37159-6.984008 6.080903-9.392286 9.873942-13.727187 6.562559-7.405456 17.460019-9.934149 18.784572-23.239887 1.685795-16.797742-6.984008-25.106303-19.145814-32.090311-11.619944-6.622766-14.088429-14.509878-5.659454-25.407338 2.649106-3.37159 4.635936-7.285042 6.863594-10.957667 16.737535-27.875823 16.737535-27.875823 47.623706-16.677328 12.763876 4.635936 30.524929-5.177799 33.354657-18.42333 7.044214-33.053622 7.044214-33.053622 41.663217-33.053622 27.755409 0 27.755409 0 31.90969 26.972719 3.130762 20.048918 18.844779 29.200376 38.351834 22.216369 27.213547-9.693321 27.213547-9.693321 41.121355 15.533396 2.709313 4.876764 5.117592 9.934149 8.428974 14.329257 7.646284 10.29539 4.575729 17.158984-4.876764 24.624647-7.646284 6.020696-18.122295 9.392286-19.627469 22.517403-1.926623 17.158984 6.201317 26.190028 19.988711 32.69238 12.583255 5.960489 16.737535 13.727187 6.502352 25.648166-2.76952 3.190969-4.334901 7.465663-6.562559 11.138288-16.496707 27.514581-16.556914 27.514581-47.142051 17.881467-15.894638-4.997178-31.066792 4.75635-34.619002 22.336783-5.478833 26.912512-5.478833 26.912512-33.354657 26.912512-3.070555 0-6.201317-0.361242-9.271872 0.060207-19.206021 2.76952-31.006585-2.528692-30.223895-24.865475 0.722484-18.122295-14.871119-21.433678-26.009407-27.695203z" fill="#FFFFFF" p-id="5062"></path><path d="M523.49953 436.741298c-0.060207 47.804327-43.108184 90.190028-90.370649 89.106303-48.34619-1.143932-88.082785-41.121355-88.263406-88.805268-0.180621-49.851364 38.83349-88.684854 89.16651-88.745061 49.971778-0.120414 89.527752 39.014111 89.467545 88.444026zM708.033866 756.741298c-25.286924-0.361242-46.600188-21.072437-46.961429-45.636877-0.361242-24.082785 23.17968-45.275635 49.490122-44.613358 24.925682 0.60207 45.817498 20.891816 45.697084 44.372531-0.240828 25.9492-21.554092 46.238946-48.225777 45.877704z" fill="#3B80C3" p-id="5063"></path></svg>