<?xml version="1.0" standalone="no"?><!DOCTYPE svg PUBLIC "-//W3C//DTD SVG 1.1//EN" "http://www.w3.org/Graphics/SVG/1.1/DTD/svg11.dtd"><svg t="1706856738385" class="icon" viewBox="0 0 1024 1024" version="1.1" xmlns="http://www.w3.org/2000/svg" p-id="4894" xmlns:xlink="http://www.w3.org/1999/xlink" width="64" height="64"><path d="M509.170273 1022.494826C224.270931 1017.738476-3.732832 786.302916 0.903104 506.521167 5.53904 223.90969 239.5635-4.334901 520.007526 1.565381c282.430856 5.900282 503.87206 229.087488 503.149577 514.287865-0.662277 282.55127-236.914393 511.21731-513.98683 506.64158z" fill="#3B80C3" p-id="4895"></path><path d="M512.60207 979.627469C252.869238 979.687676 42.325494 769.746002 43.047977 511.277516 43.770461 253.110066 254.856068 43.890875 514.287865 44.372531c256.662277 0.481656 466.844779 211.567262 466.724365 468.711194-0.180621 256.842897-210.603951 466.483537-468.41016 466.543744z" fill="#FFFFFF" p-id="4896"></path><path d="M443.424271 765.170273c0 23.902164-0.60207 47.864534 0.301035 71.706491 0.421449 11.920978-3.793039 15.111947-15.111948 14.750705-21.975541-0.78269-44.071496-0.662277-66.047036-0.060207-10.355597 0.301035-14.449671-2.76952-14.329257-13.727187 0.481656-49.068674-0.120414-98.197554 0.481656-147.266227 0.361242-28.116651 21.072437-48.165569 47.74412-47.864535 26.370649 0.240828 46.299153 20.590781 46.901223 48.827846 0.421449 24.504233 0 49.068674 0.060207 73.633114z" fill="#FFFFFF" p-id="4897"></path><path d="M906.656632 361.542803l5.057385-0.903104v135.285042c-1.204139 0.060207-2.408278 0.120414-3.612418 0.120414-5.117592-4.214487-6.080903-10.174976-6.261524-16.135465-0.842897-33.776105-0.662277-67.552211-0.120414-101.328317 0.120414-6.080903 2.709313-11.49953 4.936971-17.03857z" fill="#D4E1F3" p-id="4898"></path><path d="M907.318909 343.540922c-5.418627 4.274694-9.934149 8.067733-14.750706 11.49953l-390.14111 281.226716c-15.593603 11.258702-31.30762 22.276576-46.660395 33.836313-8.248354 6.201317-14.570085 5.960489-22.457197-1.505174-43.710254-41.542803-87.540922-82.904986-132.094073-123.484478-11.439323-10.415804-9.211665-14.810913 2.047037-22.878646 128-91.996237 255.638758-184.47413 383.39793-276.831608 18.784572-13.606773 37.629351-27.093133 56.293509-40.880527 5.840075-4.334901 10.11477-6.923801 16.918156-0.481656 46.600188 44.252117 93.621825 88.022578 140.523048 132.033867 2.227658 1.98683 4.214487 4.455315 6.923801 7.465663z" fill="#218DCB" p-id="4899"></path><path d="M906.656632 361.542803l1.444967 134.502352c-3.010348 10.235183-10.957667 16.135466-19.085607 21.975541-137.151458 98.739417-274.302916 197.478833-411.273753 296.459078-13.365945 9.693321-26.430856 12.583255-42.686736 7.826905-101.027281-29.561618-202.235183-58.64158-303.503292-87.300094-14.028222-3.973659-19.386642-11.379116-19.266228-25.467545 0.421449-38.472248 0.361242-76.88429 0.060207-115.356538-0.120414-14.509878 5.298213-25.16651 17.158984-33.655691a340186.792098 340186.792098 0 0 0 423.315146-303.5635c9.813735-7.044214 20.650988-11.860771 31.969896-15.774224 37.569144-12.88429 75.138288-25.9492 112.827846-38.412041 4.816557-1.565381 10.355597-7.224835 17.761054 0.541863-11.619944 8.669802-22.878645 17.219191-34.317968 25.527751-133.177799 96.331138-266.716839 192.301035-399.473189 289.234243-37.207902 27.213547-81.158984 38.472248-122.280339 56.353716-14.509878 6.321731-20.41016 13.486359-19.928504 29.260583 0.963311 30.464722 0.421449 60.989652-0.301035 91.454375-0.301035 11.258702 3.672625 16.617121 14.509878 19.687676 91.032926 26.069614 182.005644 52.380056 272.857949 79.111947 15.412982 4.575729 20.048918 0.060207 19.266227-15.292568-1.023518-21.855127-0.541863-43.770461-0.842897-65.625588-0.180621-12.583255 3.130762-22.878645 14.208843-30.825964 147.567262-105.783631 294.953904-211.868297 442.340546-317.892756 1.625588-1.023518 3.492004-1.806209 5.238005-2.769521z" fill="#218DCB" p-id="4900"></path><path d="M394.656632 713.332079c0 14.570085-0.481656 29.200376 0.180621 43.770461 0.481656 11.49953-3.492004 13.064911-13.968015 9.934149-62.856068-18.664158-125.772342-37.027281-188.869238-54.788335-12.342427-3.492004-17.098777-9.392286-16.677328-22.336783 0.903104-28.477893 0.481656-57.015992 0.240828-85.493885-0.060207-9.271872 1.866416-13.004704 12.462841-9.934149 65.444967 19.206021 131.070555 37.870179 196.696143 56.47413 8.12794 2.287865 9.934149 7.285042 9.813734 14.690499-0.240828 15.894638-0.060207 31.849483-0.060207 47.74412 0-0.060207 0.060207-0.060207 0.180621-0.060207z" fill="#218DCB" p-id="4901"></path><path d="M687.503293 562.573848c-5.177799-14.329257-0.963311-22.517404 8.007525-28.959549 23.661336-16.978363 47.382879-33.956726 71.164629-50.754468 2.950141-2.047037 6.020696-6.321731 10.174976-2.649107 4.033866 3.552211 3.672625 8.368768 1.324553 12.763876-1.565381 2.829727-3.431797 5.960489-5.960489 7.826905-27.634995 20.289746-55.450611 40.459078-84.711194 61.772343zM471.661336 717.245532c-3.612418-14.690499 1.204139-23.420508 10.596425-30.163688 23.059266-16.617121 46.238946-33.113829 69.418627-49.550329 3.010348-2.107244 6.14111-6.502352 10.235183-3.492004 4.214487 3.130762 4.033866 8.428975 1.806209 12.643462-2.107244 3.973659-4.876764 8.12794-8.489182 10.716839-27.213547 19.80809-54.667921 39.194732-83.567262 59.84572z" fill="#FBFDFE" p-id="4902"></path><path d="M794.430856 485.207902c-3.853246-15.05174 0.78269-23.17968 9.392286-29.441204 22.938852-16.617121 45.817498-33.234243 68.997178-49.550329 3.251176-2.287865 6.923801-7.766698 11.800564-3.251176 4.15428 3.853246 1.625588 8.790216-0.541862 12.763876-2.167451 3.973659-4.515522 8.489182-8.007526 11.017874-26.491063 19.326435-53.222954 38.231421-81.64064 58.460959zM580.033866 639.939793c-5.35842-14.449671-0.481656-22.216369 8.308561-28.598307 23.420508-16.978363 46.780809-34.137347 70.381938-50.935089 3.190969-2.287865 6.74318-7.947319 11.49953-1.98683 3.251176 4.094073 2.649106 8.730009 0.240827 12.944497-1.264346 2.227658-2.950141 4.515522-4.997177 6.020696-28.056444 20.590781-56.112888 41.061148-85.433679 62.555033z" fill="#FCFDFE" p-id="4903"></path></svg>