<?xml version="1.0" standalone="no"?><!DOCTYPE svg PUBLIC "-//W3C//DTD SVG 1.1//EN" "http://www.w3.org/Graphics/SVG/1.1/DTD/svg11.dtd"><svg t="1706856630199" class="icon" viewBox="0 0 1024 1024" version="1.1" xmlns="http://www.w3.org/2000/svg" p-id="2030" xmlns:xlink="http://www.w3.org/1999/xlink" width="64" height="64"><path d="M509.170273 1022.494826C224.270931 1017.738476-3.732832 786.302916 0.903104 506.521167 5.53904 223.90969 239.5635-4.334901 520.007526 1.565381c282.430856 5.900282 503.87206 229.087488 503.149577 514.287865-0.662277 282.55127-236.914393 511.21731-513.98683 506.64158z" fill="#3B80C3" p-id="2031"></path><path d="M513.746002 980.831609c-259.732832 0.060207-470.276576-209.881468-469.554092-468.349953 0.722484-258.167451 211.868297-467.386642 471.239887-466.904986 256.662277 0.481656 466.844779 211.567262 466.724365 468.711195-0.120414 256.842897-210.603951 466.483537-468.41016 466.543744z" fill="#FFFFFF" p-id="2032"></path><path d="M443.424271 765.170273c0 23.902164-0.60207 47.864534 0.301035 71.706491 0.421449 11.920978-3.793039 15.111947-15.111948 14.750705-21.975541-0.78269-44.071496-0.662277-66.047036-0.060207-10.355597 0.301035-14.449671-2.76952-14.329257-13.727187 0.481656-49.068674-0.120414-98.197554 0.481656-147.266227 0.361242-28.116651 21.072437-48.165569 47.74412-47.864535 26.370649 0.240828 46.299153 20.590781 46.901223 48.827846 0.421449 24.504233 0 49.068674 0.060207 73.633114z" fill="#FFFFFF" p-id="2033"></path><path d="M515.130762 888.233302c-142.028222-0.180621-257.083725-115.236124-257.264346-257.264346 0-57.919097 40.639699-155.15334 120.835371-288.873001 58.701787-97.836312 118.186265-180.861712 118.547507-181.70461l17.881468-24.624647 17.700847 24.624647c0.60207 0.842897 60.086548 83.80809 118.728128 181.644403 80.195673 133.779868 120.835372 231.074318 120.835371 288.873001-0.180621 142.028222-115.236124 257.143932-257.264346 257.324553z m0-677.207902C442.280339 316.086548 301.516463 538.370649 301.516463 630.968956c0 118.005644 95.668862 213.614299 213.614299 213.614299s213.614299-95.668862 213.614299-213.614299c0-92.598307-140.763876-314.822201-213.614299-419.943556z m0 0" fill="#3B80C3" p-id="2034"></path><path d="M700.447789 633.196613c0 102.351834-88.203198 185.25682-185.317027 185.256821-97.113829 0-185.317027-82.844779-185.317027-185.256821 0-67.913452 42.746943-89.407338 81.640639-89.407337 94.163688 0 65.685795 89.407338 187.484478 86.758231 62.314205-1.444967 101.508937-67.672625 101.508937 2.649106z m37.027282-272.556914c-42.325494-0.060207-76.643462-34.317968-76.763876-76.583255 0-38.291627 59.364064-122.099718 66.16745-131.431797l10.596426-14.931326 10.656632 14.750705c6.74318 9.5127 66.167451 93.200376 66.16745 131.612418-0.120414 42.325494-34.498589 76.583255-76.824082 76.583255z m0-177.610536c-22.818438 33.896519-50.573848 81.460019-50.573848 100.906867 0 27.93603 22.637817 50.573848 50.573848 50.573848 27.93603 0 50.573848-22.637817 50.573847-50.573848 0.060207-19.446849-27.695202-67.010348-50.573847-100.906867z m0 0" fill="#3B80C3" p-id="2035"></path></svg>