<?xml version="1.0" standalone="no"?><!DOCTYPE svg PUBLIC "-//W3C//DTD SVG 1.1//EN" "http://www.w3.org/Graphics/SVG/1.1/DTD/svg11.dtd"><svg t="1706856801313" class="icon" viewBox="0 0 1024 1024" version="1.1" xmlns="http://www.w3.org/2000/svg" p-id="6972" xmlns:xlink="http://www.w3.org/1999/xlink" width="64" height="64"><path d="M509.170273 1022.494826C224.270931 1017.738476-3.732832 786.302916 0.903104 506.521167 5.53904 223.90969 239.5635-4.334901 520.007526 1.565381c282.430856 5.900282 503.87206 229.087488 503.149577 514.287865-0.662277 282.55127-236.914393 511.21731-513.98683 506.64158z" fill="#3B80C3" p-id="6973"></path><path d="M512.60207 979.627469C252.869238 979.687676 42.325494 769.746002 43.047977 511.277516 43.770461 253.110066 254.856068 43.890875 514.287865 44.372531c256.662277 0.481656 466.844779 211.567262 466.724365 468.711194-0.180621 256.842897-210.603951 466.483537-468.41016 466.543744z" fill="#FFFFFF" p-id="6974"></path><path d="M443.424271 765.170273c0 23.902164-0.60207 47.864534 0.301035 71.706491 0.421449 11.920978-3.793039 15.111947-15.111948 14.750705-21.975541-0.78269-44.071496-0.662277-66.047036-0.060207-10.355597 0.301035-14.449671-2.76952-14.329257-13.727187 0.481656-49.068674-0.120414-98.197554 0.481656-147.266227 0.361242-28.116651 21.072437-48.165569 47.74412-47.864535 26.370649 0.240828 46.299153 20.590781 46.901223 48.827846 0.421449 24.504233 0 49.068674 0.060207 73.633114z" fill="#FFFFFF" p-id="6975"></path><path d="M932.84666 512.060207c0.120414 233.783631-188.267168 422.652869-421.388523 422.412041-231.796802-0.240828-420.003763-188.507996-420.365004-420.425211-0.301035-234.626529 185.497648-422.532455 419.883349-424.519285 231.555974-1.926623 421.749765 188.507996 421.870178 422.532455z" fill="#3B80C3" p-id="6976"></path><path d="M512.541863 791.420508c-87.78175 0-175.5635 0.060207-263.285043 0-24.805268 0-37.328316-22.818438-25.046096-44.914393 5.117592-9.211665 13.606773-7.164628 21.433679-7.285043 27.695202-0.361242 24.56444 2.950141 24.56444-25.34713 0.120414-100.244591-0.240828-200.428975 0.361242-300.673566 0.120414-14.871119-2.76952-20.952023-19.145814-20.169332-26.852305 1.264346-37.087488-14.509878-28.718721-40.579492 3.37159-10.476011 11.078081-11.920978 20.470367-11.920978 41.061148 0.060207 82.182502-0.120414 123.24365-0.60207 5.900282-0.060207 14.26905 3.793039 15.894638-7.465663 1.38476-9.873942-4.936971-10.957667-11.920978-12.583255-7.52587-1.746002-12.101599-7.104421-12.342427-14.570085-0.301035-8.368768 4.696143-14.389464 12.703668-16.255879 6.201317-1.444967 11.920978-1.023518 11.740358-10.355598-0.120414-8.248354-4.214487-10.837253-11.017874-11.981185-8.669802-1.444967-12.944497-6.863594-12.944497-15.533396 0-8.790216 4.635936-14.509878 13.185325-15.232361 7.887112-0.60207 10.89746-3.552211 10.656632-11.49953-0.180621-6.682973-1.98683-10.29539-9.271872-10.89746-9.271872-0.78269-15.05174-6.442145-15.05174-15.834431 0-9.572907 6.080903-14.810913 15.412982-15.172154 7.826905-0.301035 8.91063-4.936971 8.850423-11.198495-0.120414-6.863594-0.60207-13.847601 0.662277-20.470367 1.625588-8.669802 7.285042-15.111947 16.677328-14.630291 9.151458 0.481656 14.509878 6.74318 15.412982 15.894638 0.60207 6.14111 0.60207 12.462841 0.240828 18.664158-0.421449 7.405456 1.505174 11.740357 9.994356 11.981185 8.609595 0.180621 14.690499 5.53904 14.871119 13.847601 0.240828 9.693321-5.238006 16.677328-15.834431 17.098777-7.586077 0.301035-9.211665 4.334901-9.031044 10.89746 0.180621 6.14111 0.481656 11.138288 8.669802 11.017874 9.693321-0.120414 15.473189 5.659454 16.075259 14.750706 0.60207 9.271872-5.238006 15.05174-14.389464 16.496707-7.224835 1.143932-10.596425 4.214487-10.476011 12.222013 0.120414 7.706491 3.612418 8.970837 10.11477 9.693321 9.091251 1.023518 15.111947 7.164628 15.05174 16.195673-0.060207 8.12794-5.840075 14.26905-13.847601 15.412982-8.308561 1.204139-12.402634 3.732832-11.017874 12.824083 1.505174 9.994356 9.091251 6.622766 14.509878 6.743179 18.062088 0.361242 36.124177 0.180621 54.126058 0.120414 5.117592 0 10.235183 0.060207 10.777046-7.104421 0.541863-6.201317-0.361242-10.596425-7.887112-12.1016-9.091251-1.806209-16.556914-6.381938-15.593603-17.520225 0.842897-9.693321 7.104421-14.148636 16.135466-14.931327 5.53904-0.481656 7.586077-3.130762 7.465663-8.368767-0.120414-5.057385 0.301035-10.174976-6.14111-11.920979-9.452493-2.588899-18.363123-6.080903-17.399812-18.182502 0.903104-10.777046 8.730009-13.66698 18.182502-15.051741 6.923801-1.023518 5.117592-7.465663 5.298213-12.101599 0.180621-4.575729-0.481656-8.790216-6.622766-9.091251-10.11477-0.541863-16.677328-5.418627-16.978363-15.954845-0.301035-11.198495 7.405456-14.630292 17.03857-15.593603 5.719661-0.541863 6.562559-4.75635 6.622766-9.452493 0-2.468485-0.120414-4.997178 0.060207-7.465663 0.842897-12.28222-0.60207-28.297272 16.316086-28.658514 19.206021-0.481656 16.797742 16.195673 16.376294 29.079963-0.301035 9.633114 0.301035 16.918156 12.88429 17.580433 8.549389 0.481656 12.88429 7.345249 12.462841 15.83443-0.421449 7.706491-5.177799 13.004704-12.703669 13.968016-7.285042 0.903104-12.944497 1.083725-12.824083 11.258701 0.120414 9.5127 4.515522 11.198495 12.462841 11.740358 7.706491 0.541863 12.342427 6.14111 13.064911 13.606773 0.842897 8.549389-3.973659 14.148636-12.041393 16.496707-6.442145 1.866416-13.185325 1.98683-13.426152 12.041393-0.301035 10.777046 6.682973 9.452493 13.245531 10.89746 7.345249 1.625588 12.041392 6.74318 12.342428 14.509877 0.301035 8.489182-4.334901 14.449671-12.462841 16.376294-7.706491 1.806209-14.991533 2.950141-12.643462 13.66698 2.348071 10.536218 10.89746 6.14111 16.797742 6.321731 18.062088 0.541863 36.124177 0.240828 54.126058 0.180621 5.057385 0 10.355597 0.301035 10.415805-7.164628 0.060207-5.659454 0.963311-11.017874-7.646285-11.800565-9.452493-0.842897-17.399812-6.020696-17.520225-16.135465-0.120414-11.138288 7.646284-16.4365 18.483537-16.677329 6.201317-0.120414 6.622766-3.913452 6.803386-8.669802 0.180621-6.080903-0.361242-11.198495-7.887111-12.222013-9.452493-1.324553-17.339605-5.418627-17.399812-16.015052 0-11.680151 8.007526-15.774224 18.724365-16.015052 7.646284-0.180621 6.201317-6.201317 6.502352-10.957667 0.361242-6.020696 0-11.138288-8.428975-10.89746-10.536218 0.301035-16.617121-6.020696-16.677328-16.015052-0.060207-9.452493 6.201317-14.810913 15.714017-14.871119 9.091251 0 9.873942-5.418627 9.452492-12.28222-0.120414-2.468485 0.060207-4.997178 0-7.465663-0.361242-12.161806-1.143932-26.250235 15.47319-26.430856 16.075259-0.180621 17.219191 13.606773 16.737535 25.888993-0.421449 11.258702-0.541863 20.771402 14.991533 21.554092 6.803387 0.361242 9.332079 7.345249 9.211665 14.26905-0.120414 8.067733-4.75635 13.426152-11.920978 14.630292-7.586077 1.264346-12.462841 2.287865-12.402634 11.920978 0.120414 9.994356 6.080903 10.11477 13.064911 11.619944 7.465663 1.565381 11.198495 7.345249 11.198494 15.172154 0 7.947319-3.973659 12.88429-11.619943 14.750705-6.984008 1.685795-12.763876 3.431797-12.643462 12.88429 0.120414 9.572907 6.442145 8.428975 12.342427 9.934149 7.224835 1.806209 11.619944 6.803387 11.860771 14.810912 0.301035 7.947319-3.431797 13.125118-10.716839 15.593603-6.863594 2.287865-15.593603 2.528692-13.06491 13.666981 2.588899 11.49953 11.981185 6.682973 18.363123 6.803386 39.857008 0.60207 79.65381 1.204139 119.510818 0.421449 19.446849-0.361242 22.938852 9.813735 22.637818 25.768579-0.361242 22.637817-3.492004 27.032926-22.878646 27.273754-27.213547 0.361242-25.768579-4.575729-25.768579 26.129821-0.060207 99.582314 0.361242 199.224835-0.361242 298.80715-0.120414 15.894638 3.190969 22.095955 20.41016 21.19285 25.888993-1.38476 36.485419 16.316087 26.792098 41.181562-4.455315 11.49953-13.907808 10.656632-23.300094 10.656632-88.142992-0.060207-176.526811-0.060207-264.970837-0.060207z" fill="#FFFFFF" p-id="6977"></path><path d="M467.567262 715.740357c10.29539-43.951082 19.928504-88.022578 31.367827-131.672624 3.793039-14.389464-1.38476-15.894638-12.884289-15.111947-8.067733 0.541863-16.135466 0.120414-24.203199 0.120413-30.585136 0-30.70555-0.060207-16.496707-26.190028 23.902164-44.011289 47.864534-88.022578 76.101599-131.552211 0 25.527752 0.722484 51.055503-0.301035 76.583255-0.541863 13.66698 3.070555 19.0254 17.580433 17.941675 17.279398-1.264346 34.799624-0.481656 52.199435-0.180621 4.635936 0.060207 10.89746-2.649106 13.727188 2.348072 2.889934 5.057385-2.588899 8.970837-5.177799 12.884289-34.739417 53.70461-69.599247 107.288805-104.459078 160.933208-7.706491 11.800564-15.412982 23.601129-23.17968 35.401694-1.505174-0.541863-2.889934-1.023518-4.274695-1.505175z" fill="#3B80C3" p-id="6978"></path><path d="M658.965193 555.108184c1.444967 76.222013-59.123236 139.920978-132.274694 142.208843-7.285042 0.240828-14.750706-0.120414-14.690499-9.633114 0-10.476011 8.368768-10.174976 16.075259-10.89746 53.70461-5.057385 95.126999-39.254939 107.710254-88.56444 14.088429-55.330198-11.981185-112.045155-63.337724-137.5127-3.311383-1.625588-6.74318-3.190969-10.235183-4.575729-7.405456-2.950141-11.920978-8.007526-7.947319-15.774224 3.732832-7.405456 10.777046-4.575729 16.4365-2.287864 34.438382 13.66698 60.026341 37.087488 75.920979 70.562559 8.91063 18.664158 13.606773 38.532455 12.342427 56.474129zM381.411101 548.425212c2.468485-45.034807 26.069614-87.300094 75.078081-114.152399 6.923801-3.793039 15.65381-9.633114 21.253057-0.180621 5.840075 9.873942-3.732832 13.66698-10.837253 17.700847-81.460019 46.058325-88.684854 146.302916-14.690499 203.68015 6.020696 4.635936 16.4365 8.489182 9.633114 18.483537-7.586077 11.138288-15.412982 2.047037-21.975541-2.588899-36.425212-25.708373-58.822201-69.418627-58.460959-122.942615z" fill="#3B80C3" p-id="6979"></path></svg>