<?xml version="1.0" standalone="no"?><!DOCTYPE svg PUBLIC "-//W3C//DTD SVG 1.1//EN" "http://www.w3.org/Graphics/SVG/1.1/DTD/svg11.dtd"><svg t="1706856665814" class="icon" viewBox="0 0 1024 1024" version="1.1" xmlns="http://www.w3.org/2000/svg" p-id="2983" xmlns:xlink="http://www.w3.org/1999/xlink" width="64" height="64"><path d="M509.170273 1022.494826C224.270931 1017.738476-3.732832 786.302916 0.903104 506.521167 5.53904 223.90969 239.5635-4.334901 520.007526 1.565381c282.430856 5.900282 503.87206 229.087488 503.149577 514.287865-0.662277 282.55127-236.914393 511.21731-513.98683 506.64158z" fill="#3B80C3" p-id="2984"></path><path d="M513.746002 980.831609c-259.732832 0.060207-470.276576-209.881468-469.554092-468.349953 0.722484-258.167451 211.868297-467.386642 471.239887-466.904986 256.662277 0.481656 466.844779 211.567262 466.724365 468.711195-0.120414 256.842897-210.603951 466.483537-468.41016 466.543744z" fill="#FFFFFF" p-id="2985"></path><path d="M443.424271 765.170273c0 23.902164-0.60207 47.864534 0.301035 71.706491 0.421449 11.920978-3.793039 15.111947-15.111948 14.750705-21.975541-0.78269-44.071496-0.662277-66.047036-0.060207-10.355597 0.301035-14.449671-2.76952-14.329257-13.727187 0.481656-49.068674-0.120414-98.197554 0.481656-147.266227 0.361242-28.116651 21.072437-48.165569 47.74412-47.864535 26.370649 0.240828 46.299153 20.590781 46.901223 48.827846 0.421449 24.504233 0 49.068674 0.060207 73.633114z" fill="#FFFFFF" p-id="2986"></path><path d="M513.143932 845.606773H259.973659c-28.417686 0-30.284102-1.866416-30.284101-31.126999-0.060207-133.35842-0.301035-266.716839 0.361242-400.075258 0.060207-16.135466-2.76952-23.480715-20.711195-21.373472-14.871119 1.746002-30.103481 0.301035-45.155221 0.301035-8.489182 0-14.810913-3.793039-17.279398-11.860771-2.408278-8.007526 3.612418-12.101599 9.332079-16.195673 112.767639-80.195673 225.595484-160.451552 338.242709-240.827846 12.88429-9.211665 24.865475-8.549389 37.328316 0.421449 111.262465 79.774224 222.645343 159.428034 333.907808 239.262465 6.502352 4.696143 14.991533 9.452493 10.656633 19.687676-3.793039 9.091251-12.462841 9.633114-21.132644 9.572907-13.546566-0.180621-27.213547 1.023518-40.639699-0.301035-15.65381-1.505174-20.289746 3.612418-20.109125 19.62747 0.842897 79.834431 0.361242 159.729069 0.361242 239.563499 0 55.751646-0.481656 111.503293 0.240828 167.254939 0.240828 19.386642-6.863594 26.55127-26.611477 26.370649-85.01223-0.722484-170.20508-0.301035-255.337724-0.301035z" fill="#3B80C3" p-id="2987"></path><path d="M307.416745 503.269991c36.726246 12.28222 49.128881-6.020696 63.578551-29.862653 57.437441-94.70555 187.725306-105.843838 267.318909-22.39699-15.111947 8.428975-29.983067 16.135466-44.19191 24.805268-8.428975 5.177799-12.222013-1.746002-17.520225-4.997178-57.317027-35.582314-118.4873-23.239887-160.090311 34.438382 13.66698 0.60207 25.768579 1.143932 42.506115 1.926623-24.383819 24.504233-46.780809 46.780809-68.876764 69.35842-6.923801 7.044214-10.355597 1.023518-14.329257-3.010348-20.891816-21.373471-41.783631-42.927563-68.395108-70.261524zM387.793039 675.762935c3.732832-2.348071 7.646284-4.395108 11.138287-6.9238 21.79492-15.954845 40.037629-21.674506 68.395109-4.876764 47.382879 28.116651 109.034807 6.321731 140.342427-43.108185H565.343368c26.009407-26.491063 48.888053-49.490122 71.345249-72.790216 4.936971-5.117592 7.164628-1.505174 10.235184 1.565381 22.276576 21.915334 44.613358 43.830668 67.130762 69.177799-37.569144-10.476011-47.443086 15.593603-63.036689 38.652869-61.712135 91.273754-189.772342 99.582314-263.224835 18.302916z" fill="#FFFFFF" p-id="2988"></path></svg>