<?xml version="1.0" standalone="no"?><!DOCTYPE svg PUBLIC "-//W3C//DTD SVG 1.1//EN" "http://www.w3.org/Graphics/SVG/1.1/DTD/svg11.dtd"><svg t="1706856719567" class="icon" viewBox="0 0 1024 1024" version="1.1" xmlns="http://www.w3.org/2000/svg" p-id="4262" xmlns:xlink="http://www.w3.org/1999/xlink" width="64" height="64"><path d="M509.170273 1022.494826C224.270931 1017.738476-3.732832 786.302916 0.903104 506.521167 5.53904 223.90969 239.5635-4.334901 520.007526 1.565381c282.430856 5.900282 503.87206 229.087488 503.149577 514.287865-0.662277 282.55127-236.914393 511.21731-513.98683 506.64158z" fill="#3B80C3" p-id="4263"></path><path d="M512.60207 979.627469C252.869238 979.687676 42.325494 769.746002 43.047977 511.277516 43.770461 253.110066 254.856068 43.890875 514.287865 44.372531c256.662277 0.481656 466.844779 211.567262 466.724365 468.711194-0.180621 256.842897-210.603951 466.483537-468.41016 466.543744z" fill="#FFFFFF" p-id="4264"></path><path d="M443.424271 765.170273c0 23.902164-0.60207 47.864534 0.301035 71.706491 0.421449 11.920978-3.793039 15.111947-15.111948 14.750705-21.975541-0.78269-44.071496-0.662277-66.047036-0.060207-10.355597 0.301035-14.449671-2.76952-14.329257-13.727187 0.481656-49.068674-0.120414-98.197554 0.481656-147.266227 0.361242-28.116651 21.072437-48.165569 47.74412-47.864535 26.370649 0.240828 46.299153 20.590781 46.901223 48.827846 0.421449 24.504233 0 49.068674 0.060207 73.633114z" fill="#FFFFFF" p-id="4265"></path><path d="M777.693321 217.888993h-135.224836v-39.375352c0-20.831609-18.603951-37.147695-37.388523-37.147696H418.739417c-20.952023 0-37.388523 16.195673-37.388523 37.147696v39.375352H246.306679c-20.952023 0-37.388523 16.135466-37.388523 37.147696 0 20.831609 16.25588 37.147695 37.388523 37.147695h531.386642c21.01223 0 37.388523-16.195673 37.388523-37.147695-0.180621-18.664158-16.4365-37.147695-37.388523-37.147696zM246.306679 342.878645v481.89652c0 32.451552 25.708373 57.85889 55.87206 57.85889h419.522108c32.632173 0 55.87206-25.527752 55.87206-57.85889V342.878645H246.306679z m180.861712 189.712136l50.995297-84.229539c1.324553-2.227658 3.672625-2.709313 5.900282-1.926623h73.151458c1.444967 0 3.552211 1.023518 4.455315 2.468485l39.616181 64.662277 12.041392-7.586077c1.98683-1.023518 4.455315-1.023518 6.020696 0.541863 1.444967 1.444967 1.98683 4.033866 1.023519 6.020696l-27.514582 50.333019c-1.023518 1.565381-2.468485 2.468485-4.094073 2.468486l-60.568203 2.468485c-1.98683 0-4.033866-1.565381-4.997178-3.492004-0.541863-1.926623 0.541863-4.575729 1.98683-5.478833l12.041392-7.586077-17.460019-28.959549-29.380997 48.34619c-0.541863 1.023518-1.98683 1.926623-3.010348 2.468486h-1.444967c-1.023518 0-1.98683 0-2.468486-0.541863l-54.547507-33.354656c-2.829727-1.143932-3.190969-4.15428-1.746002-6.622766z m73.693321 185.798683l-92.71872-0.541863 4.876763-9.633114-6.442144 11.981186c-1.023518 1.444967-2.468485 2.468485-4.57573 2.468485-1.98683 0-3.431797-1.023518-4.455315-2.468485l-38.532455-63.21731a4.352963 4.352963 0 0 1 0-4.936971l36.06397-67.251176-12.583255-6.502351a4.888805 4.888805 0 0 1-2.468485-5.478834c0.541863-1.926623 2.468485-4.033866 4.575729-4.033866l57.557855-2.468486c1.98683 0 3.431797 1.023518 4.455315 2.468486l31.969896 48.767638c1.023518 1.023518 1.444967 1.926623 1.444967 3.492004 0 3.010348-1.98683 4.936971-4.997177 4.936971-1.023518 0-1.444967 0-2.468486-0.541863l-12.583255-6.502352-18.724365 35.341487 60.086548 0.78269-0.481656 63.337724z m177.309502-59.725306l-38.532456 63.21731a5.117592 5.117592 0 0 1-4.575729 2.468485H558.96143v13.968015c0 2.468485-1.444967 4.033866-3.552211 4.936971h-1.444967c-1.98683 0-3.552211-1.023518-4.575729-2.468486l-28.959548-49.791157a4.352963 4.352963 0 0 1 0-4.936971l28.959548-51.356538c1.023518-1.926623 3.552211-3.010348 5.478834-2.468485 1.98683 0.541863 3.431797 2.468485 3.431796 4.936971v13.968015h35.522108l-26.491063-50.694262c-1.565381-2.468485-0.541863-5.478833 1.986829-6.381938l56.654751-29.441204a4.455315 4.455315 0 0 1 6.562559 1.926623l45.636877 87.119473c0.903104 1.505174 0.903104 3.431797 0 4.997178z m0 0" fill="#3A79B6" p-id="4266"></path></svg>