<?xml version="1.0" standalone="no"?><!DOCTYPE svg PUBLIC "-//W3C//DTD SVG 1.1//EN" "http://www.w3.org/Graphics/SVG/1.1/DTD/svg11.dtd"><svg t="1706856673594" class="icon" viewBox="0 0 1024 1024" version="1.1" xmlns="http://www.w3.org/2000/svg" p-id="3302" xmlns:xlink="http://www.w3.org/1999/xlink" width="64" height="64"><path d="M509.170273 1022.494826C224.270931 1017.738476-3.732832 786.302916 0.903104 506.521167 5.53904 223.90969 239.5635-4.334901 520.007526 1.565381c282.430856 5.900282 503.87206 229.087488 503.149577 514.287865-0.662277 282.55127-236.914393 511.21731-513.98683 506.64158z" fill="#3B80C3" p-id="3303"></path><path d="M513.746002 980.831609c-259.732832 0.060207-470.276576-209.881468-469.554092-468.349953 0.722484-258.167451 211.868297-467.386642 471.239887-466.904986 256.662277 0.481656 466.844779 211.567262 466.724365 468.711195-0.120414 256.842897-210.603951 466.483537-468.41016 466.543744z" fill="#FFFFFF" p-id="3304"></path><path d="M443.424271 765.170273c0 23.902164-0.60207 47.864534 0.301035 71.706491 0.421449 11.920978-3.793039 15.111947-15.111948 14.750705-21.975541-0.78269-44.071496-0.662277-66.047036-0.060207-10.355597 0.301035-14.449671-2.76952-14.329257-13.727187 0.481656-49.068674-0.120414-98.197554 0.481656-147.266227 0.361242-28.116651 21.072437-48.165569 47.74412-47.864535 26.370649 0.240828 46.299153 20.590781 46.901223 48.827846 0.421449 24.504233 0 49.068674 0.060207 73.633114z" fill="#FFFFFF" p-id="3305"></path><path d="M92.598307 512a419.823142 419.401693 90 1 0 838.803386 0 419.823142 419.401693 90 1 0-838.803386 0Z" fill="#3B80C3" p-id="3306"></path><path d="M735.367827 459.619944c-58.581373 0-117.10254 0.481656-175.683914-0.301035-15.834431-0.240828-22.457197 3.793039-21.313264 20.650988 1.324553 20.048918 1.685795 40.398871-0.060207 60.447789-1.806209 20.590781 5.659454 25.467545 25.527752 25.286924 112.285983-0.963311 224.632173-0.481656 336.978363-0.421449 33.475071 0 34.197554 0.240828 26.069614 34.016933-38.351834 159.668862-135.104421 269.486359-292.124177 315.24365-162.438382 47.322672-307.055503 7.405456-425.964252-116.259642-55.450611-57.678269-89.347131-126.193791-106.144873-203.981186-4.696143-21.734713-0.662277-30.344309 24.38382-29.682032 65.204139 1.806209 130.528692 0.180621 195.853245 0.903105 15.65381 0.180621 26.792098-4.334901 37.629351-15.65381 58.400753-61.049859 117.042333-121.85889 176.587018-181.764817 13.305738-13.426152 13.968015-21.433678-0.301035-33.956726-20.169332-17.64064-38.111007-51.296331-57.919097-52.018815-18.302916-0.662277-38.111007 32.873001-56.835371 51.777987-36.425212 36.84666-72.970837 73.693321-108.613359 111.322672-10.11477 10.656632-20.349953 14.991533-35.040451 14.690498-50.874882-0.842897-101.809972-1.565381-152.624648 0.240828-23.480715 0.842897-27.394167-7.044214-23.540921-28.056444C132.455315 268.161806 272.797742 128.120414 436.982126 99.040452c207.954845-36.84666 404.470367 76.763876 475.996237 275.085606 30.825964 85.493885 30.825964 85.493885-59.484478 85.493886h-118.126058z" fill="#FFFFFF" p-id="3307"></path><path d="M511.698965 92.357479v18.062088c172.432738 0 322.047037 106.024459 381.170273 270.028222 9.271872 25.708373 18.062088 50.092192 17.520226 58.099718-7.345249 3.190969-32.993415 3.190969-60.026341 3.190969h-118.065851c-15.954845 0-31.90969 0.060207-47.924741 0.060207-16.075259 0.060207-32.09031 0.060207-48.16557 0.060207-31.187206 0-56.413923-0.120414-79.412982-0.481656h-1.444967c-8.609595 0-21.072437 1.083725-29.802446 10.355598-9.693321 10.355597-8.730009 24.805268-8.368767 29.561618 1.444967 21.975541 1.444967 40.82032-0.060207 57.618062-0.842897 9.452493-0.903104 23.17968 8.489181 33.414863 9.332079 10.235183 23.119473 11.559737 34.07714 11.559737h1.143933c48.285983-0.421449 99.522107-0.60207 166.111006-0.60207 30.344309 0 60.688617 0.060207 91.032926 0.060207 26.55127 0.060207 53.10254 0.060207 79.714017 0.060207 3.612418 0 7.706491 0 11.198495 0.060207-0.78269 3.793039-1.866416 8.188147-2.649107 11.619944-37.809972 157.441204-131.853246 259.070555-279.601128 302.118532-42.385701 12.342427-83.988711 18.603951-123.725306 18.603951-105.542803 0-201.211665-43.770461-284.176858-130.047036-51.476952-53.523989-84.650988-117.343368-101.508937-195.251176-0.78269-3.492004-1.083725-5.960489-1.204139-7.52587a54.065851 54.065851 0 0 1 7.465663-0.180621c22.336783 0.60207 46.178739 0.903104 77.426152 0.903104 12.763876 0 25.527752-0.060207 38.351835-0.060207 12.763876-0.060207 25.467545-0.060207 38.23142-0.060207 16.075259 0 29.441204 0.060207 42.084666 0.240828h1.083726c20.109125 0 35.943556-6.74318 49.791157-21.253057 48.285983-50.513641 111.924741-116.741298 176.34619-181.463782 7.405456-7.465663 15.894638-17.761054 15.412982-31.187206-0.481656-13.426152-9.753528-22.999059-16.677328-29.079963-5.960489-5.177799-12.28222-12.763876-18.423331-20.109125-14.630292-17.520226-29.802446-35.642521-50.754468-36.365004h-1.143932c-21.373471 0-37.809972 20.048918-53.70461 39.375352-5.418627 6.622766-10.536218 12.824083-15.412982 17.761054l-5.900282 5.960489C366.238946 361.843838 331.078081 397.365945 297.241769 433.068674c-6.442145 6.803387-11.680151 9.091251-20.771402 9.091251h-0.903105c-26.792098-0.481656-55.330198-0.903104-83.446848-0.903105-25.708373 0-48.647225 0.361242-70.14111 1.143933-0.903104 0.060207-1.746002 0.060207-2.528693 0.060207-1.444967 0-2.588899-0.060207-3.492003-0.120414 0.120414-1.505174 0.361242-3.672625 0.903104-6.622766 28.899341-156.899341 163.522107-290.859831 320.120414-318.61524 24.745061-4.395108 49.851364-6.622766 74.656632-6.622766l0.060207-18.122295m-0.060207 0c-25.587959 0-51.597366 2.227658-77.787394 6.863593-164.124177 29.079962-304.466604 169.121355-334.690499 333.125118-3.672625 19.988711-0.301035 28.116651 20.349953 28.116651 1.023518 0 2.047037 0 3.190969-0.060207 23.119473-0.842897 46.299153-1.083725 69.478834-1.083725 27.695202 0 55.450611 0.421449 83.145814 0.903104h1.204139c14.088429 0 24.022578-4.334901 33.836312-14.750705 35.642521-37.629351 72.12794-74.476011 108.613359-111.322672 18.543744-18.724365 38.111007-51.777987 56.293509-51.777987h0.541862c19.80809 0.722484 37.749765 34.378175 57.919097 52.018815 14.329257 12.523048 13.66698 20.530574 0.301035 33.956726-59.544685 59.905927-118.246472 120.714958-176.587018 181.764817-10.596425 11.078081-21.614299 15.714017-36.726246 15.714017h-0.903105c-14.088429-0.180621-28.237065-0.240828-42.325494-0.240828-25.527752 0-51.055503 0.180621-76.583255 0.180621-25.648166 0-51.296331-0.180621-76.944496-0.903105-0.903104 0-1.806209-0.060207-2.649107-0.060207-22.637817 0-26.250235 8.730009-21.734713 29.682032 16.857949 77.787394 50.694262 146.302916 106.144873 203.981185 86.517404 89.9492 186.581373 135.586077 297.181562 135.586078 41.482596 0 84.470367-6.442145 128.78269-19.326435 157.019755-45.757291 253.772342-155.574788 292.124177-315.24365 8.12794-33.776105 7.405456-34.016933-26.069614-34.016933-56.895579 0-113.791157-0.120414-170.746943-0.120414-55.390405 0-110.841016 0.120414-166.23142 0.602069h-0.963312c-19.206021 0-26.370649-5.057385-24.56444-25.286923 1.806209-19.988711 1.38476-40.338664 0.060207-60.44779-1.083725-16.4365 5.177799-20.650988 20.169332-20.650987h1.204139c26.55127 0.361242 53.10254 0.481656 79.65381 0.481655 32.030103 0 64-0.120414 96.030104-0.120414h118.065851c90.310442 0 90.310442 0 59.484478-85.493885-62.555033-173.456256-220.5381-282.069614-398.26905-282.069614z" fill="#3A79B6" p-id="3308"></path></svg>