<?xml version="1.0" standalone="no"?><!DOCTYPE svg PUBLIC "-//W3C//DTD SVG 1.1//EN" "http://www.w3.org/Graphics/SVG/1.1/DTD/svg11.dtd"><svg t="1706856669604" class="icon" viewBox="0 0 1024 1024" version="1.1" xmlns="http://www.w3.org/2000/svg" p-id="3141" xmlns:xlink="http://www.w3.org/1999/xlink" width="64" height="64"><path d="M509.170273 1022.494826C224.270931 1017.738476-3.732832 786.302916 0.903104 506.521167 5.53904 223.90969 239.5635-4.334901 520.007526 1.565381c282.430856 5.900282 503.87206 229.087488 503.149577 514.287865-0.662277 282.55127-236.914393 511.21731-513.98683 506.64158z" fill="#3B80C3" p-id="3142"></path><path d="M513.746002 980.831609c-259.732832 0.060207-470.276576-209.881468-469.554092-468.349953 0.722484-258.167451 211.868297-467.386642 471.239887-466.904986 256.662277 0.481656 466.844779 211.567262 466.724365 468.711195-0.120414 256.842897-210.603951 466.483537-468.41016 466.543744z" fill="#FFFFFF" p-id="3143"></path><path d="M443.424271 765.170273c0 23.902164-0.60207 47.864534 0.301035 71.706491 0.421449 11.920978-3.793039 15.111947-15.111948 14.750705-21.975541-0.78269-44.071496-0.662277-66.047036-0.060207-10.355597 0.301035-14.449671-2.76952-14.329257-13.727187 0.481656-49.068674-0.120414-98.197554 0.481656-147.266227 0.361242-28.116651 21.072437-48.165569 47.74412-47.864535 26.370649 0.240828 46.299153 20.590781 46.901223 48.827846 0.421449 24.504233 0 49.068674 0.060207 73.633114z" fill="#FFFFFF" p-id="3144"></path><path d="M92.598307 512a419.823142 419.401693 90 1 0 838.803386 0 419.823142 419.401693 90 1 0-838.803386 0Z" fill="#3B80C3" p-id="3145"></path><path d="M831.157103 753.73095c-209.520226 0-418.07714-0.180621-626.634055 0.301035-16.918156 0.060207-11.740357-7.646284-8.489182-16.135466 30.886171-81.580433 61.531515-163.221072 93.079963-244.560677 4.515522-11.740357 3.973659-20.048918-4.274694-29.32079-8.549389-9.572907-15.232361-20.771402-23.661336-30.464723-10.777046-12.402634-8.12794-23.300094 4.515522-30.344308 32.451552-18.062088 64.120414-38.472248 101.44873-45.456256 39.616181-7.405456 75.920978 20.109125 86.878645 64.361242 6.923801 27.996237 10.235183 56.714958 17.520226 84.771401 5.298213 20.349953 15.894638 32.873001 34.558796 42.20508 33.234243 16.556914 32.752587 17.520226 56.052681-11.860771 15.172154-19.145814 30.284102-38.351834 45.757291-57.317027 18.543744-22.637817 41.542803-22.758231 56.835371 1.444967 55.932267 88.624647 111.021637 177.851364 166.351835 266.837253 0.541863 0.903104 0.060207 2.348071 0.060207 5.53904zM512.301035 318.555033c-0.180621 25.226717-23.119473 48.165569-48.225776 48.105362-25.106303-0.060207-48.045155-23.059266-48.105362-48.225776-0.060207-24.684854 23.661336-48.526811 48.225776-48.466604 24.56444 0 48.225776 23.962371 48.105362 48.587018z" fill="#FFFFFF" p-id="3146"></path><path d="M387.431797 518.321731c40.82032 22.276576 81.580433 44.673565 122.460959 66.76952 6.984008 3.793039 4.75635 7.285042 1.505174 11.981186-19.868297 28.417686-39.796802 56.835372-59.24365 85.493885-8.188147 12.101599-19.928504 6.261524-29.983066 6.562559-30.404516 0.842897-30.404516 0.301035-25.949201-29.14017 1.444967-9.5127 1.98683-19.266228 4.455315-28.417686 10.716839-39.194732 12.88429-77.004704-13.245531-113.249294zM321.685795 529.460019c23.721543 22.818438 46.479774 42.024459 40.699906 78.690498-3.431797 21.915334-0.963311 44.854186-0.240828 67.311383 0.301035 10.235183-1.685795 14.931326-13.365945 14.570085-26.972719-0.842897-53.945437-0.301035-80.918157-0.240828-6.923801 0-13.486359 0.662277-8.91063-10.114769 20.831609-49.429915 41.362183-98.920038 62.735654-150.216369z" fill="#3B80C3" p-id="3147"></path><path d="M451.793039 519.646284c-42.385701-19.085607-42.385701-19.085607-25.347131-55.992474 8.609595 18.965193 16.195673 35.702728 25.347131 55.992474z" fill="#FFFFFF" p-id="3148"></path><path d="M326.261524 414.163688c-5.177799 6.984008-6.442145 16.918156-14.449671 19.868297-4.936971 1.806209-10.11477-4.936971-10.114769-9.5127 0-10.777046 10.596425-11.198495 17.700846-14.509878 3.492004-1.625588 5.53904 1.143932 6.863594 4.154281z" fill="#3B80C3" p-id="3149"></path></svg>