<?xml version="1.0" standalone="no"?><!DOCTYPE svg PUBLIC "-//W3C//DTD SVG 1.1//EN" "http://www.w3.org/Graphics/SVG/1.1/DTD/svg11.dtd"><svg t="1706856731988" class="icon" viewBox="0 0 1024 1024" version="1.1" xmlns="http://www.w3.org/2000/svg" p-id="4736" xmlns:xlink="http://www.w3.org/1999/xlink" width="64" height="64"><path d="M509.170273 1022.494826C224.270931 1017.738476-3.732832 786.302916 0.903104 506.521167 5.53904 223.90969 239.5635-4.334901 520.007526 1.565381c282.430856 5.900282 503.87206 229.087488 503.149577 514.287865-0.662277 282.55127-236.914393 511.21731-513.98683 506.64158z" fill="#3B80C3" p-id="4737"></path><path d="M512.60207 979.627469C252.869238 979.687676 42.325494 769.746002 43.047977 511.277516 43.770461 253.110066 254.856068 43.890875 514.287865 44.372531c256.662277 0.481656 466.844779 211.567262 466.724365 468.711194-0.180621 256.842897-210.603951 466.483537-468.41016 466.543744z" fill="#FFFFFF" p-id="4738"></path><path d="M443.424271 765.170273c0 23.902164-0.60207 47.864534 0.301035 71.706491 0.421449 11.920978-3.793039 15.111947-15.111948 14.750705-21.975541-0.78269-44.071496-0.662277-66.047036-0.060207-10.355597 0.301035-14.449671-2.76952-14.329257-13.727187 0.481656-49.068674-0.120414-98.197554 0.481656-147.266227 0.361242-28.116651 21.072437-48.165569 47.74412-47.864535 26.370649 0.240828 46.299153 20.590781 46.901223 48.827846 0.421449 24.504233 0 49.068674 0.060207 73.633114z" fill="#FFFFFF" p-id="4739"></path><path d="M510.916275 92.116651c231.074318-1.505174 419.401693 185.85889 420.967074 418.799624 1.505174 231.074318-185.85889 419.401693-418.799624 420.967074-231.074318 1.505174-419.401693-185.85889-420.967074-418.799624-1.505174-231.074318 185.85889-419.401693 418.799624-420.967074z" fill="#3B80C3" p-id="4740"></path><path d="M151.480715 503.149577c1.98683-70.321731 24.142992-143.172154 72.489182-207.473189 8.669802-11.49953 14.148636-15.352775 26.611476-2.649107C319.096896 362.566322 388.395108 431.322672 457.994356 499.777987c9.753528 9.633114 9.633114 14.871119 0 24.444026a24382.296143 24382.296143 0 0 0-208.797743 208.797742c-10.11477 10.235183-14.148636 9.151458-22.698024-2.047036-49.189087-64.662277-73.5127-137.5127-75.017874-227.823142zM872.82032 510.856068c-2.588899 82.242709-25.407338 156.417686-75.920979 221.441204-8.188147 10.536218-12.28222 10.536218-21.253057 1.505174a31543.625212 31543.625212 0 0 0-210.543744-210.483537c-9.091251-8.970837-8.730009-13.907808 0.180621-22.698025 70.080903-69.117592 140.041392-138.415804 209.098777-208.556914 12.161806-12.342427 17.098777-7.465663 24.985889 2.889934 48.707432 64.060207 70.803387 136.970837 73.452493 215.902164zM502.667921 872.519285c-70.080903-1.926623-143.593603-24.444026-208.4365-73.5127-11.860771-8.970837-12.523048-14.208843-1.505175-25.106303 69.418627-68.635936 138.235183-137.934149 206.750706-207.473189 9.091251-9.211665 14.329257-11.017874 24.444026-0.78269 69.117592 70.080903 138.837253 139.619944 208.737536 208.857949 9.332079 9.271872 11.258702 13.727187-0.963312 22.878645-64.963311 48.587018-137.572907 73.633114-229.027281 75.138288zM510.193791 151.119473c82.603951 2.649106 156.116651 25.16651 220.658514 74.837253 10.174976 7.826905 13.546566 12.041392 2.649106 22.818439a22392.612606 22392.612606 0 0 0-210.543744 210.543744c-9.572907 9.693321-14.509878 7.285042-22.698024-1.023519-69.238006-70.020696-138.596425-139.860771-208.496708-209.158984-10.415804-10.355597-8.609595-15.05174 1.926623-23.239887 64.301035-50.152399 138.054563-71.887112 216.504233-74.777046z" fill="#FFFFFF" p-id="4741"></path></svg>