<?xml version="1.0" standalone="no"?><!DOCTYPE svg PUBLIC "-//W3C//DTD SVG 1.1//EN" "http://www.w3.org/Graphics/SVG/1.1/DTD/svg11.dtd"><svg t="1706856793456" class="icon" viewBox="0 0 1024 1024" version="1.1" xmlns="http://www.w3.org/2000/svg" p-id="6648" xmlns:xlink="http://www.w3.org/1999/xlink" width="64" height="64"><path d="M509.170273 1022.494826C224.270931 1017.738476-3.732832 786.302916 0.903104 506.521167 5.53904 223.90969 239.5635-4.334901 520.007526 1.565381c282.430856 5.900282 503.87206 229.087488 503.149577 514.287865-0.662277 282.55127-236.914393 511.21731-513.98683 506.64158z" fill="#3B80C3" p-id="6649"></path><path d="M512.60207 979.627469C252.869238 979.687676 42.325494 769.746002 43.047977 511.277516 43.770461 253.110066 254.856068 43.890875 514.287865 44.372531c256.662277 0.481656 466.844779 211.567262 466.724365 468.711194-0.180621 256.842897-210.603951 466.483537-468.41016 466.543744z" fill="#FFFFFF" p-id="6650"></path><path d="M443.424271 765.170273c0 23.902164-0.60207 47.864534 0.301035 71.706491 0.421449 11.920978-3.793039 15.111947-15.111948 14.750705-21.975541-0.78269-44.071496-0.662277-66.047036-0.060207-10.355597 0.301035-14.449671-2.76952-14.329257-13.727187 0.481656-49.068674-0.120414-98.197554 0.481656-147.266227 0.361242-28.116651 21.072437-48.165569 47.74412-47.864535 26.370649 0.240828 46.299153 20.590781 46.901223 48.827846 0.421449 24.504233 0 49.068674 0.060207 73.633114z" fill="#FFFFFF" p-id="6651"></path><path d="M932.84666 512.060207c0.120414 233.783631-188.267168 422.652869-421.388523 422.412041-231.796802-0.240828-420.003763-188.507996-420.365004-420.425211-0.301035-234.626529 185.497648-422.532455 419.883349-424.519285 231.555974-1.926623 421.749765 188.507996 421.870178 422.532455z" fill="#3B80C3" p-id="6652"></path><path d="M446.314205 372.620884c18.664158-50.33302 41.843838-97.776105 72.669803-141.06491 13.305738-18.603951 28.116651-35.943556 46.841016-49.670744 49.971778-36.605833 99.401693-34.016933 145.339604 8.12794 41.723424 38.291627 69.057385 86.216369 90.671684 137.633114 28.5381 67.973659 50.814675 137.873942 53.764817 212.169332 4.575729 114.212606-74.174976 209.219191-187.544685 227.100659-14.810913 2.348071-20.41016 7.044214-19.0254 22.517403 1.565381 17.941675 0.361242 36.06397 0.361242 54.126059 0 11.920978-0.301035 24.56444-16.797742 24.142991-16.25588-0.421449-16.135466-13.245532-16.195673-24.985889-0.120414-19.868297-0.481656-39.736595 0.180621-59.604892 0.301035-9.633114-2.348071-13.004704-12.523048-14.44967-38.0508-5.35842-73.572907-18.062088-104.158043-42.084666-7.044214-5.53904-11.138288-5.659454-17.460019 1.746001-27.815616 32.812794-62.856068 53.70461-105.783631 60.206962-9.753528 1.444967-14.810913 5.057385-13.968015 16.195672 1.023518 14.389464 0.78269 28.899341 0 43.288806-0.541863 10.837253-4.033866 20.650988-18.001882 19.80809-12.824083-0.78269-15.172154-9.572907-15.111947-20.229539 0.120414-13.847601-0.903104-27.755409 0.301035-41.542803 1.023518-11.920978-4.395108-15.473189-14.810913-17.279398-62.976482-11.078081-106.566322-47.142051-133.478833-104.459078-8.007526-17.098777-13.486359-35.221072-13.365946-53.945438 0.722484-106.20508 31.969897-202.174976 98.619003-285.742239 4.094073-5.117592 9.151458-9.572907 14.028222-14.028222 41.843838-37.44873 87.962371-37.508937 128.963311 0.903105 12.944497 12.161806 23.78175 26.671684 36.485419 41.121354z" fill="#FFFFFF" p-id="6653"></path><path d="M649.452493 488.338664V387.431797c0-12.101599-0.842897-24.805268-16.737535-24.504234-15.65381 0.301035-16.316087 13.064911-16.316087 25.046096V591.232361c-19.145814-19.145814-35.341486-35.401693-51.657573-51.657573-8.91063-8.91063-17.881468-17.881468-26.852305-26.731891-6.381938-6.261524-13.426152-8.248354-20.711194-1.565381-7.164628 6.562559-8.790216 14.26905-2.649107 22.457197 2.889934 3.853246 6.321731 7.224835 9.693321 10.656632 26.671684 26.912512 53.10254 54.186265 80.376294 80.496708 9.031044 8.730009 12.523048 17.64064 12.041392 30.043273-0.903104 24.022578-0.421449 48.165569-0.180621 72.248354 0.060207 7.345249-0.963311 10.235183-9.994356 9.091251-89.347131-11.318909-161.29445-90.731891-163.281279-181.704609-1.565381-68.876764 20.169332-132.635936 44.854186-195.492004 20.590781-52.440263 45.937912-101.930386 86.938853-141.968015 36.84666-35.943556 74.355597-37.147695 113.490122-3.431797 28.417686 24.504233 47.74412 55.87206 64.541863 88.383819 33.896519 65.565381 56.895579 134.984008 67.672624 208.316087 14.871119 101.268109-34.317968 184.534337-129.866416 218.671684-40.338664 14.389464-41.362183 13.727187-41.362182-27.574788 0-47.5635 0.421449-95.126999-0.240828-142.630292-0.180621-13.606773 3.010348-23.78175 13.486359-33.113829 17.520226-15.593603 33.595484-32.752587 50.393227-49.189087 8.308561-8.12794 12.583255-17.339605 3.251176-26.611477-9.572907-9.5127-18.904986-4.274694-26.491063 3.913452-11.740357 12.763876-23.119473 25.888993-34.67921 38.893697-1.926623-1.625588-3.853246-3.010348-5.719661-4.395108z" fill="#3B80C3" p-id="6654"></path><path d="M329.633114 637.170273c-13.787394-13.245532-25.9492-24.805268-37.930386-36.485419-7.706491-7.52587-16.376294-11.740357-25.226717-3.311383-9.332079 8.91063-6.261524 18.42333 2.047037 26.731891 17.520226 17.399812 34.980245 34.799624 52.620884 52.079022 4.816557 4.696143 8.730009 9.271872 8.609596 16.918156-0.481656 21.01223-0.180621 42.024459-0.180621 63.096896-65.324553-3.552211-127.277516-64.060207-128.180621-127.879587-1.324553-95.90969 31.30762-181.283161 86.999059-258.348071 4.214487-5.840075 9.271872-11.138288 14.570085-16.015052 25.347131-23.119473 51.777987-23.721543 79.774224-3.070555 21.554092 15.894638 33.475071 39.074318 47.683913 60.568203 3.913452 5.900282 0.421449 11.559737-1.083725 17.279398-9.392286 36.726246-17.881468 73.572907-19.085607 111.683914-1.685795 54.427093 14.509878 103.074318 47.623707 146.062088 4.696143 6.080903 8.489182 10.355597 1.685795 18.062089-22.457197 25.587959-48.707432 44.312324-82.724365 51.236124-10.957667 2.227658-14.329257 0.120414-14.26905-11.860772 0.60207-65.565381 0.301035-131.190969 0.301035-196.816556 0-4.816557 0.361242-9.693321-0.361242-14.449671-1.505174-9.753528-5.659454-17.098777-17.339605-16.677329-11.800564 0.421449-15.533396 7.706491-15.593603 17.941675 0 33.655691 0.060207 67.311383 0.060207 103.254939z" fill="#3B80C3" p-id="6655"></path></svg>