<?xml version="1.0" standalone="no"?><!DOCTYPE svg PUBLIC "-//W3C//DTD SVG 1.1//EN" "http://www.w3.org/Graphics/SVG/1.1/DTD/svg11.dtd"><svg t="1706856614727" class="icon" viewBox="0 0 1024 1024" version="1.1" xmlns="http://www.w3.org/2000/svg" p-id="1552" xmlns:xlink="http://www.w3.org/1999/xlink" width="64" height="64"><path d="M509.170273 1022.494826C224.270931 1017.738476-3.732832 786.302916 0.903104 506.521167 5.53904 223.90969 239.5635-4.334901 520.007526 1.565381c282.430856 5.900282 503.87206 229.087488 503.149577 514.287865-0.662277 282.55127-236.914393 511.21731-513.98683 506.64158z" fill="#3B80C3" p-id="1553"></path><path d="M513.746002 980.831609c-259.732832 0.060207-470.276576-209.881468-469.554092-468.349953 0.722484-258.167451 211.868297-467.386642 471.239887-466.904986 256.662277 0.481656 466.844779 211.567262 466.724365 468.711195-0.120414 256.842897-210.603951 466.483537-468.41016 466.543744z" fill="#FFFFFF" p-id="1554"></path><path d="M443.424271 765.170273c0 23.902164-0.60207 47.864534 0.301035 71.706491 0.421449 11.920978-3.793039 15.111947-15.111948 14.750705-21.975541-0.78269-44.071496-0.662277-66.047036-0.060207-10.355597 0.301035-14.449671-2.76952-14.329257-13.727187 0.481656-49.068674-0.120414-98.197554 0.481656-147.266227 0.361242-28.116651 21.072437-48.165569 47.74412-47.864535 26.370649 0.240828 46.299153 20.590781 46.901223 48.827846 0.421449 24.504233 0 49.068674 0.060207 73.633114z" fill="#FFFFFF" p-id="1555"></path><path d="M678.773283 185.497648c-0.180621 21.734713 0.060207 43.469426-0.602069 65.143932-0.301035 9.271872 2.889934 12.342427 12.101599 12.161807 21.734713-0.541863 43.469426 0.180621 65.204139-0.301035 9.332079-0.240828 12.041392 3.190969 12.041392 12.28222-0.240828 111.924741-0.240828 223.849483 0 335.774224 0 9.091251-2.348071 12.88429-11.920978 11.68015-10.29539-1.264346-20.711195-1.143932-30.404516 3.311383-12.101599 5.53904-15.232361 1.926623-15.172154-11.078081 0.481656-88.022578 0.240828-176.045155 0.240828-264.067732 0-24.56444 0-24.56444-25.286924-24.564441-118.427093 0-236.914393 0.240828-355.341486-0.301035-13.546566-0.060207-17.098777 3.492004-17.03857 17.038571 0.60207 88.022578 0.301035 176.045155 0.301035 264.067732v18.483538c-16.677328-3.973659-32.270931-6.261524-47.804328-1.98683-9.392286 2.588899-10.596425-1.444967-10.596425-9.5127 0.180621-113.008467 0.240828-226.016933-0.060207-339.0254 0-9.332079 3.010348-12.222013 12.161806-11.981185 20.650988 0.541863 41.362183-0.842897 61.892757 0.481655 14.208843 0.903104 17.158984-4.214487 16.617121-17.339604-0.842897-19.988711 0.421449-40.097836 0.842897-60.146755 111.021637-0.120414 221.92286-0.120414 332.824083-0.120414zM838.622766 710.682973c-18.664158 20.952023-25.828786 21.373471-48.587018 3.130762-4.635936-3.732832-9.392286-7.405456-14.088429-11.078081-9.452493-7.345249-18.904986-7.164628-28.297272 0.240828-8.549389 6.74318-16.857949 13.787394-25.648166 20.109125-27.273754 19.627469-55.571025 19.868297-82.965192 0.541862-8.850423-6.261524-17.219191-13.245532-25.648166-20.048918-9.813735-7.947319-19.687676-8.248354-29.682032-0.541862-8.609595 6.622766-16.918156 13.606773-25.648166 20.048918-25.888993 19.145814-55.029163 19.687676-81.580432 1.444967-8.067733-5.53904-15.473189-11.920978-23.17968-17.941675-16.015052-12.523048-22.457197-12.462841-38.773284 0.421449-7.224835 5.719661-14.329257 11.680151-21.674506 17.219191-24.745061 18.784572-56.955786 18.543744-81.460018-0.541863-7.706491-6.020696-15.774224-11.619944-23.059267-18.122295-12.523048-11.198495-24.022578-9.994356-36.003763 0.842897-8.067733 7.285042-16.617121 13.968015-25.286923 20.590781-10.29539 7.826905-21.19285 8.428975-31.30762-0.060207-10.596425-8.91063-14.088429-22.156162-5.599248-31.969896 19.80809-22.698024 40.21825-46.178739 73.091251-50.152399 19.266228-2.348071 36.545626 2.649106 51.416745 15.593603 6.562559 5.719661 13.606773 10.777046 20.289746 16.376293 11.680151 9.873942 23.17968 10.656632 34.920038 0 6.020696-5.478833 12.402634-10.596425 18.784572-15.65381 29.079962-22.938852 62.856068-24.142992 91.093133-0.120413 42.80715 36.425212 40.21825 26.430856 73.934148-0.662277 27.093133-21.734713 61.290687-22.457197 88.323613-0.240828 38.83349 31.90969 36.003763 32.933208 75.258702 0.180621 26.671684-22.216369 59.063029-21.915334 87.239887-1.444967 12.763876 9.211665 24.745061 19.326435 34.137347 32.150517v19.687677z" fill="#3B80C3" p-id="1556"></path><path d="M835.853246 785.158984c-0.120414 6.803387-0.180621 13.606773-0.301035 20.41016-12.944497 25.347131-30.103481 29.380997-52.018815 12.161806-29.140169-22.878645-29.140169-22.878645-58.521166 0.60207-32.511759 25.9492-66.588899 25.828786-99.642522-0.421449-32.331138-25.708373-26.671684-26.55127-58.942615-0.240828-33.776105 27.574788-67.913452 26.972719-102.050799-0.78269-0.842897-0.662277-1.685795-1.38476-2.528693-2.107244-24.323612-20.048918-24.323612-20.048918-48.647225-0.78269-41.000941 32.511759-68.635936 32.632173-109.456256 0.481655-3.853246-3.010348-7.826905-5.900282-11.499529-9.151458-9.271872-8.12794-18.182502-8.308561-27.454375 0.301035a315.857761 315.857761 0 0 1-21.19285 17.82126c-15.774224 12.402634-34.438382 11.800564-45.215428-1.143932-11.800564-14.208843-11.138288-36.425212 2.588899-48.827846 11.619944-10.536218 23.902164-20.650988 36.846661-29.501411 28.056444-19.085607 59.24365-17.339605 88.022577 3.732832 32.391345 23.78175 32.391345 23.78175 63.638758 0.662277 31.90969-23.540922 64.421449-23.420508 96.150518 0.481655 3.010348 2.287865 5.840075 4.816557 8.790216 7.285043 21.855127 18.182502 21.855127 18.182502 43.529633 0.361241 42.084666-34.619003 74.656632-34.498589 116.440264 0.361242 20.952023 17.460019 21.614299 18.242709 45.456256-3.130762 51.958608-46.238946 110.600188-13.606773 136.007526 31.428034z" fill="#3B80C3" p-id="1557"></path><path d="M542.886171 539.996237c0 30.404516-0.722484 60.869238 0.301035 91.273754 0.60207 17.158984-13.365945 21.313264-22.999059 28.598306-8.248354 6.261524-12.222013-5.659454-18.483537-8.669802-22.758231-10.957667-26.55127-29.682032-25.708373-53.403575 1.746002-49.911571 0.842897-99.943556 0.301035-149.915334-0.120414-11.017874 2.287865-15.65381 14.208843-14.750705 13.486359 1.023518 27.15334 0.722484 40.699906 0.060206 9.5127-0.481656 12.041392 3.251176 11.920978 12.222014-0.481656 31.548448-0.240828 63.096896-0.240828 94.585136z" fill="#3B81C3" p-id="1558"></path><path d="M368.406397 550.893697c0-27.695202 0.301035-55.450611-0.180621-83.145814-0.180621-9.151458 2.709313-12.523048 12.041392-12.101599 14.088429 0.662277 28.237065 0.481656 42.385701 0.060207 7.887112-0.240828 11.740357 1.565381 11.619944 10.656632-0.361242 48.34619-0.240828 96.752587-0.120414 145.098777 0 6.261524-1.264346 9.994356-8.428975 11.198495-15.894638 2.649106-29.682032 10.11477-42.265287 20.048918-3.311383 2.649106-6.261524 5.840075-11.439322 2.889934-5.057385-2.950141-3.612418-7.465663-3.672625-11.499529 0-27.755409 0.060207-55.510818 0.060207-83.206021z" fill="#3B80C3" p-id="1559"></path><path d="M653.787394 645.418627c-19.747883-14.088429-37.930386-23.300094-59.424271-23.239888-6.321731 0-6.502352-4.274694-6.502352-8.850423 0-49.429915 0.120414-98.920038-0.060207-148.349953 0-7.224835 3.130762-9.392286 9.813735-9.271872 15.232361 0.240828 30.464722 0.301035 45.636877 0 7.52587-0.180621 10.656632 2.408278 10.656632 10.235184-0.180621 58.64158-0.120414 117.283161-0.120414 179.476952z" fill="#3C81C4" p-id="1560"></path></svg>