<?xml version="1.0" standalone="no"?><!DOCTYPE svg PUBLIC "-//W3C//DTD SVG 1.1//EN" "http://www.w3.org/Graphics/SVG/1.1/DTD/svg11.dtd"><svg t="1706856566295" class="icon" viewBox="0 0 1024 1024" version="1.1" xmlns="http://www.w3.org/2000/svg" p-id="1394" xmlns:xlink="http://www.w3.org/1999/xlink" width="64" height="64"><path d="M509.170273 1022.494826C224.270931 1017.738476-3.732832 786.302916 0.903104 506.521167 5.53904 223.90969 239.5635-4.334901 520.007526 1.565381c282.430856 5.900282 503.87206 229.087488 503.149577 514.287865-0.662277 282.55127-236.914393 511.21731-513.98683 506.64158z" fill="#3B80C3" p-id="1395"></path><path d="M513.746002 980.831609c-259.732832 0.060207-470.276576-209.881468-469.554092-468.349953 0.722484-258.167451 211.868297-467.386642 471.239887-466.904986 256.662277 0.481656 466.844779 211.567262 466.724365 468.711195-0.120414 256.842897-210.603951 466.483537-468.41016 466.543744z" fill="#FFFFFF" p-id="1396"></path><path d="M510.976482 928.69238c-230.773283-1.685795-418.739417-190.434619-416.571966-418.378175 2.167451-230.472248 190.434619-416.571966 419.883349-415.066792 229.268109 1.505174 416.69238 189.712135 415.367826 417.174036-1.324553 230.171214-190.193791 417.956726-418.679209 416.270931z" fill="#3B80C3" p-id="1397"></path><path d="M393.572907 241.189087c22.39699-0.301035 41.301976 9.031044 56.173095 24.263406 11.49953 11.740357 17.64064 9.151458 26.972719-1.746002 12.041392-14.148636 25.648166-26.972719 38.953904-39.977422 30.223895-29.441204 69.177799-32.331138 102.472248-6.261524 41.663217 32.571966 82.543744 66.227658 123.544685 99.642521 12.88429 10.476011 15.232361 24.323612 7.044214 35.160865-8.489182 11.258702-23.360301 12.101599-36.967074 1.143933-38.472248-31.066792-76.643462-62.494826-114.935089-93.742239-22.216369-18.122295-35.281279-17.279398-55.510819 3.732831-11.680151 12.161806-22.878645 24.805268-34.920037 36.605833-6.803387 6.682973-5.779868 10.89746 1.023518 16.617121 15.533396 13.125118 30.825964 26.611477 45.757291 40.459078 12.462841 11.559737 14.028222 25.046096 4.93697 35.100659-8.790216 9.693321-23.239887 9.693321-35.823142-1.204139-33.836312-29.32079-67.190969-59.24365-100.906867-88.745062-23.721543-20.771402-38.893697-19.326435-58.46096 4.936971-17.158984 21.253057-34.137347 42.686736-51.657572 63.578551-10.837253 12.944497-26.250235 14.931326-36.66604 5.840076-9.934149-8.669802-9.934149-22.577611 0.842898-35.823142 19.80809-24.383819 39.857008-48.526811 60.146754-72.549389 14.931326-17.941675 34.558796-26.731891 57.979304-27.032926z" fill="#FFFFFF" p-id="1398"></path><path d="M507.725306 498.694262c-75.920978-1.746002-152.263405-6.74318-225.956727-30.886172-20.530574-6.74318-40.158043-15.412982-57.437441-28.598306-13.305738-10.174976-23.17968-22.938852-26.009407-39.917216-2.348071-14.148636 4.094073-24.444026 17.520226-27.996237 13.004704-3.492004 23.420508 2.348071 26.912511 15.65381 4.515522 17.399812 19.085607 22.637817 32.632174 28.598307 39.736595 17.460019 81.941675 25.9492 124.748824 30.284101 96.391345 9.813735 192.541863 9.211665 287.608654-12.763875 21.493885-4.997178 42.746943-11.017874 62.494826-21.253058 11.379116-5.900282 21.674506-12.222013 25.286924-26.671684 2.829727-11.258702 12.88429-16.496707 24.745061-14.208843 12.342427 2.408278 18.965193 10.355597 18.844779 23.420508-0.240828 22.276576-13.907808 36.365005-30.404515 48.045156-27.514581 19.507056-59.424271 28.598307-91.695203 36.365004-61.952963 14.871119-125.049859 18.724365-189.290686 19.928505zM356.66604 677.027281c-41.482596-8.12794-84.229539-16.617121-122.039511-39.977422-17.158984-10.596425-31.729069-23.902164-35.883349-44.9746-2.649106-13.426152 0.722484-25.226717 14.750705-29.441204 13.968015-4.214487 25.587959 0.301035 29.682032 15.894637 3.793039 14.449671 16.25588 19.326435 27.454375 24.745062 26.792098 13.004704 55.631232 19.868297 84.831608 25.34713 3.973659 0.722484 7.947319 1.565381 11.860772 2.5889 13.968015 3.672625 21.01223 12.944497 18.062088 27.093132-2.950141 14.088429-13.365945 19.627469-28.71872 18.724365zM694.607714 670.284102c-12.161806-1.444967-21.493885-6.381938-23.78175-19.266228-2.167451-12.402634 2.348071-21.855127 14.630292-26.069614 17.520226-6.020696 35.522107-10.656632 52.741298-17.399812 16.556914-6.502352 32.752587-13.546566 38.472248-34.07714 3.251176-11.680151 14.931326-13.727187 26.129822-11.318909 12.161806 2.588899 17.219191 11.800564 17.098777 23.059266-0.180621 15.232361-7.104421 27.996237-18.302917 38.171214-30.404516 27.574788-69.057385 36.545626-106.98777 46.901223zM521.452493 602.731891c0 20.891816-0.301035 41.723424 0.120414 62.61524 0.180621 8.188147-2.528692 10.777046-10.89746 11.318909-36.485419 2.227658-36.485419 2.528692-36.485419-34.016934 0-32.451552 0.361242-64.903104-0.180621-97.354656-0.180621-10.415804 2.588899-13.907808 13.546567-14.028222 33.896519-0.301035 33.896519-0.78269 33.896519 33.294449v38.171214zM650.596425 597.253057c0 19.747883-0.240828 39.555974 0.120414 59.303857 0.180621 8.12794-2.649106 10.837253-10.957667 11.379116-36.365005 2.348071-36.304798 2.649106-36.304798-33.113829 0-32.571966 0.301035-65.083725-0.18062-97.655691-0.180621-9.934149 3.130762-12.703669 12.944496-12.88429 34.438382-0.662277 34.438382-1.083725 34.438382 32.873001-0.060207 13.365945-0.060207 26.731891-0.060207 40.097836zM456.067733 597.313264c0 19.747883-0.240828 39.495767 0.120414 59.24365 0.180621 8.067733-2.588899 10.837253-10.89746 11.318909-35.582314 2.287865-35.582314 2.588899-35.582314-33.655691 0-31.969897 0.361242-63.879586-0.180621-95.849483-0.180621-10.415804 2.76952-13.968015 13.606773-14.088429 32.933208-0.361242 32.933208-0.842897 32.933208 31.187206v41.843838zM539.33396 602.611477c0-19.747883 0.361242-39.555974-0.18062-59.303857-0.240828-9.211665 3.010348-11.680151 12.041392-11.981185 34.016933-1.143932 34.016933-1.505174 34.016933 31.849482 0 31.969897-0.60207 64 0.301035 95.90969 0.361242 13.185325-3.732832 16.857949-16.677328 16.556914-29.441204-0.60207-29.441204 0.060207-29.441205-29.441204-0.060207-14.509878-0.060207-29.079962-0.060207-43.58984zM372.50047 701.772342c20.891816 2.649106 37.569144 4.696143 54.126059 6.863594 9.5127 1.204139 15.292568 6.803387 14.088429 16.25588-1.38476 10.89746-9.332079 15.65381-19.988712 14.570084-16.075259-1.625588-32.09031-3.913452-48.165569-5.900282-10.656632-1.324553-18.122295-7.164628-16.617121-18.062088 1.505174-10.777046 10.174976-14.570085 16.556914-13.727188zM651.138288 804.425212c-10.235183-0.541863-17.460019-4.575729-18.664158-14.931327-1.143932-9.633114 4.936971-15.172154 13.787394-16.978363 16.918156-3.552211 34.016933-6.442145 50.995296-9.693321 9.693321-1.866416 15.954845 2.950141 18.784572 11.318909 3.190969 9.452493-2.107244 16.316087-10.837253 18.543744-17.821261 4.575729-36.003763 7.887112-54.065851 11.740358zM498.393227 782.389464c8.12794 0 16.25588-0.120414 24.383819 0 9.452493 0.120414 15.593603 4.635936 16.436501 14.329257 0.903104 10.11477-5.53904 15.954845-14.329257 16.316086-18.543744 0.78269-37.147695 0.481656-55.69144-0.662276-9.091251-0.541863-14.690499-6.863594-13.847601-16.737536 0.78269-9.031044 6.562559-13.305738 15.172155-13.606773 9.271872-0.361242 18.603951-0.060207 27.875823-0.060207v0.421449zM297.843838 757.283161c16.075259 3.853246 35.221072 8.067733 54.126059 13.245531 7.52587 2.047037 10.89746 8.609595 9.452492 16.496708-1.625588 8.669802-7.646284 13.66698-16.075258 12.462841-19.446849-2.76952-38.713076-6.863594-57.196614-13.546566-7.887112-2.889934-11.920978-9.633114-9.332079-18.122296 2.227658-7.345249 7.887112-11.198495 19.0254-10.536218zM570.340546 740.967074c-5.779868 0-11.559737-0.120414-17.339605 0-9.873942 0.240828-17.219191-2.709313-17.881468-14.028222-0.662277-11.318909 6.442145-15.352775 16.195673-16.015051 17.821261-1.204139 35.702728-2.227658 53.584195-2.950142 8.007526-0.301035 13.305738 4.094073 14.509878 11.981186 1.324553 8.669802-2.76952 14.690499-11.198495 16.978363-12.402634 3.431797-25.16651 3.37159-37.870178 4.033866zM590.088429 810.445908c-12.523048-0.421449-19.988711-4.936971-19.145814-16.617122 0.903104-12.88429 10.89746-14.931326 21.313265-14.871119 10.054563 0.060207 16.918156 5.057385 16.617121 15.593603-0.301035 12.944497-9.994356 15.172154-18.784572 15.894638zM668.297272 730.009407c-10.476011-0.120414-17.03857-4.455315-17.219191-15.412982-0.240828-13.727187 9.5127-15.65381 19.988711-16.376293 10.476011-0.662277 17.460019 4.334901 17.460019 14.750705 0.060207 12.703669-10.11477 15.412982-20.229539 17.03857zM410.912512 777.693321c10.716839 0.662277 20.470367 2.950141 20.470367 16.195672 0 12.041392-8.609595 16.195673-18.844779 15.412983-10.11477-0.78269-20.289746-4.15428-19.567263-17.339605 0.60207-10.716839 8.188147-14.329257 17.941675-14.26905zM492.854186 742.713076c-10.415804-1.023518-19.627469-3.311383-19.928504-15.412982-0.361242-11.920978 8.12794-16.25588 18.182502-16.376293 9.693321-0.060207 19.206021 3.311383 19.507056 15.111947 0.301035 11.680151-8.368768 15.352775-17.761054 16.677328zM766.675447 740.003763c10.355597 0.301035 16.737535 5.298213 16.496707 14.810912-0.361242 13.004704-10.596425 17.520226-21.493885 18.423331-9.332079 0.78269-16.075259-5.298213-15.834431-14.630292 0.240828-13.185325 10.89746-16.316087 20.831609-18.603951z" fill="#FFFFFF" p-id="1399"></path></svg>