<?xml version="1.0" standalone="no"?><!DOCTYPE svg PUBLIC "-//W3C//DTD SVG 1.1//EN" "http://www.w3.org/Graphics/SVG/1.1/DTD/svg11.dtd"><svg t="1706856723900" class="icon" viewBox="0 0 1024 1024" version="1.1" xmlns="http://www.w3.org/2000/svg" p-id="4419" xmlns:xlink="http://www.w3.org/1999/xlink" width="64" height="64"><path d="M509.170273 1022.494826C224.270931 1017.738476-3.732832 786.302916 0.903104 506.521167 5.53904 223.90969 239.5635-4.334901 520.007526 1.565381c282.430856 5.900282 503.87206 229.087488 503.149577 514.287865-0.662277 282.55127-236.914393 511.21731-513.98683 506.64158z" fill="#3B80C3" p-id="4420"></path><path d="M512.60207 979.627469C252.869238 979.687676 42.325494 769.746002 43.047977 511.277516 43.770461 253.110066 254.856068 43.890875 514.287865 44.372531c256.662277 0.481656 466.844779 211.567262 466.724365 468.711194-0.180621 256.842897-210.603951 466.483537-468.41016 466.543744z" fill="#FFFFFF" p-id="4421"></path><path d="M443.424271 765.170273c0 23.902164-0.60207 47.864534 0.301035 71.706491 0.421449 11.920978-3.793039 15.111947-15.111948 14.750705-21.975541-0.78269-44.071496-0.662277-66.047036-0.060207-10.355597 0.301035-14.449671-2.76952-14.329257-13.727187 0.481656-49.068674-0.120414-98.197554 0.481656-147.266227 0.361242-28.116651 21.072437-48.165569 47.74412-47.864535 26.370649 0.240828 46.299153 20.590781 46.901223 48.827846 0.421449 24.504233 0 49.068674 0.060207 73.633114z" fill="#FFFFFF" p-id="4422"></path><path d="M932.84666 512.060207c0.120414 233.783631-188.267168 422.652869-421.388523 422.412041-231.796802-0.240828-420.003763-188.507996-420.365004-420.425211-0.301035-234.626529 185.497648-422.532455 419.883349-424.519285 231.555974-1.926623 421.749765 188.507996 421.870178 422.532455z" fill="#3B80C3" p-id="4423"></path><path d="M703.698965 832.120414c-125.471308 0-246.366886-0.180621-367.262465 0.180621-14.088429 0.060207-15.111947-4.214487-9.332079-15.473189 17.219191-33.595484 33.234243-67.853246 51.175918-101.087489 7.164628-13.305738 5.238006-20.169332-6.562559-29.561618-92.839135-74.174976-111.322672-204.763876-43.288805-302.539981 5.599247-8.067733 7.285042-16.015052 7.224835-25.347131-0.240828-37.027281-1.083725-74.11477 0.361242-111.081843 0.722484-18.724365-4.515522-25.888993-23.721543-24.082785-8.850423 0.842897-22.637817 6.020696-23.902164-11.68015-0.842897-12.101599 0.903104-19.928504 16.436501-19.808091 68.75635 0.60207 137.5127 0.361242 206.26905 0.120414 10.596425-0.060207 17.03857 1.926623 17.098777 14.750706 0.060207 12.583255-4.214487 17.339605-17.098777 17.399812-9.994356 0-25.708373-5.960489-29.019756 4.696143-5.53904 17.64064-4.214487 37.569144-0.301035 55.992474 1.625588 7.706491 11.800564 4.274694 18.182503 4.274694 62.01317-0.180621 117.463782 16.797742 164.124177 59.424271 97.053622 88.56444 96.632173 243.537159-3.37159 328.489181-20.470367 17.399812-22.156162 29.501411-9.332079 51.537159 18.965193 32.270931 33.956726 66.829727 52.319849 103.796802z" fill="#FFFFFF" p-id="4424"></path><path d="M415.729069 511.277516c0.240828-53.042333 42.98777-96.210724 94.344308-95.247413 56.534337 1.083725 97.595484 42.506115 96.873001 97.776106-0.722484 53.10254-42.084666 93.802446-95.608655 94.043274-53.222954 0.240828-95.849483-42.80715-95.608654-96.571967z" fill="#3B80C3" p-id="4425"></path></svg>