<?xml version="1.0" standalone="no"?><!DOCTYPE svg PUBLIC "-//W3C//DTD SVG 1.1//EN" "http://www.w3.org/Graphics/SVG/1.1/DTD/svg11.dtd"><svg t="1706856797954" class="icon" viewBox="0 0 1024 1024" version="1.1" xmlns="http://www.w3.org/2000/svg" p-id="6808" xmlns:xlink="http://www.w3.org/1999/xlink" width="64" height="64"><path d="M509.170273 1022.494826C224.270931 1017.738476-3.732832 786.302916 0.903104 506.521167 5.53904 223.90969 239.5635-4.334901 520.007526 1.565381c282.430856 5.900282 503.87206 229.087488 503.149577 514.287865-0.662277 282.55127-236.914393 511.21731-513.98683 506.64158z" fill="#3B80C3" p-id="6809"></path><path d="M512.60207 979.627469C252.869238 979.687676 42.325494 769.746002 43.047977 511.277516 43.770461 253.110066 254.856068 43.890875 514.287865 44.372531c256.662277 0.481656 466.844779 211.567262 466.724365 468.711194-0.180621 256.842897-210.603951 466.483537-468.41016 466.543744z" fill="#FFFFFF" p-id="6810"></path><path d="M443.424271 765.170273c0 23.902164-0.60207 47.864534 0.301035 71.706491 0.421449 11.920978-3.793039 15.111947-15.111948 14.750705-21.975541-0.78269-44.071496-0.662277-66.047036-0.060207-10.355597 0.301035-14.449671-2.76952-14.329257-13.727187 0.481656-49.068674-0.120414-98.197554 0.481656-147.266227 0.361242-28.116651 21.072437-48.165569 47.74412-47.864535 26.370649 0.240828 46.299153 20.590781 46.901223 48.827846 0.421449 24.504233 0 49.068674 0.060207 73.633114z" fill="#FFFFFF" p-id="6811"></path><path d="M932.84666 512.060207c0.120414 233.783631-188.267168 422.652869-421.388523 422.412041-231.796802-0.240828-420.003763-188.507996-420.365004-420.425211-0.301035-234.626529 185.497648-422.532455 419.883349-424.519285 231.555974-1.926623 421.749765 188.507996 421.870178 422.532455z" fill="#3B80C3" p-id="6812"></path><path d="M483.160865 411.273754c-45.636877 4.816557-88.203198 18.724365-126.79586 43.890874-46.901223 30.524929-82.363123 127.157103-67.612418 180.982126 3.672625 13.426152 12.342427 10.054563 20.650988 9.271873 29.200376-2.829727 58.340546-5.900282 87.360301 1.143932 12.041392 2.889934 24.203198 5.779868 35.702728 10.29539 32.933208 13.004704 34.317968 18.965193 6.381938 38.83349-31.789276 22.637817-45.636877 52.801505-45.57667 90.852305 0 6.682973 1.98683 14.028222-4.635936 22.336783-48.526811-32.571966-88.323612-73.091251-116.921919-123.905927-53.10254-94.524929-67.010348-194.588899-30.103481-297.181561 34.67921-96.391345 111.443086-146.724365 208.25588-166.472249 100.184384-20.470367 188.387582 12.523048 272.075259 68.936971-13.727187 16.015052-31.548448 20.650988-48.827846 27.15334 8.489182 16.737535 24.684854 22.938852 40.037629 33.776105-34.619003 37.930386-79.894638 47.322672-126.856068 48.105362-17.580433 0.301035-27.815616-21.614299-45.697083-32.270931 1.143932 16.797742 14.028222 21.614299 19.928504 35.522107-17.339605 1.746002-33.29445 3.311383-49.309501 4.936971-8.850423 5.057385-19.206021-1.083725-28.056445 3.793039z" fill="#FFFFFF" p-id="6813"></path><path d="M727.480715 594.42333c-26.370649 2.107244-43.529633-8.730009-59.905927-23.902163-27.15334-25.106303-32.993415-24.504233-60.327375-0.903105-43.890875 37.870179-112.406397 29.92286-148.771402-16.617121-10.536218-13.486359 3.37159-17.279398 8.73001-22.698025 4.997178-4.997178 8.368768-21.734713 21.433678-8.007526 9.934149 10.476011 22.457197 17.098777 35.522107 22.878646 20.590781 9.151458 38.291627 6.984008 55.932267-8.970838 41.422389-37.44873 72.12794-37.027281 114.031985-1.023518 25.828786 22.216369 32.69238 22.095955 59.303857 0.541863 8.188147-6.622766 16.857949-13.064911 26.250236-17.700847 9.091251-4.455315 23.300094-11.49953 27.996237-0.060207 4.515522 10.957667 8.850423 27.454374-8.248354 37.328316-24.624647 14.208843-40.338664 45.034807-71.947319 39.134525z" fill="#FFFFFF" p-id="6814"></path><path d="M809.904045 619.830668c1.625588 10.11477-1.204139 18.965193-14.389464 24.925682-9.271872 4.214487-16.25588 13.426152-24.383819 20.289746-27.695202 23.239887-67.311383 23.059266-95.066792-0.301035-39.074318-32.873001-39.194732-32.933208-76.402634-1.143932-18.784572 16.015052-40.278457 21.493885-64.361242 17.339605-23.239887-4.033866-43.228598-14.931326-61.772342-29.32079-25.106303-19.446849-24.985889-21.01223-0.541863-41.42239 7.044214-5.840075 10.596425-5.840075 17.339605 0.060207 8.609595 7.465663 18.603951 13.486359 28.417686 19.386642 21.313264 12.643462 40.338664 11.800564 60.206961-5.779869 43.349012-38.412041 73.271872-37.870179 116.259643-1.023518 25.407338 21.79492 31.548448 22.156162 56.413922 0.361242 10.054563-8.850423 20.048918-17.399812 32.692381-22.216369 20.771402-7.947319 25.226717-5.057385 25.587958 18.844779z" fill="#FFFFFF" p-id="6815"></path><path d="M350.464722 241.068674c-50.634055 26.55127-87.78175 66.348071-114.393226 120.112888-6.261524-22.276576-9.813735-41.241769-17.279398-59.24365-13.486359-32.451552-6.74318-46.660395 26.671684-58.159925 11.559737-3.973659 23.962371-5.478833 35.943556-8.12794 20.349953-4.274694 40.940734-1.083725 61.4111-1.806209 4.696143-0.120414 8.489182 1.264346 7.646284 7.224836z" fill="#FEFEFF" p-id="6816"></path><path d="M516.997178 433.369708c-16.677328 37.930386-33.174036 54.005644-67.251176 65.625588 1.143932-58.039511 15.111947-78.810913 55.330197-82.543744 16.797742-3.431797 14.088429 6.923801 11.920979 16.918156z" fill="#FDFEFE" p-id="6817"></path><path d="M350.464722 241.068674c-22.156162-12.944497-46.178739-1.866416-69.057384-5.418627 23.420508-9.693321 47.864534-4.033866 71.887112-4.75635 2.76952-0.120414 8.12794-0.180621 5.53904 5.057385-1.204139 2.468485-5.478833 3.431797-8.368768 5.117592z" fill="#B6BFDB" p-id="6818"></path><path d="M647.826905 275.206021c-1.324553 8.669802-3.793039 17.761054-14.509878 18.242709-10.716839 0.541863-19.145814-5.900282-20.169332-16.496707-1.083725-11.078081 7.044214-17.881468 17.64064-18.664158 10.476011-0.662277 14.810913 7.345249 17.03857 16.918156z" fill="#6685B7" p-id="6819"></path></svg>