<?xml version="1.0" standalone="no"?><!DOCTYPE svg PUBLIC "-//W3C//DTD SVG 1.1//EN" "http://www.w3.org/Graphics/SVG/1.1/DTD/svg11.dtd"><svg t="1706856653662" class="icon" viewBox="0 0 1024 1024" version="1.1" xmlns="http://www.w3.org/2000/svg" p-id="2506" xmlns:xlink="http://www.w3.org/1999/xlink" width="64" height="64"><path d="M509.170273 1022.494826C224.270931 1017.738476-3.732832 786.302916 0.903104 506.521167 5.53904 223.90969 239.5635-4.334901 520.007526 1.565381c282.430856 5.900282 503.87206 229.087488 503.149577 514.287865-0.662277 282.55127-236.914393 511.21731-513.98683 506.64158z" fill="#3B80C3" p-id="2507"></path><path d="M512.60207 979.627469C252.869238 979.687676 42.325494 769.746002 43.047977 511.277516 43.770461 253.110066 254.856068 43.890875 514.287865 44.372531c256.662277 0.481656 466.844779 211.567262 466.724365 468.711194-0.180621 256.842897-210.603951 466.483537-468.41016 466.543744z" fill="#FFFFFF" p-id="2508"></path><path d="M443.424271 765.170273c0 23.902164-0.60207 47.864534 0.301035 71.706491 0.421449 11.920978-3.793039 15.111947-15.111948 14.750705-21.975541-0.78269-44.071496-0.662277-66.047036-0.060207-10.355597 0.301035-14.449671-2.76952-14.329257-13.727187 0.481656-49.068674-0.120414-98.197554 0.481656-147.266227 0.361242-28.116651 21.072437-48.165569 47.74412-47.864535 26.370649 0.240828 46.299153 20.590781 46.901223 48.827846 0.421449 24.504233 0 49.068674 0.060207 73.633114z" fill="#FFFFFF" p-id="2509"></path><path d="M175.021637 742.111007V281.648166c4.15428-5.177799 9.753528-7.044214 16.255879-7.34525 6.74318-0.301035 13.426152-0.421449 20.169333-0.421448 199.887112 0 399.774224-0.060207 599.661335 0 37.870179 0 37.870179 0.120414 37.870179 37.268109v414.886171c0 20.952023-1.806209 23.17968-22.758231 23.601129-39.736595 0.722484-79.533396 0.240828-119.269991 0.240828-166.291627 0-332.583255 0.120414-498.874882-0.180621-11.379116 0.060207-23.902164 3.070555-33.053622-7.586077z" fill="#3B80C3" p-id="2510"></path><path d="M821.88523 295.676388c-3.552211 7.345249-9.091251 9.211665-13.486359 12.222013-199.52587 134.442145-399.05174 268.824083-598.57761 403.20602-3.251176 2.167451-6.442145 4.455315-9.753528 6.502352-5.53904 3.37159-8.308561 1.685795-8.12794-4.816557 0.060207-2.76952 0-5.599247 0-8.368767V311.450611c0-8.188147-2.408278-16.015052 11.800564-16.015051 205.365945 0.361242 410.852305 0.240828 618.144873 0.240828z" fill="#FFFFFF" p-id="2511"></path></svg>