<?xml version="1.0" standalone="no"?><!DOCTYPE svg PUBLIC "-//W3C//DTD SVG 1.1//EN" "http://www.w3.org/Graphics/SVG/1.1/DTD/svg11.dtd"><svg t="1706856781981" class="icon" viewBox="0 0 1024 1024" version="1.1" xmlns="http://www.w3.org/2000/svg" p-id="6330" xmlns:xlink="http://www.w3.org/1999/xlink" width="64" height="64"><path d="M509.170273 1022.494826C224.270931 1017.738476-3.732832 786.302916 0.903104 506.521167 5.53904 223.90969 239.5635-4.334901 520.007526 1.565381c282.430856 5.900282 503.87206 229.087488 503.149577 514.287865-0.662277 282.55127-236.914393 511.21731-513.98683 506.64158z" fill="#3B80C3" p-id="6331"></path><path d="M512.60207 979.627469C252.869238 979.687676 42.325494 769.746002 43.047977 511.277516 43.770461 253.110066 254.856068 43.890875 514.287865 44.372531c256.662277 0.481656 466.844779 211.567262 466.724365 468.711194-0.180621 256.842897-210.603951 466.483537-468.41016 466.543744z" fill="#FFFFFF" p-id="6332"></path><path d="M443.424271 765.170273c0 23.902164-0.60207 47.864534 0.301035 71.706491 0.421449 11.920978-3.793039 15.111947-15.111948 14.750705-21.975541-0.78269-44.071496-0.662277-66.047036-0.060207-10.355597 0.301035-14.449671-2.76952-14.329257-13.727187 0.481656-49.068674-0.120414-98.197554 0.481656-147.266227 0.361242-28.116651 21.072437-48.165569 47.74412-47.864535 26.370649 0.240828 46.299153 20.590781 46.901223 48.827846 0.421449 24.504233 0 49.068674 0.060207 73.633114z" fill="#FFFFFF" p-id="6333"></path><path d="M932.84666 512.060207c0.120414 233.783631-188.267168 422.652869-421.388523 422.412041-231.796802-0.240828-420.003763-188.507996-420.365004-420.425211-0.301035-234.626529 185.497648-422.532455 419.883349-424.519285 231.555974-1.926623 421.749765 188.507996 421.870178 422.532455z" fill="#3B80C3" p-id="6334"></path><path d="M239.623706 621.396049h-50.51364c-2.408278-5.719661 1.444967-9.211665 3.311383-12.944497 34.558796-69.418627 69.659454-138.596425 103.555973-208.376293 8.067733-16.496707 19.266228-22.517404 36.967075-24.082785 77.787394-6.803387 155.454374-14.509878 233.121354-22.637817 15.111947-1.565381 24.022578 2.227658 30.765758 16.556914 37.268109 78.810913 75.258702 157.260583 113.490122 235.58984 5.478833 11.258702 7.52587 16.376294-8.91063 16.075259-47.021637-0.903104-94.043274-0.421449-141.064911-0.180621-7.826905 0.060207-14.26905-0.481656-18.122295-8.790216-3.010348-6.502352-10.11477-8.850423-15.954845-12.161807-33.836312-19.507056-68.033866-38.472248-101.569144-58.521166-11.017874-6.562559-17.03857-6.984008-22.818438 6.201317-8.850423 20.229539-19.928504 39.43556-29.501412 59.303857-4.75635 9.873942-11.860771 14.449671-22.758231 14.329257-18.122295-0.240828-36.244591-0.060207-54.607714-0.060207 43.529633 40.639699 95.126999 48.767639 147.326435 23.420508 8.12794-3.973659 16.4365-7.646284 24.504233-11.680151 34.980245-17.460019 69.117592-15.172154 101.749765 5.599248 46.419567 29.501411 91.213547 26.370649 136.91063-2.5889 36.304798-22.999059 72.368768-19.446849 105.061148 7.164629-6.682973 12.523048-15.232361 14.088429-27.634996 6.863593-19.085607-11.138288-39.074318-9.813735-58.460959 0.060207-11.619944 5.900282-22.878645 12.462841-34.317968 18.603951-39.857008 21.433678-78.750706 14.509878-117.162747-4.094073-6.622766-3.190969-12.88429-7.104421-19.507056-10.29539-30.765757-14.810913-61.23048-15.232361-90.671683 3.311382-48.827846 30.825964-97.475071 31.849483-147.0254 1.20414-28.056444-17.339605-57.437441-23.902164-87.721543-4.274695-10.415804 6.74318-12.583255-4.334901-16.436501-8.970837-6.080903-7.285042 2.950141-7.887112 6.442145-9.934148 7.164628-4.214487 14.871119-7.586077 22.39699-11.318909-0.301035-1.143932-0.60207-2.287865-0.842898-3.37159z" fill="#FFFFFF" p-id="6335"></path><path d="M734.223895 417.715898c9.031044-17.520226 17.460019-32.873001 24.865475-48.767638 3.913452-8.428975 7.586077-10.957667 16.316086-5.539041 15.834431 9.813735 32.150517 18.965193 48.707432 27.695202 7.887112 4.15428 8.669802 8.308561 4.575729 16.015052-13.606773 25.467545-26.009407 51.597366-39.917215 76.824083-8.12794 14.750706-8.790216 27.634995-0.481656 42.927563 16.4365 30.163688 30.946378 61.350894 47.382879 94.284102-16.25588 0-29.561618 0.301035-42.927564-0.120414-9.392286-0.301035-12.944497-7.586077-16.4365-15.05174-42.80715-91.815616-85.674506-183.571025-128.541863-275.326435-3.130762-6.682973-6.14111-13.365945-9.332079-19.988711-14.148636-29.742239-16.015052-31.066792-48.045155-25.708373-111.503293 18.543744-222.946378 37.207902-334.329257 56.413923-15.232361 2.588899-23.601129 0.722484-23.721543-17.098777-0.060207-11.559737-8.067733-26.310442-3.311383-33.896519 5.238006-8.428975 21.79492-5.177799 33.475071-6.682973 122.822201-15.714017 245.644403-31.187206 368.34619-47.563499 11.078081-1.505174 14.750706 2.107244 18.844779 10.656632 26.310442 54.4873 52.982126 108.793979 79.593603 163.100658 0.963311 1.926623 2.348071 3.672625 4.936971 7.826905zM269.907808 675.221072c13.305738-0.240828 25.828786 3.010348 37.689558 8.73001 11.680151 5.659454 23.239887 11.740357 34.67921 17.941674 32.09031 17.460019 64.361242 17.580433 95.066792-1.986829 47.864534-30.464722 95.126999-31.789276 143.533396-1.866416 36.124177 22.336783 72.609595 21.855127 108.9746-0.060207 7.224835-4.395108 15.05174-7.766698 22.577611-11.800565 30.825964-16.496707 60.809031-14.449671 90.069614 3.913453 3.190969 1.98683 10.656632 2.829727 5.719661 9.151458-3.37159 4.395108-5.418627 12.28222-13.968015 9.271872-2.107244-0.78269-4.094073-1.926623-6.020696-3.070555-23.360301-13.426152-46.35936-11.49953-69.418626 1.023518-13.426152 7.285042-26.792098 14.750706-40.880527 20.590781-29.561618 12.222013-59.544685 11.860771-88.985889-0.903104-10.89746-4.696143-21.493885-10.174976-31.729069-16.195673-31.90969-18.844779-63.337723-18.001881-94.585136 1.264346-18.483537 11.379116-38.111007 19.80809-59.905927 22.336783-29.200376 3.431797-56.293509-2.76952-81.098777-18.42333-29.441204-18.543744-59.544685-27.755409-92.297272-8.308561-9.031044 5.35842-14.26905-0.903104-17.881467-7.164628-4.816557-8.12794 4.334901-9.091251 8.30856-11.439323 15.232361-9.091251 32.391345-12.523048 50.152399-13.004704z" fill="#FFFFFF" p-id="6336"></path><path d="M206.630292 749.155221c37.44873-24.263405 74.536218-28.116651 113.008466-6.381938 3.431797 1.926623 7.104421 3.612418 10.415805 5.719661 38.713076 25.226717 77.245532 25.16651 116.079021 0.060207 15.834431-10.235183 33.053622-17.03857 52.079022-18.904985 25.648166-2.468485 50.393227 1.565381 71.586077 15.714017 45.155221 30.103481 88.323612 27.514581 132.876764-1.505175 35.943556-23.420508 72.489182-20.650988 107.58984 3.672625-5.478833 12.583255-11.860771 18.182502-25.648166 9.693321-24.684854-15.292568-48.587018-8.368768-71.766698 5.418626-22.999059 13.66698-46.780809 24.805268-74.536218 25.226717-24.504233 0.361242-47.5635-4.575729-67.913452-17.761053-39.134525-25.527752-76.342427-26.792098-117.162747-1.444967-43.349012 26.972719-89.16651 25.708373-133.117592-1.806209-29.802446-18.664158-60.026341-25.226717-92.477893-5.840076-12.583255 7.52587-13.245532-7.766698-21.012229-11.860771z" fill="#FFFFFF" p-id="6337"></path></svg>