<?xml version="1.0" standalone="no"?><!DOCTYPE svg PUBLIC "-//W3C//DTD SVG 1.1//EN" "http://www.w3.org/Graphics/SVG/1.1/DTD/svg11.dtd"><svg t="1706856658180" class="icon" viewBox="0 0 1024 1024" version="1.1" xmlns="http://www.w3.org/2000/svg" p-id="2664" xmlns:xlink="http://www.w3.org/1999/xlink" width="64" height="64"><path d="M509.170273 1022.494826C224.270931 1017.738476-3.732832 786.302916 0.903104 506.521167 5.53904 223.90969 239.5635-4.334901 520.007526 1.565381c282.430856 5.900282 503.87206 229.087488 503.149577 514.287865-0.662277 282.55127-236.914393 511.21731-513.98683 506.64158z" fill="#3B80C3" p-id="2665"></path><path d="M513.746002 980.831609c-259.732832 0.060207-470.276576-209.881468-469.554092-468.349953 0.722484-258.167451 211.868297-467.386642 471.239887-466.904986 256.662277 0.481656 466.844779 211.567262 466.724365 468.711195-0.120414 256.842897-210.603951 466.483537-468.41016 466.543744z" fill="#FFFFFF" p-id="2666"></path><path d="M443.424271 765.170273c0 23.902164-0.60207 47.864534 0.301035 71.706491 0.421449 11.920978-3.793039 15.111947-15.111948 14.750705-21.975541-0.78269-44.071496-0.662277-66.047036-0.060207-10.355597 0.301035-14.449671-2.76952-14.329257-13.727187 0.481656-49.068674-0.120414-98.197554 0.481656-147.266227 0.361242-28.116651 21.072437-48.165569 47.74412-47.864535 26.370649 0.240828 46.299153 20.590781 46.901223 48.827846 0.421449 24.504233 0 49.068674 0.060207 73.633114z" fill="#FFFFFF" p-id="2667"></path><path d="M92.598307 512a419.823142 419.401693 90 1 0 838.803386 0 419.823142 419.401693 90 1 0-838.803386 0Z" fill="#3B80C3" p-id="2668"></path><path d="M649.452493 619.469426c0 44.19191-0.60207 88.444026 0.361242 132.635936 0.301035 14.871119-3.913452 19.0254-18.844779 18.904986-77.968015-0.722484-155.996237-0.662277-233.964252-0.060207-14.26905 0.120414-19.507056-3.130762-19.386642-18.543744 0.722484-89.226717 0.662277-178.513641 0-267.740357-0.120414-14.871119 4.214487-19.0254 19.0254-18.904986 77.968015 0.722484 155.996237 0.903104 233.964252-0.120414 17.339605-0.240828 19.326435 6.74318 19.085607 21.072436-0.662277 44.312324-0.240828 88.504233-0.240828 132.75635zM511.698965 339.687676c47.503293 0 95.066792-0.240828 142.570085 0.060207 26.611477 0.180621 32.69238 6.442145 33.113829 32.752587 0.240828 13.66698-0.421449 27.394167 0.120414 41.061148 0.903104 20.952023-10.235183 29.079962-29.501412 29.140169-96.632173 0.060207-193.324553 0.060207-289.956726 0-18.302916 0-28.839135-7.947319-28.056444-27.815616 0.541863-15.292568 0.481656-30.585136 0-45.877704-0.662277-20.41016 9.031044-29.501411 29.14017-29.380998 47.503293 0.180621 95.066792 0.060207 142.570084 0.060207zM513.926623 316.267168c-38.592662 0-77.185325-1.083725-115.71778 0.481656-18.844779 0.722484-22.095955-6.923801-18.965193-22.39699 10.89746-53.343368 42.626529-88.684854 93.441204-107.047977 11.017874-3.973659 23.300094-3.853246 23.721543-21.072436 0.180621-7.465663 8.669802-13.727187 17.941674-12.643462 8.489182 0.963311 16.737535 5.779868 17.158985 14.389463 0.722484 14.088429 9.633114 15.714017 20.109125 18.965193 53.283161 16.556914 83.507056 54.306679 96.270931 107.409219 3.732832 15.593603 0.662277 23.119473-18.302916 22.39699-38.412041-1.505174-77.064911-0.481656-115.657573-0.481656zM511.819379 846.26905H362.20508c-8.850423 0-17.700847 0.060207-26.009407-3.793039-10.174976-4.696143-13.727187-13.064911-12.703669-23.601129 1.023518-10.476011 5.478833-18.844779 16.918156-20.41016 8.730009-1.204139 17.580433-1.746002 26.370649-1.746001 98.137347-0.120414 196.274694-0.060207 294.412041-0.060207 5.599247 0 11.258702-0.060207 16.85795 0.240827 14.570085 0.78269 24.323612 6.562559 25.286923 22.938853 1.083725 18.242709-10.415804 24.745061-25.106302 25.828786-19.988711 1.444967-40.158043 0.60207-60.267169 0.662277-35.341486 0-70.74318-0.060207-106.144873-0.060207zM352.812794 623.503293v26.55127c0 45.456256-10.235183 53.222954-56.353716 43.951081-11.138288-2.227658-14.26905-9.031044-14.329257-18.784572-0.060207-33.776105 0.180621-67.552211-0.120414-101.328316-0.120414-13.185325 6.321731-19.085607 18.724365-19.928504 0.78269-0.060207 1.625588 0 2.408279-0.060207 49.73095-4.455315 49.73095-4.455315 49.73095 45.516463-0.060207 8.007526-0.060207 16.075259-0.060207 24.082785zM742.111007 625.369708c0 6.442145 0.120414 12.88429 0 19.326435-0.963311 55.149577 10.476011 49.128881-55.751647 49.550329-10.777046 0.060207-13.727187-4.515522-13.606773-14.44967 0.361242-36.967074 0.481656-73.994356-0.060207-110.96143-0.180621-11.680151 4.334901-15.111947 15.533396-15.111948 62.735654-0.060207 53.463782-1.926623 53.885231 50.031985v21.614299zM261.960489 623.382879c0.662277 17.460019 5.418627 34.378175-24.383819 33.234242-25.768579-0.963311-28.297272-12.161806-27.634995-32.511759 1.083725-31.126999 1.625588-30.464722 29.922859-32.812794 29.862653-2.588899 21.01223 17.339605 22.095955 32.090311zM813.817498 624.105362c-0.060207 30.344309-11.258702 38.351834-40.338665 31.428034-7.405456-1.746002-8.730009-5.659454-8.730009-11.800564 0-8.067733-0.060207-16.075259-0.060207-24.142992 0-25.648166 17.761054-37.508937 40.579492-26.491063 14.871119 7.164628 5.900282 21.554092 8.549389 31.006585z" fill="#FFFFFF" p-id="2669"></path><path d="M514.709313 547.762935c46.299153-0.240828 81.64064 34.137347 82.122296 79.894638 0.481656 45.095014-35.522107 80.797742-81.339605 80.737535-44.793979-0.060207-79.714017-34.378175-80.25588-78.931326-0.662277-46.660395 33.174036-81.460019 79.473189-81.700847z" fill="#3B80C3" p-id="2670"></path><path d="M572.568203 627.537159c0.240828 33.354657-24.323612 57.738476-57.798683 57.497648-31.608655-0.240828-56.895579-25.106303-57.317027-56.353716-0.421449-31.969897 25.828786-57.738476 58.581373-57.497648 32.210724 0.301035 56.293509 24.263405 56.534337 56.353716z" fill="#FFFFFF" p-id="2671"></path></svg>