<?xml version="1.0" standalone="no"?><!DOCTYPE svg PUBLIC "-//W3C//DTD SVG 1.1//EN" "http://www.w3.org/Graphics/SVG/1.1/DTD/svg11.dtd"><svg t="1706856709403" class="icon" viewBox="0 0 1024 1024" version="1.1" xmlns="http://www.w3.org/2000/svg" p-id="4104" xmlns:xlink="http://www.w3.org/1999/xlink" width="64" height="64"><path d="M509.170273 1022.494826C224.270931 1017.738476-3.732832 786.302916 0.903104 506.521167 5.53904 223.90969 239.5635-4.334901 520.007526 1.565381c282.430856 5.900282 503.87206 229.087488 503.149577 514.287865-0.662277 282.55127-236.914393 511.21731-513.98683 506.64158z" fill="#3B80C3" p-id="4105"></path><path d="M512.60207 979.627469C252.869238 979.687676 42.325494 769.746002 43.047977 511.277516 43.770461 253.110066 254.856068 43.890875 514.287865 44.372531c256.662277 0.481656 466.844779 211.567262 466.724365 468.711194-0.180621 256.842897-210.603951 466.483537-468.41016 466.543744z" fill="#FFFFFF" p-id="4106"></path><path d="M443.424271 765.170273c0 23.902164-0.60207 47.864534 0.301035 71.706491 0.421449 11.920978-3.793039 15.111947-15.111948 14.750705-21.975541-0.78269-44.071496-0.662277-66.047036-0.060207-10.355597 0.301035-14.449671-2.76952-14.329257-13.727187 0.481656-49.068674-0.120414-98.197554 0.481656-147.266227 0.361242-28.116651 21.072437-48.165569 47.74412-47.864535 26.370649 0.240828 46.299153 20.590781 46.901223 48.827846 0.421449 24.504233 0 49.068674 0.060207 73.633114z" fill="#FFFFFF" p-id="4107"></path><path d="M676.66604 825.015992s-33.414864-41.783631-66.829728-41.783631c0 0-33.414864-33.414864-75.138288-41.783631L409.407338 632.955786s0-100.244591-75.138288-116.92192v-66.829727l-33.414864-33.414863s-25.046096-66.829727-41.783631-75.138288c0 0-16.677328-116.921919-66.829727-133.599248v617.964252h484.425212zM539.875823 268.763876a16.671308 16.671308 0 0 1-7.044214-22.517404l20.169332-38.532455a16.671308 16.671308 0 0 1 22.517403-7.044215c8.188147 4.274694 11.318909 14.389464 7.044215 22.517404l-20.169332 38.532455a16.68937 16.68937 0 0 1-22.517404 7.044215z m100.244591 8.368767a16.671308 16.671308 0 0 1-7.044215-22.517403l20.169333-38.532455a16.671308 16.671308 0 0 1 22.517403-7.044215c8.188147 4.274694 11.318909 14.389464 7.044215 22.517404l-20.169333 38.532455a16.719473 16.719473 0 0 1-22.517403 7.044214zM590.028222 368.94826a16.671308 16.671308 0 0 1-7.044214-22.517404l20.169332-38.532455a16.671308 16.671308 0 0 1 22.517403-7.044215c8.188147 4.274694 11.318909 14.389464 7.044215 22.517404l-20.169332 38.532455A16.671308 16.671308 0 0 1 590.028222 368.94826zM489.783631 360.639699a16.671308 16.671308 0 0 1-7.044214-22.517404l20.169332-38.532455a16.671308 16.671308 0 0 1 22.517403-7.044214c8.188147 4.274694 11.318909 14.389464 7.044215 22.517403l-20.169332 38.532455a16.707432 16.707432 0 0 1-22.517404 7.044215z m247.330198-77.426152a16.671308 16.671308 0 0 1-7.044215-22.517404l23.360301-44.673565a16.671308 16.671308 0 0 1 22.517404-7.044215c8.188147 4.274694 11.318909 14.389464 7.044214 22.517404l-23.360301 44.673565a16.653246 16.653246 0 0 1-22.517403 7.044215z m-50.092192 100.24459a16.671308 16.671308 0 0 1-7.044215-22.517403l23.360301-44.673566a16.671308 16.671308 0 0 1 22.517404-7.044214c8.188147 4.274694 11.318909 14.389464 7.044214 22.517403l-23.360301 44.673566a16.719473 16.719473 0 0 1-22.517403 7.044214z m23.059266 408.142992l-33.414863-8.368768v-50.092192l-16.677329-8.368767 16.677329-8.368768s16.677328-66.829727 100.24459-16.677328h33.414864s33.414864 66.829727 16.677328 91.875823l-33.414863 33.414863h-58.46096l-25.046096-33.414863z m-100.244591-275.567263l-8.368767 16.677329-25.046096 8.368767s-8.368768 33.414864 25.046096 58.46096h25.046096s41.783631-33.414864 16.677328-75.138288l-33.354657-8.368768z m0 0" fill="#208CCB" p-id="4108"></path><path d="M451.190969 424.158043l83.507055 50.092192L543.066792 582.803387s-16.677328 41.783631-58.460959 50.092192l-16.677329-8.368768-8.368767-75.138288-33.414864-50.092192 25.046096-75.138288z m-50.092192-33.414863l-25.046096 8.368767 16.737535 25.046096 25.046096-8.368767 8.368768-8.368768-25.106303-16.677328z m158.645343 242.212606v50.092191l33.414864 8.368768 25.046096 25.046096s41.783631 0 50.092192-33.414864v-25.046096s-50.092192-41.783631-75.138288-41.783631l-33.414864 16.737536z m0 0" fill="#208CCB" p-id="4109"></path></svg>