<?xml version="1.0" standalone="no"?><!DOCTYPE svg PUBLIC "-//W3C//DTD SVG 1.1//EN" "http://www.w3.org/Graphics/SVG/1.1/DTD/svg11.dtd"><svg t="1706856767143" class="icon" viewBox="0 0 1024 1024" version="1.1" xmlns="http://www.w3.org/2000/svg" p-id="5692" xmlns:xlink="http://www.w3.org/1999/xlink" width="64" height="64"><path d="M509.170273 1022.494826C224.270931 1017.738476-3.732832 786.302916 0.903104 506.521167 5.53904 223.90969 239.5635-4.334901 520.007526 1.565381c282.430856 5.900282 503.87206 229.087488 503.149577 514.287865-0.662277 282.55127-236.914393 511.21731-513.98683 506.64158z" fill="#3B80C3" p-id="5693"></path><path d="M512.60207 979.627469C252.869238 979.687676 42.325494 769.746002 43.047977 511.277516 43.770461 253.110066 254.856068 43.890875 514.287865 44.372531c256.662277 0.481656 466.844779 211.567262 466.724365 468.711194-0.180621 256.842897-210.603951 466.483537-468.41016 466.543744z" fill="#FFFFFF" p-id="5694"></path><path d="M443.424271 765.170273c0 23.902164-0.60207 47.864534 0.301035 71.706491 0.421449 11.920978-3.793039 15.111947-15.111948 14.750705-21.975541-0.78269-44.071496-0.662277-66.047036-0.060207-10.355597 0.301035-14.449671-2.76952-14.329257-13.727187 0.481656-49.068674-0.120414-98.197554 0.481656-147.266227 0.361242-28.116651 21.072437-48.165569 47.74412-47.864535 26.370649 0.240828 46.299153 20.590781 46.901223 48.827846 0.421449 24.504233 0 49.068674 0.060207 73.633114z" fill="#FFFFFF" p-id="5695"></path><path d="M932.84666 512.060207c0.120414 233.783631-188.267168 422.652869-421.388523 422.412041-231.796802-0.240828-420.003763-188.507996-420.365004-420.425211-0.301035-234.626529 185.497648-422.532455 419.883349-424.519285 231.555974-1.926623 421.749765 188.507996 421.870178 422.532455z" fill="#3B80C3" p-id="5696"></path><path d="M464.4365 154.972719c126.735654 35.582314 188.026341 136.428975 177.730951 293.087488 18.603951-4.455315 27.996237-19.145814 36.545625-33.535278 8.368768-14.088429 14.630292-17.520226 28.658514-5.117591 64.722484 57.437441 106.566322 129.264346 104.398871 214.938852-2.227658 88.865475-48.34619 159.969897-126.735654 205.847601-33.535278 19.627469-69.478833 34.739417-112.647225 38.83349 7.285042-15.593603 12.88429-28.959548 19.62747-41.663217 32.270931-60.447789 16.797742-112.045155-29.200377-157.682032-23.059266-22.878645-42.325494-47.683913-52.801505-79.111947-7.887112-23.601129-3.672625-47.382879-3.793038-76.041393-63.277516 38.592662-116.018815 81.941675-129.625588 155.634996-13.305738 72.067733 22.216369 131.732832 62.253998 194.227657-43.529633-3.672625-77.727187-18.844779-109.456256-37.930385-143.894638-86.517404-157.079962-258.889934-28.839135-367.262465 22.216369-18.784572 44.733772-37.087488 66.950142-55.811853C441.317027 341.373471 483.522107 266.476011 464.075259 166.472248c-0.541863-2.889934-0.722484-5.900282-0.842898-8.850423-0.120414-0.903104 0.722484-1.746002 1.204139-2.649106z" fill="#FFFFFF" p-id="5697"></path></svg>