<?xml version="1.0" standalone="no"?><!DOCTYPE svg PUBLIC "-//W3C//DTD SVG 1.1//EN" "http://www.w3.org/Graphics/SVG/1.1/DTD/svg11.dtd"><svg t="1706856778243" class="icon" viewBox="0 0 1024 1024" version="1.1" xmlns="http://www.w3.org/2000/svg" p-id="6168" xmlns:xlink="http://www.w3.org/1999/xlink" width="64" height="64"><path d="M509.170273 1022.494826C224.270931 1017.738476-3.732832 786.302916 0.903104 506.521167 5.53904 223.90969 239.5635-4.334901 520.007526 1.565381c282.430856 5.900282 503.87206 229.087488 503.149577 514.287865-0.662277 282.55127-236.914393 511.21731-513.98683 506.64158z" fill="#3B80C3" p-id="6169"></path><path d="M512.60207 979.627469C252.869238 979.687676 42.325494 769.746002 43.047977 511.277516 43.770461 253.110066 254.856068 43.890875 514.287865 44.372531c256.662277 0.481656 466.844779 211.567262 466.724365 468.711194-0.180621 256.842897-210.603951 466.483537-468.41016 466.543744z" fill="#FFFFFF" p-id="6170"></path><path d="M443.424271 765.170273c0 23.902164-0.60207 47.864534 0.301035 71.706491 0.421449 11.920978-3.793039 15.111947-15.111948 14.750705-21.975541-0.78269-44.071496-0.662277-66.047036-0.060207-10.355597 0.301035-14.449671-2.76952-14.329257-13.727187 0.481656-49.068674-0.120414-98.197554 0.481656-147.266227 0.361242-28.116651 21.072437-48.165569 47.74412-47.864535 26.370649 0.240828 46.299153 20.590781 46.901223 48.827846 0.421449 24.504233 0 49.068674 0.060207 73.633114z" fill="#FFFFFF" p-id="6171"></path><path d="M932.84666 512.060207c0.120414 233.783631-188.267168 422.652869-421.388523 422.412041-231.796802-0.240828-420.003763-188.507996-420.365004-420.425211-0.301035-234.626529 185.497648-422.532455 419.883349-424.519285 231.555974-1.926623 421.749765 188.507996 421.870178 422.532455z" fill="#3B80C3" p-id="6172"></path><path d="M512.662277 809.422389c-60.809031 0-121.618062-0.180621-182.487301 0.120414-21.614299 0.120414-42.084666-5.117592-61.170272-14.208843-52.801505-25.046096-70.502352-81.279398-41.121355-135.706491 42.024459-77.847601 85.855127-154.731891 128.963311-232.037629 0.301035-0.60207 0.60207-1.204139 0.963312-1.746002 36.06397-44.914393 39.074318-97.414864 35.642521-151.78175-0.662277-10.837253-4.575729-13.365945-14.26905-13.004703-13.847601 0.541863-27.875823-0.903104-41.60301 0.361242-23.480715 2.227658-16.075259-14.509878-17.158984-26.129822-1.204139-12.88429-0.842897-21.79492 17.700846-21.614299 116.982126 0.963311 234.024459 0.722484 351.066792 0.120414 14.509878-0.060207 17.580433 4.876764 17.279398 18.182502-0.60207 29.200376 0.060207 29.200376-29.501411 29.260584-45.095014 0-42.867357 0.120414-45.817497 45.335842-2.588899 39.616181 8.970837 72.730009 28.538099 106.265287 45.516463 78.208843 88.263405 157.983067 132.455316 236.9746 46.660395 83.446849-1.264346 154.190028-91.093133 158.886171-62.61524 3.311383-125.591722 0.662277-188.387582 0.662277v0.060206z" fill="#FFFFFF" p-id="6173"></path><path d="M333.66698 758.547507c-63.819379-4.094073-87.119473-35.4619-50.212606-93.079962 18.844779-29.380997 36.184384-59.785513 53.403575-90.190029 5.238006-9.271872 11.078081-12.763876 21.734713-12.703668 102.351834 0.361242 204.703669 0.361242 307.055504 0 10.536218-0.060207 16.556914 3.190969 21.855127 12.583255 18.363123 32.752587 36.786453 65.565381 56.955785 97.294449 27.634995 43.409219 16.376294 79.232361-45.757291 85.433678-3.913452 0.421449-7.887112 0.481656-11.860771 0.722484-4.455315 1.565381-8.188147 1.685795-8.970837-4.334901 9.091251-12.402634 22.999059-21.674506 23.721543-39.555974 0.842897-21.19285-8.12794-38.171214-25.286924-44.613358-19.266228-7.224835-43.830668 0.421449-54.366886 16.918156-9.392286 14.690499-6.381938 38.893697 5.177798 53.584196 4.15428 5.298213 17.700847 7.345249 9.031044 19.085606-96.993415 0.361242-193.866416 0.060207-290.799623 0.180621-3.913452-0.060207-7.887112 0.301035-11.680151-1.324553zM660.349953 511.157103H363.770461c16.556914-29.200376 30.284102-57.678269 47.924741-83.507056 23.059266-33.715898 32.571966-69.298213 28.959549-109.817498-1.565381-17.279398-8.188147-40.398871 3.37159-51.296331 11.379116-10.837253 34.07714-2.889934 51.777986-3.311383 23.78175-0.541863 47.623706 0.361242 71.405457-0.301034 12.161806-0.361242 19.266228 2.348071 17.03857 16.316086-11.981185 73.873942 14.088429 136.850423 55.450611 195.732832 7.405456 10.536218 12.944497 22.517404 20.650988 36.184384z" fill="#3B80C3" p-id="6174"></path><path d="M333.66698 758.547507c94.765757-0.180621 189.531515-0.301035 284.297272-0.662277 6.803387 0 14.570085 3.190969 20.349953-3.612417 9.572907-4.515522 18.664158-1.866416 27.755409 1.806209 1.926623 1.565381 2.287865 3.431797 1.083726 5.599247-104.82032 0.060207-209.700847 0.180621-314.521167 0.120414-6.442145 0-13.365945 1.926623-18.965193-3.251176z" fill="#5E9FD4" p-id="6175"></path><path d="M667.093133 761.678269c-0.060207-1.204139-0.060207-2.468485 0-3.672625 2.889934-5.779868 6.74318-8.308561 12.643462-3.55221 2.408278 1.38476 4.816557 2.76952 7.164628 4.15428-5.960489 5.418627-13.125118 2.528692-19.80809 3.070555z" fill="#73A8D8" p-id="6176"></path><path d="M679.676388 754.513641c-4.876764-1.264346-8.609595 1.685795-12.643462 3.55221-9.753528 0-19.567262 0.421449-28.778928-3.732831-23.661336-13.727187-32.571966-32.812794-26.731891-57.317028 4.635936-19.386642 25.587959-35.160865 46.901223-35.341486 22.878645-0.240828 42.746943 13.727187 47.864535 33.595485 6.562559 25.347131-1.98683 44.432738-26.611477 59.24365zM537.347131 586.957667c26.430856 0.180621 49.851364 23.902164 49.068673 49.670743-0.842897 26.250235-24.865475 49.249294-50.634054 48.526811-25.587959-0.722484-47.623706-23.420508-47.623707-49.068673 0-26.912512 22.39699-49.309501 49.189088-49.128881z" fill="#FFFFFF" p-id="6177"></path></svg>