<?xml version="1.0" standalone="no"?><!DOCTYPE svg PUBLIC "-//W3C//DTD SVG 1.1//EN" "http://www.w3.org/Graphics/SVG/1.1/DTD/svg11.dtd"><svg t="1706856619858" class="icon" viewBox="0 0 1024 1024" version="1.1" xmlns="http://www.w3.org/2000/svg" p-id="1713" xmlns:xlink="http://www.w3.org/1999/xlink" width="64" height="64"><path d="M509.170273 1022.494826C224.270931 1017.738476-3.732832 786.302916 0.903104 506.521167 5.53904 223.90969 239.5635-4.334901 520.007526 1.565381c282.430856 5.900282 503.87206 229.087488 503.149577 514.287865-0.662277 282.55127-236.914393 511.21731-513.98683 506.64158z" fill="#3B80C3" p-id="1714"></path><path d="M513.746002 980.831609c-259.732832 0.060207-470.276576-209.881468-469.554092-468.349953 0.722484-258.167451 211.868297-467.386642 471.239887-466.904986 256.662277 0.481656 466.844779 211.567262 466.724365 468.711195-0.120414 256.842897-210.603951 466.483537-468.41016 466.543744z" fill="#FFFFFF" p-id="1715"></path><path d="M443.424271 765.170273c0 23.902164-0.60207 47.864534 0.301035 71.706491 0.421449 11.920978-3.793039 15.111947-15.111948 14.750705-21.975541-0.78269-44.071496-0.662277-66.047036-0.060207-10.355597 0.301035-14.449671-2.76952-14.329257-13.727187 0.481656-49.068674-0.120414-98.197554 0.481656-147.266227 0.361242-28.116651 21.072437-48.165569 47.74412-47.864535 26.370649 0.240828 46.299153 20.590781 46.901223 48.827846 0.421449 24.504233 0 49.068674 0.060207 73.633114z" fill="#FFFFFF" p-id="1716"></path><path d="M92.598307 512a419.823142 419.401693 90 1 0 838.803386 0 419.823142 419.401693 90 1 0-838.803386 0Z" fill="#3B80C3" p-id="1717"></path><path d="M509.832549 717.847601c-78.26905 0-156.5381-0.421449-234.807149 0.361242-16.4365 0.180621-22.878645-3.311383-22.758232-21.433678 0.78269-110.841016 0.78269-221.621825 0-332.462841-0.120414-17.941675 5.840075-22.216369 22.577611-21.554093 40.579492 1.685795 34.498589-5.117592 34.799624 35.823142 0.361242 49.851364 0.541863 99.762935-0.180621 149.6143-0.180621 14.329257 4.033866 18.965193 18.664158 18.904986 122.581373-0.541863 245.222954-0.541863 367.804327 0 14.871119 0.060207 18.724365-4.936971 18.543744-19.085607-0.662277-54.728128 0.240828-109.456256-0.602069-164.124177-0.240828-16.015052 4.094073-21.614299 20.831608-21.192851 36.545626 0.842897 36.545626-0.060207 36.545626 36.304798 0 105.301976-0.421449 210.543744 0.361242 315.84572 0.120414 17.821261-4.033866 23.78175-22.878646 23.480715-79.533396-1.083725-159.247413-0.481656-238.901223-0.481656z" fill="#FFFFFF" p-id="1718"></path><path d="M400.978363 390.984008c46.901223 7.646284 59.604892 18.062088 67.251176 56.173095 13.66698-5.840075 25.407338-15.774224 40.940734-16.496708 18.42333-0.842897 32.933208 17.03857 47.021637 15.352775 14.389464-1.685795 27.93603-16.556914 45.697083-15.111947 25.407338 2.047037 42.445908 15.412982 50.754469 39.315146 1.806209 5.117592 7.646284 13.727187-0.361242 16.015052-7.947319 2.287865-18.483537 6.14111-25.828786-4.75635-19.0254-28.237065-36.425212-27.93603-55.571026 0.361241-5.840075 8.609595-24.624647 8.188147-31.006585-0.602069-19.627469-27.213547-36.906867-27.394167-55.450611-0.60207-7.586077 10.957667-25.407338 9.813735-32.331139-2.107244-13.907808-23.78175-39.014111-23.661336-53.704609 0.301035-7.887112 12.88429-28.839135 13.064911-36.726247-0.301035-12.101599-20.470367-11.078081-41.482596 2.5889-60.447789 6.923801-9.633114 8.067733-13.847601-0.782691-24.383819-14.389464-17.158984-12.763876-38.592662-2.16745-58.581374 9.813735-18.543744 32.812794-31.729069 53.403574-29.140169 22.758231 2.829727 40.338664 13.847601 49.008467 36.184384 2.167451 5.53904 3.130762 11.559737 4.997178 18.664158 27.574788-19.80809 54.667921-24.022578 82.182502-1.746002 7.224835 5.840075 10.957667-2.950141 15.593603-5.779868 32.752587-19.747883 72.368768-6.984008 85.554092 28.477892 2.107244 5.599247 8.730009 14.690499-0.481655 17.700847-7.766698 2.588899-18.302916 5.840075-25.648166-5.358419-18.42333-28.056444-36.545626-27.93603-54.427093-0.541863-6.682973 10.235183-24.745061 10.415804-32.090311 0.361242-19.988711-27.454374-34.438382-27.394167-54.908748 0.240827-8.007526 10.837253-25.828786 9.572907-32.752587-2.76952-6.321731-11.258702-14.630292-18.483537-27.996237-17.399812-10.89746 0.842897-20.349953 4.334901-22.758232 16.978364z" fill="#FFFFFF" p-id="1719"></path></svg>