<?xml version="1.0" standalone="no"?><!DOCTYPE svg PUBLIC "-//W3C//DTD SVG 1.1//EN" "http://www.w3.org/Graphics/SVG/1.1/DTD/svg11.dtd"><svg t="1706856681977" class="icon" viewBox="0 0 1024 1024" version="1.1" xmlns="http://www.w3.org/2000/svg" p-id="3619" xmlns:xlink="http://www.w3.org/1999/xlink" width="64" height="64"><path d="M509.170273 1022.494826C224.270931 1017.738476-3.732832 786.302916 0.903104 506.521167 5.53904 223.90969 239.5635-4.334901 520.007526 1.565381c282.430856 5.900282 503.87206 229.087488 503.149577 514.287865-0.662277 282.55127-236.914393 511.21731-513.98683 506.64158z" fill="#3B80C3" p-id="3620"></path><path d="M513.746002 980.831609c-259.732832 0.060207-470.276576-209.881468-469.554092-468.349953 0.722484-258.167451 211.868297-467.386642 471.239887-466.904986 256.662277 0.481656 466.844779 211.567262 466.724365 468.711195-0.120414 256.842897-210.603951 466.483537-468.41016 466.543744z" fill="#FFFFFF" p-id="3621"></path><path d="M443.424271 765.170273c0 23.902164-0.60207 47.864534 0.301035 71.706491 0.421449 11.920978-3.793039 15.111947-15.111948 14.750705-21.975541-0.78269-44.071496-0.662277-66.047036-0.060207-10.355597 0.301035-14.449671-2.76952-14.329257-13.727187 0.481656-49.068674-0.120414-98.197554 0.481656-147.266227 0.361242-28.116651 21.072437-48.165569 47.74412-47.864535 26.370649 0.240828 46.299153 20.590781 46.901223 48.827846 0.421449 24.504233 0 49.068674 0.060207 73.633114z" fill="#FFFFFF" p-id="3622"></path><path d="M92.598307 512a419.823142 419.401693 90 1 0 838.803386 0 419.823142 419.401693 90 1 0-838.803386 0Z" fill="#3B80C3" p-id="3623"></path><path d="M567.08937 340.470367c23.902164 29.983067 46.96143 58.942615 70.080903 87.841957 30.70555 38.472248 61.832549 76.583255 91.875823 115.537159 7.826905 10.174976 16.015052 13.606773 28.477893 13.305738 31.90969-0.842897 63.819379-0.421449 95.789275-0.240828 21.975541 0.120414 35.883349 13.004704 36.485419 33.29445 0.60207 19.266228-14.208843 34.619003-35.642521 34.799624-46.539981 0.421449-93.079962-0.060207-139.680151-0.120414-17.03857 0-30.404516-6.502352-41.181561-20.169332-19.326435-24.444026-39.555974-48.165569-60.026341-72.850424-24.56444 25.708373-48.165569 50.874882-72.428974 75.49953-6.863594 7.044214-5.418627 14.148636-3.793039 22.035748 8.549389 41.60301 17.098777 83.206021 25.467545 124.809031 1.98683 9.813735 3.492004 19.687676 1.023518 29.682032-3.913452 15.834431-13.727187 26.310442-30.043274 27.574788-16.075259 1.264346-26.852305-8.308561-30.645343-23.239887-7.104421-28.357479-12.944497-56.955786-18.965193-85.554092-7.766698-37.027281-15.232361-74.174976-22.818438-111.262465-3.552211-17.399812-0.301035-32.391345 12.824082-45.636877 15.412982-15.593603 29.32079-32.632173 44.011289-48.948259 4.876764-5.35842 7.52587-9.693321 1.746002-16.918156-17.279398-21.734713-33.715898-44.131703-54.667921-65.505174 0 12.88429 0.481656 25.768579-0.120414 38.592662-1.143932 23.902164-10.957667 34.317968-34.498589 34.799624-34.558796 0.722484-69.177799 0.662277-103.736594 0.060206-18.603951-0.301035-30.284102-11.860771-30.404516-27.695202-0.120414-16.496707 12.222013-27.394167 31.729069-27.574788 23.300094-0.240828 46.539981-0.421449 69.840075 0.120414 10.11477 0.240828 15.232361-2.649106 13.787394-13.426153-0.180621-1.324553 0.240828-2.709313-0.060207-3.973659-9.452493-46.901223 11.49953-77.064911 48.94826-104.097836 26.611477-19.206021 50.935089-33.053622 84.530574-29.441205 22.336783 2.408278 45.215428 1.083725 67.793038 0.240828 13.486359-0.541863 22.818438 4.876764 30.765758 14.810913 27.394167 34.257761 55.029163 68.334901 82.242709 102.713076 10.837253 13.66698 9.753528 32.030103-2.408278 40.880527-14.509878 10.536218-26.129821 4.274694-36.06397-7.947319-18.062088-22.156162-37.930386-43.168391-53.523989-66.889934-15.834431-24.383819-35.281279-33.956726-66.709313-25.106303z" fill="#FFFFFF" p-id="3624"></path><path d="M223.789276 677.087488c16.556914 18.062088 29.742239 32.69238 43.228598 47.081844 8.308561 8.850423 12.222013 18.844779 9.392286 30.946378-4.696143 20.41016-26.55127 28.839135-41.000941 14.028222a2346.265287 2346.265287 0 0 1-93.019755-101.207902c-13.064911-15.111947-9.392286-33.053622 3.311383-47.262465 27.875823-31.187206 56.654751-61.651929 85.253057-92.237065 10.536218-11.258702 22.698024-16.737535 36.786453-5.719661 12.402634 9.693321 14.810913 27.093133 3.793039 41.000941-13.606773 17.098777-28.899341 32.873001-43.58984 49.249294 3.612418 6.622766 9.633114 3.612418 14.208843 3.612418 49.189087 0.240828 98.378175 0.060207 147.507055 0.240828 14.329257 0.060207 28.297272 1.926623 35.401694 16.978363 10.29539 21.734713-4.997178 42.80715-32.391346 43.108184-45.877705 0.60207-91.695202 0.180621-137.572906 0.180621h-31.30762zM471.420508 264.368768c0.421449 31.006585-21.433678 56.353716-49.068674 56.895578-26.792098 0.481656-50.453434-25.768579-50.333019-55.87206 0.120414-28.116651 22.39699-52.380056 48.647225-53.042333 28.5381-0.662277 50.33302 21.614299 50.754468 52.018815z" fill="#FFFFFF" p-id="3625"></path></svg>