<?xml version="1.0" standalone="no"?><!DOCTYPE svg PUBLIC "-//W3C//DTD SVG 1.1//EN" "http://www.w3.org/Graphics/SVG/1.1/DTD/svg11.dtd"><svg t="1706856788790" class="icon" viewBox="0 0 1024 1024" version="1.1" xmlns="http://www.w3.org/2000/svg" p-id="6490" xmlns:xlink="http://www.w3.org/1999/xlink" width="64" height="64"><path d="M509.170273 1022.494826C224.270931 1017.738476-3.732832 786.302916 0.903104 506.521167 5.53904 223.90969 239.5635-4.334901 520.007526 1.565381c282.430856 5.900282 503.87206 229.087488 503.149577 514.287865-0.662277 282.55127-236.914393 511.21731-513.98683 506.64158z" fill="#3B80C3" p-id="6491"></path><path d="M512.60207 979.627469C252.869238 979.687676 42.325494 769.746002 43.047977 511.277516 43.770461 253.110066 254.856068 43.890875 514.287865 44.372531c256.662277 0.481656 466.844779 211.567262 466.724365 468.711194-0.180621 256.842897-210.603951 466.483537-468.41016 466.543744z" fill="#FFFFFF" p-id="6492"></path><path d="M443.424271 765.170273c0 23.902164-0.60207 47.864534 0.301035 71.706491 0.421449 11.920978-3.793039 15.111947-15.111948 14.750705-21.975541-0.78269-44.071496-0.662277-66.047036-0.060207-10.355597 0.301035-14.449671-2.76952-14.329257-13.727187 0.481656-49.068674-0.120414-98.197554 0.481656-147.266227 0.361242-28.116651 21.072437-48.165569 47.74412-47.864535 26.370649 0.240828 46.299153 20.590781 46.901223 48.827846 0.421449 24.504233 0 49.068674 0.060207 73.633114z" fill="#FFFFFF" p-id="6493"></path><path d="M932.84666 512.060207c0.120414 233.783631-188.267168 422.652869-421.388523 422.412041-231.796802-0.240828-420.003763-188.507996-420.365004-420.425211-0.301035-234.626529 185.497648-422.532455 419.883349-424.519285 231.555974-1.926623 421.749765 188.507996 421.870178 422.532455z" fill="#3B80C3" p-id="6494"></path><path d="M540.899341 770.588899H476.116651c-78.148636 0-156.357479-0.180621-234.506115 0.180621-14.449671 0.060207-21.313264-4.214487-21.313264-20.169332 0.361242-160.451552 0.361242-320.903104 0-481.354656-0.060207-15.593603 6.201317-20.711195 21.012229-20.470367 32.331138 0.541863 64.662277 0.722484 96.993415-0.120414 13.004704-0.361242 19.0254 5.298213 23.119473 16.617121 59.364064 164.184384 118.908749 328.368768 178.453434 492.492945 1.444967 3.853246 3.010348 7.646284 1.023518 12.824082zM762.521167 499.055503c-30.946378 1.565381-57.25682-8.790216-82.122296-24.323612-33.113829-20.650988-66.528692-20.470367-99.100658 0.421449-24.383819 15.65381-50.33302 24.203198-79.292569 24.624647-14.26905 0.240828-20.530574-6.923801-20.831608-20.109125-0.301035-13.305738 2.167451-26.009407 19.20602-25.347131 22.938852 0.842897 42.024459-8.188147 60.869238-19.446849 46.35936-27.755409 93.32079-28.297272 139.49953 0.060207 31.969897 19.627469 64.481656 26.370649 99.943556 10.295391 13.004704-5.900282 23.902164-1.264346 29.140169 11.138288 5.057385 11.920978 1.806209 23.540922-10.716839 29.922859-18.001881 9.211665-37.087488 14.329257-56.594543 12.763876zM765.290687 637.892756c-24.805268 0.180621-47.74412-7.224835-68.033867-20.530573-39.917215-26.190028-78.630292-25.888993-117.644402 1.324553-11.680151 8.12794-25.226717 12.28222-38.773283 16.075258-7.766698 2.167451-17.580433 5.599247-20.22954-6.14111-2.709313-12.101599-9.693321-31.247413 3.612418-35.281279 32.632173-9.934149 58.400753-34.438382 93.501411-38.83349 31.729069-3.973659 61.651929-0.120414 87.962371 16.496707 33.655691 21.313264 67.251176 28.477893 104.639699 12.161806 12.88429-5.659454 21.79492 0.541863 26.972719 11.860772 5.418627 11.740357 1.926623 22.035748-9.452493 28.297272-19.446849 10.716839-40.639699 14.449671-62.555033 14.570084zM769.38476 775.285042c-32.270931 0.722484-57.738476-4.75635-80.4365-19.988711-34.859831-23.420508-70.562559-26.792098-107.288806-5.117592-14.26905 8.428975-20.831609-1.264346-26.731891-10.656632-6.321731-10.174976-8.489182-20.169332 5.057385-28.176858 43.951082-26.069614 89.286924-29.983067 133.478834-4.094073 35.4619 20.771402 70.020696 31.608655 109.57667 13.727187 11.439323-5.177799 21.01223-0.481656 26.009407 10.837253 5.418627 12.28222 3.010348 23.360301-9.271872 30.163688-17.219191 9.452493-36.003763 13.486359-50.393227 13.305738z" fill="#FFFFFF" p-id="6495"></path></svg>