<?xml version="1.0" standalone="no"?><!DOCTYPE svg PUBLIC "-//W3C//DTD SVG 1.1//EN" "http://www.w3.org/Graphics/SVG/1.1/DTD/svg11.dtd"><svg t="1706856727741" class="icon" viewBox="0 0 1024 1024" version="1.1" xmlns="http://www.w3.org/2000/svg" p-id="4578" xmlns:xlink="http://www.w3.org/1999/xlink" width="64" height="64"><path d="M509.170273 1022.494826C224.270931 1017.738476-3.732832 786.302916 0.903104 506.521167 5.53904 223.90969 239.5635-4.334901 520.007526 1.565381c282.430856 5.900282 503.87206 229.087488 503.149577 514.287865-0.662277 282.55127-236.914393 511.21731-513.98683 506.64158z" fill="#3B80C3" p-id="4579"></path><path d="M512.60207 979.627469C252.869238 979.687676 42.325494 769.746002 43.047977 511.277516 43.770461 253.110066 254.856068 43.890875 514.287865 44.372531c256.662277 0.481656 466.844779 211.567262 466.724365 468.711194-0.180621 256.842897-210.603951 466.483537-468.41016 466.543744z" fill="#FFFFFF" p-id="4580"></path><path d="M443.424271 765.170273c0 23.902164-0.60207 47.864534 0.301035 71.706491 0.421449 11.920978-3.793039 15.111947-15.111948 14.750705-21.975541-0.78269-44.071496-0.662277-66.047036-0.060207-10.355597 0.301035-14.449671-2.76952-14.329257-13.727187 0.481656-49.068674-0.120414-98.197554 0.481656-147.266227 0.361242-28.116651 21.072437-48.165569 47.74412-47.864535 26.370649 0.240828 46.299153 20.590781 46.901223 48.827846 0.421449 24.504233 0 49.068674 0.060207 73.633114z" fill="#FFFFFF" p-id="4581"></path><path d="M932.84666 512.060207c0.120414 233.783631-188.267168 422.652869-421.388523 422.412041-231.796802-0.240828-420.003763-188.507996-420.365004-420.425211-0.301035-234.626529 185.497648-422.532455 419.883349-424.519285 231.555974-1.926623 421.749765 188.507996 421.870178 422.532455z" fill="#3B80C3" p-id="4582"></path><path d="M453.900282 551.676388c-80.075259 38.111007-156.357479 74.536218-232.760113 110.780809-26.430856 12.583255-24.263405 12.222013-27.153339-17.520226-3.190969-33.053622 7.887112-53.403575 36.003763-72.368768 70.863594-47.924741 138.656632-100.304798 208.316086-149.975541 12.643462-9.031044 17.03857-18.483537 16.677329-33.595484-1.023518-39.194732-1.38476-78.449671 0-117.584196 1.023518-29.140169 12.763876-53.764817 38.171213-70.9238 18.904986-12.763876 35.100659-8.308561 48.767639 7.104421 17.339605 19.627469 28.176858 42.445908 28.056444 69.53904-0.120414 35.221072 1.505174 70.502352-0.60207 105.603011-1.264346 21.253057 6.74318 32.993415 23.420508 44.733772 71.766698 50.874882 142.088429 103.796802 213.975541 154.491063 17.700847 12.462841 24.444026 25.708373 23.721543 47.142051-1.625588 46.238946-0.481656 46.238946-42.98777 25.828786-70.502352-33.776105-141.004704-67.552211-216.142992-103.495766 0 31.668862 0.060207 59.905927 0 88.203198-0.120414 32.812794 0.180621 65.625588-0.782691 98.378175-0.361242 12.583255 2.76952 20.349953 14.630292 26.55127 21.915334 11.49953 42.506115 25.407338 64.180621 37.508937 9.031044 5.057385 13.185325 11.49953 10.837253 21.192851-3.010348 12.462841-12.88429 6.622766-19.627469 5.659454-37.147695-5.238006-74.174976-11.379116-111.322672-16.797742-34.016933-4.936971-66.468485 7.285042-99.823142 9.934148-14.26905 1.143932-28.297272 4.997178-42.566322 6.622766-6.923801 0.78269-16.797742 6.923801-19.928504-5.177799-2.287865-8.91063-0.361242-16.857949 9.091251-22.396989 21.373471-12.462841 42.084666-26.190028 63.458137-38.713076 9.753528-5.719661 14.991533-12.041392 14.87112-24.444027-0.842897-60.809031-0.481656-121.618062-0.481656-186.280338z" fill="#FFFFFF" p-id="4583"></path></svg>