<?xml version="1.0" standalone="no"?><!DOCTYPE svg PUBLIC "-//W3C//DTD SVG 1.1//EN" "http://www.w3.org/Graphics/SVG/1.1/DTD/svg11.dtd"><svg t="1706856758606" class="icon" viewBox="0 0 1024 1024" version="1.1" xmlns="http://www.w3.org/2000/svg" p-id="5533" xmlns:xlink="http://www.w3.org/1999/xlink" width="64" height="64"><path d="M509.170273 1022.494826C224.270931 1017.738476-3.732832 786.302916 0.903104 506.521167 5.53904 223.90969 239.5635-4.334901 520.007526 1.565381c282.430856 5.900282 503.87206 229.087488 503.149577 514.287865-0.662277 282.55127-236.914393 511.21731-513.98683 506.64158z" fill="#3A79B6" p-id="5534"></path><path d="M512.60207 979.627469C252.869238 979.687676 42.325494 769.746002 43.047977 511.277516 43.770461 253.110066 254.856068 43.890875 514.287865 44.372531c256.662277 0.481656 466.844779 211.567262 466.724365 468.711194-0.180621 256.842897-210.603951 466.483537-468.41016 466.543744z" fill="#FFFFFF" p-id="5535"></path><path d="M443.424271 765.170273c0 23.902164-0.60207 47.864534 0.301035 71.706491 0.421449 11.920978-3.793039 15.111947-15.111948 14.750705-21.975541-0.78269-44.071496-0.662277-66.047036-0.060207-10.355597 0.301035-14.449671-2.76952-14.329257-13.727187 0.481656-49.068674-0.120414-98.197554 0.481656-147.266227 0.361242-28.116651 21.072437-48.165569 47.74412-47.864535 26.370649 0.240828 46.299153 20.590781 46.901223 48.827846 0.421449 24.504233 0 49.068674 0.060207 73.633114z" fill="#FFFFFF" p-id="5536"></path><path d="M932.84666 512.060207c0.120414 233.783631-188.267168 422.652869-421.388523 422.412041-231.796802-0.240828-420.003763-188.507996-420.365004-420.425211-0.301035-234.626529 185.497648-422.532455 419.883349-424.519285 231.555974-1.926623 421.749765 188.507996 421.870178 422.532455z" fill="#3A79B6" p-id="5537"></path><path d="M543.969897 200.549389c81.580433 1.685795 152.203198 30.284102 211.507055 86.276575 12.402634 11.680151 20.349953 25.347131 14.570085 44.011289-4.997178 16.135466-15.292568 25.587959-31.247413 28.477893-17.279398 3.130762-30.70555-6.201317-42.325494-16.918156-56.173095-51.657573-123.424271-70.923801-196.575729-57.196614C414.223895 301.215428 352.09031 352.210724 323.672625 435.777987c-45.456256 133.840075 29.140169 267.379116 167.61618 300.733772 69.779868 16.797742 135.887112 0.481656 193.023519-45.155221 11.078081-8.850423 21.01223-18.784572 34.317968-24.805268 16.135466-7.285042 30.404516-2.468485 41.362182 8.188147 10.89746 10.596425 16.015052 24.805268 9.572907 40.880527-3.311383 8.248354-7.706491 15.292568-14.26905 21.313264-88.383819 80.195673-191.518344 106.144873-304.767639 71.826905-113.369708-34.378175-187.002822-113.189087-212.650987-229.388523-43.58984-197.53904 108.613358-383.879586 306.092192-378.822201z" fill="#FFFFFF" p-id="5538"></path><path d="M675.642521 478.163688c-18.302916-16.677328-32.873001-29.501411-46.901223-42.867357-20.590781-19.567262-23.17968-39.495767-7.947319-55.510818 14.810913-15.593603 32.210724-13.365945 53.343368 6.442145 33.956726 31.849483 68.094073 63.518344 102.111007 95.247413 22.938852 21.373471 23.239887 38.472248 0.240828 59.966133-34.619003 32.270931-69.599247 64.240828-104.760113 95.90969-18.242709 16.4365-39.074318 17.098777-52.380057 2.829727-13.305738-14.26905-10.536218-34.378175 7.646284-51.657573 14.148636-13.486359 28.718721-26.491063 47.081844-43.349012h-50.272813c-61.531515 0-123.123236 0.180621-184.65475-0.060207-26.009407-0.120414-40.21825-11.860771-40.699906-32.511759-0.481656-21.79492 13.968015-34.257761 41.181561-34.378175 69.478833-0.180621 138.89746-0.060207 208.376294-0.060207h27.634995z" fill="#FFFFFF" p-id="5539"></path></svg>