<?xml version="1.0" standalone="no"?><!DOCTYPE svg PUBLIC "-//W3C//DTD SVG 1.1//EN" "http://www.w3.org/Graphics/SVG/1.1/DTD/svg11.dtd"><svg t="1706856770731" class="icon" viewBox="0 0 1024 1024" version="1.1" xmlns="http://www.w3.org/2000/svg" p-id="5850" xmlns:xlink="http://www.w3.org/1999/xlink" width="64" height="64"><path d="M509.170273 1022.494826C224.270931 1017.738476-3.732832 786.302916 0.903104 506.521167 5.53904 223.90969 239.5635-4.334901 520.007526 1.565381c282.430856 5.900282 503.87206 229.087488 503.149577 514.287865-0.662277 282.55127-236.914393 511.21731-513.98683 506.64158z" fill="#3B80C3" p-id="5851"></path><path d="M512.60207 979.627469C252.869238 979.687676 42.325494 769.746002 43.047977 511.277516 43.770461 253.110066 254.856068 43.890875 514.287865 44.372531c256.662277 0.481656 466.844779 211.567262 466.724365 468.711194-0.180621 256.842897-210.603951 466.483537-468.41016 466.543744z" fill="#FFFFFF" p-id="5852"></path><path d="M443.424271 765.170273c0 23.902164-0.60207 47.864534 0.301035 71.706491 0.421449 11.920978-3.793039 15.111947-15.111948 14.750705-21.975541-0.78269-44.071496-0.662277-66.047036-0.060207-10.355597 0.301035-14.449671-2.76952-14.329257-13.727187 0.481656-49.068674-0.120414-98.197554 0.481656-147.266227 0.361242-28.116651 21.072437-48.165569 47.74412-47.864535 26.370649 0.240828 46.299153 20.590781 46.901223 48.827846 0.421449 24.504233 0 49.068674 0.060207 73.633114z" fill="#FFFFFF" p-id="5853"></path><path d="M932.84666 512.060207c0.120414 233.783631-188.267168 422.652869-421.388523 422.412041-231.796802-0.240828-420.003763-188.507996-420.365004-420.425211-0.301035-234.626529 185.497648-422.532455 419.883349-424.519285 231.555974-1.926623 421.749765 188.507996 421.870178 422.532455z" fill="#3B80C3" p-id="5854"></path><path d="M247.149577 484.786453C246.848542 352.270931 338.603951 242.814675 469.373471 219.996237c8.308561-1.444967 12.944497-3.672625 15.65381-13.185324 3.672625-12.703669 13.787394-19.687676 28.5381-19.386642 14.329257 0.301035 22.577611 8.669802 25.888993 20.349953 2.528692 8.850423 7.044214 10.837253 14.570085 12.161806 120.775165 20.650988 205.546566 113.369708 220.297272 227.401693 12.28222 94.524929-20.831609 174.96143-93.140169 238.17874-14.329257 12.523048-31.729069 12.402634-42.927564 0.842897-12.824083-13.305738-12.703669-28.658514 3.311383-43.469426 34.257761-31.849483 59.665099-68.635936 70.321731-114.814675 23.902164-103.616181-34.920038-207.714017-136.188147-240.707432-132.15428-43.047977-269.727187 55.08937-269.968015 194.408278-0.120414 57.136406 21.253057 107.529633 62.494826 148.349953 5.057385 4.997178 10.415804 9.753528 15.292568 14.931327 13.185325 14.028222 13.847601 28.477893 2.287865 40.82032-12.222013 13.004704-28.357479 13.66698-42.445908 1.143932-45.57667-40.398871-76.824083-89.527752-91.15334-149.192851-4.274694-17.580433-3.251176-35.401693-5.057384-53.042333z" fill="#FFFFFF" p-id="5855"></path><path d="M512.481656 836.455315c-52.861712 0-105.783631-0.180621-158.645344 0.120414-15.894638 0.120414-25.467545-7.706491-31.428034-21.493885-5.418627-12.583255 0.963311-22.035748 8.790217-30.404516 7.52587-8.007526 18.182502-7.766698 28.297272-7.766698 36.244591-0.060207 72.489182-0.361242 108.733772 0.180621 9.633114 0.120414 13.245532-1.926623 13.185325-12.523048-0.421449-80.195673-0.361242-160.451552-0.060207-240.707432 0.060207-8.730009-1.685795-12.101599-11.49953-12.402634-18.42333-0.541863-32.933208-15.834431-31.849483-31.247413 1.083725-15.292568 15.714017-28.297272 33.053622-28.477892 27.33396-0.301035 54.667921-0.361242 82.001882 0 18.483537 0.240828 33.29445 14.028222 33.294449 29.983066 0 15.292568-13.787394 29.682032-31.548447 29.621825-12.28222-0.060207-12.944497 5.238006-12.88429 14.87112 0.301035 78.449671 0.481656 156.899341-0.120414 235.349012-0.120414 12.763876 3.793039 15.774224 15.954845 15.533396 37.44873-0.78269 74.89746-0.541863 112.285983-0.180621 15.352775 0.120414 27.755409 5.478833 32.270931 22.216369 3.853246 14.148636-2.227658 24.203198-12.643462 32.451552-7.044214 5.53904-15.65381 4.816557-23.96237 4.816557-50.995296 0.060207-102.111007 0.060207-153.226717 0.060207z" fill="#FFFFFF" p-id="5856"></path></svg>